<?xml version="1.0" encoding="utf-8"?>
<!-- Generator: Adobe Illustrator 16.0.4, SVG Export Plug-In . SVG Version: 6.00 Build 0)  -->
<!DOCTYPE svg PUBLIC "-//W3C//DTD SVG 1.1//EN" "http://www.w3.org/Graphics/SVG/1.1/DTD/svg11.dtd">
<!-- width="453.76px" height="106.76px" -->
<svg version="1.1" id="Layer_1" xmlns="http://www.w3.org/2000/svg" xmlns:xlink="http://www.w3.org/1999/xlink" x="0px" y="0px"
	 width="100%" height="100%" viewBox="0 0 453.76 106.76" preserveAspectRatio="xMinYMin meet" enable-background="new 0 0 453.76 106.76" xml:space="preserve">
<path fill="#231F20" d="M73.07,93.98c-0.63,0.45-2.5,0.49-2.76,1.19c-0.17,0.28,0.06,0.65-0.05,0.92c-0.35,0.86-0.85,0.73-0.76,2.06
	c0.26,0.17,0.59,0.47,0.81,0.7h0.54c0.15-0.22,0.32-0.32,0.7-0.32c0.17,0.17,0.53,0.46,0.76,0.54c0.77,0.26,1.01-0.38,1.73-0.22
	c0.62,0.15,1.38,0.27,2,0.49c0.21,0.07,0.68,0.29,0.98,0.21c0.45-0.12,0.6-0.64,0.97-0.81c0.71-0.32,1.84-0.15,2.65-0.33
	c0.7-0.15,1.48,0.15,2,0.27c0.56-0.04,1.12-0.08,1.67-0.11c0.86,0.19,1.47,0.68,2.43,0.7v-0.05h0.05c0.02-0.21-0.03-0.67,0.05-0.92
	c0.08-0.24,0.25-0.2,0.27-0.59c-0.24-0.18-0.47-0.54-0.76-0.65c-0.61-0.26-1.19-0.06-1.78-0.22c-0.43-0.16-0.86-0.32-1.3-0.49
	c-0.72-0.21-1.4,0.66-1.52,0.54c-0.27-0.11-0.2-0.26-0.65-0.27c-0.23-0.14-0.51,0.04-0.76,0c-0.2-0.04-0.86-0.16-1.03-0.27
	c-0.31-0.19-0.66-0.69-0.81-1.03c-0.02-0.09-0.03-0.18-0.05-0.27c-0.11-0.15-1.08-0.6-1.3-0.65c-0.17-0.04-0.42,0.08-0.54,0.11
	c-0.31,0.07-0.5,0-0.76,0.11c-0.3,0.12-0.7,0.62-1.3,0.43c-0.52-0.16-0.46-0.79-0.81-0.97C73.63,93.96,73.36,93.98,73.07,93.98
	 M9.63,79.27c-0.44,0.29-1,0.27-1.51,0.48c-0.32,0.14-0.41,0.47-0.65,0.65c-0.42,0.31-0.82-0.03-0.81,0.76
	c0.45,0.11,0.88,0.12,1.3,0.27c0.2,0.07,0.49,0.32,0.7,0.38c0.35,0.1,1.25-0.25,1.57-0.33c0.13-0.14,0.25-0.29,0.38-0.43
	c0.01-0.51-0.22-0.62-0.32-0.92c-0.13-0.39,0.19-0.64-0.27-0.81C9.92,79.27,9.79,79.27,9.63,79.27 M55.55,69.1
	c-0.04,0.5-0.75,0.66-1.3,0.65C54.27,69.09,54.96,69.04,55.55,69.1 M53.22,67.16c-0.49,0.3-1.12,0.05-1.79,0.22
	c-0.83,0.2-1.87,0.32-2.65,0.65c-0.54,0.22-1.17,0.51-1.68,0.81c-0.45,0.26-0.67,0.87-0.98,1.3c-0.05,0.07-1.23,0.61-1.35,0.65
	c-0.71,0.22-1.01-0.47-1.3-0.6h-1.3c-0.45,0.26-1.11-0.14-1.62,0c-0.63,0.17-1.49,0.25-2.11,0.49c-1.11,0.43-2.11,1.3-3.25,1.73
	c-0.25,0.04-0.51,0.07-0.76,0.11c-0.33,0.1-0.7,0.31-1.03,0.43c-0.39,0.14-0.72,0.12-1.08,0.27c-0.59,0.25-1.04,0.76-1.73,0.92
	c-0.32,0.07-0.73-0.18-1.19-0.05c-0.49,0.14-1.03,0.45-1.51,0.6c-0.34-0.02-0.69-0.04-1.03-0.05c-0.32,0-0.54,0.06-0.76,0.11
	c-0.47,0.02-0.94,0.04-1.41,0.05c-0.64,0.15-1.2,0.34-1.73,0.49c-0.69,0.04-1.37,0.07-2.05,0.11c-0.4,0.1-1,0.24-1.41,0.33
	c-0.42,0.09-0.7-0.19-1.14-0.05c-0.34,0.1-0.68,0.37-1.03,0.49c-0.86,0.29-1.81,0.36-2.65,0.7c-0.49,0.21-1.03,0.78-1.41,1.13
	c-0.02,0.59-0.02,1.58,0.27,2.05c0.16,0.26,0.49,0.41,0.65,0.65c0.12,0.18,0.11,0.46,0.27,0.6c0.11,0.1,0.36,0.08,0.43,0.21
	c0.1,0.18-0.05,0.33,0.11,0.43c0.14,0.09,0.29,0.03,0.43,0.11c0.15,0.08,0.27,0.31,0.43,0.38c0.43,0.18,0.72,0.18,1.19,0.33
	c0.53,0.16,1.12,0.45,1.68,0.6c0.48,0.12,1.03-0.09,1.35-0.16c0.78-0.18,1.82,0.11,2.49,0.27c0.28,0.07,0.59-0.06,0.81,0.05
	c1.22,0.63,2.63,1.26,3.73,2.05c0.3,0.22,0.49,0.56,0.76,0.81c0.17,0.17,0.45,0.23,0.65,0.38c0.35,0.26,0.62,0.72,0.98,0.97
	c0.51,0.36,1.15,0.79,1.73,1.03c0.75,0.3,1.81,0.11,2.49-0.05h0.76c0.24-0.05,0.75-0.1,1.03-0.16h0.92
	c0.58-0.14,1.27-0.44,1.84-0.54c0.75-0.13,1.29,0.5,1.78,0.71c0.24,0.1,0.61,0.16,0.81,0.22c0.6,0.16,2.05-0.03,2.43-0.11
	c0.81-0.18,1.67,0.35,2.65,0.11c0.89-0.22,0.93-0.76,1.51-1.08c0.36-0.2,0.7-0.14,0.92-0.54c0.18-0.33,0.07-0.85,0.27-1.14
	c0.19-0.27,0.62-0.28,0.81-0.54c0.22-0.32-0.11-0.71,0.38-0.81c0.26,0.36,0.87,0.12,1.35,0.27c0.25,0.08,0.55,0.33,0.76,0.49
	c0.16,0.12,0.13,0.36,0.27,0.49c0.09,0.09,0.26,0.04,0.32,0.16v0.43c0.05,0.12,0.29,0.27,0.38,0.38c0.34,0.41,0.5,1.02,0.81,1.46
	c0.07,0.1,0.23,0.13,0.33,0.22c0.57,0.53,1.09,0.99,1.73,1.46c0.38,0.27,0.37,0.65,1.03,0.71c0.08-0.06,0.24-0.05,0.33-0.11
	c0.13-0.09,0.32-0.36,0.43-0.49c0.95-0.06,1.11,0.31,1.62,0.81c0.13,0.09,0.25,0.18,0.38,0.27c0.19,0.24,0.32,0.62,0.6,0.76
	c0.33,0.17,0.91-0.1,1.3,0.05c0.09,0.04,0.24,0.22,0.32,0.27c0.32,0.2,0.86,0.38,1.19,0.49c0.44,0.13,1.12-0.08,1.52,0
	c0.44,0.09,1.14,0.82,1.78,0.38c0.28-0.1,1.09-0.98,1.19-1.24c0.15-0.38,0.13-2.45,0.05-2.82v-1.24c-0.09-0.34-0.33-0.96-0.27-1.41
	c0.17-1.19,0.22-2.79,0.54-4.11v-1.73c0.27-1.2,0.25-2.61-0.05-3.73c-0.13-0.48-0.02-1.12-0.11-1.51c-0.05-0.23,0.04-0.48,0.05-0.65
	c0.06-0.62-0.01-3.18-0.22-3.52c-0.19-0.32-1.45-0.15-1.79-0.21c-0.42-0.09-0.72-0.44-1.08-0.6c-0.4-0.17-0.79-0.05-1.3-0.16
	c-0.14-0.03-0.53-0.12-0.76-0.05c-0.39,0.11-0.52,0.44-0.98,0.49c-0.09-0.09-0.3-0.12-0.38-0.22c-0.17-0.22-0.16-0.54-0.32-0.76
	c-0.13-0.09-0.25-0.18-0.38-0.27c-1.18-0.02-1.57,0.74-2.33,1.13c-0.5,0.26-0.9,0.25-1.52,0.43c-0.48,0.14-1.07,0.43-1.57,0.59
	c-0.2,0.04-0.4,0.07-0.6,0.11c-0.98,0.41-1.99,0.98-2.87,1.51c-0.16,0.05-0.32,0.11-0.48,0.16c-0.72,0.46-1.83,1.09-3.03,0.86
	c-0.12-0.21-0.28-0.54-0.38-0.76c-0.39-0.82,0.12-1.15,0.6-1.46c0.16-0.1,0.3-0.3,0.49-0.38c0.89-0.37,2.39-0.45,2.86-1.19
	c0.28-0.43-0.01-0.87,0.11-1.24c0.1-0.3,0.61-0.97,0.87-1.14c0.55-0.36,2.12-0.1,2.22-0.87c-0.08-0.06-0.04-0.06-0.16-0.11
	C54.46,67.03,53.61,67.15,53.22,67.16 M67.07,66.29c-0.86,0.68-1.9,1.1-3.08,1.46c-0.52,0.16-1.06-0.08-1.08,0.6h0.11
	c0.36,0.24,1.19,0.18,1.62,0.05c0.86-0.24,2.98-1.03,3.08-1.89C67.53,66.33,67.48,66.28,67.07,66.29 M70.48,61.64
	c-0.22,0.67,0.23,1.34,0,2c-0.06,0.17-0.3,0.3-0.38,0.49c-0.07,0.56-0.14,1.12-0.22,1.68c0.11,0.54,0.4,1.02,0.43,1.51
	c-0.53,0.49-0.33,1.21-0.16,1.89c0.6,0.26,1.41,0.2,2,0.05c0.43-0.1,0.79,0.07,1.14,0c0.34-0.06,0.63-0.12,1.03-0.21
	c0.36-0.09,1.08-0.3,1.51-0.22c0.34,0.07,0.64,0.24,0.92,0.33c0.31,0.09,0.55-0.03,0.81,0.11c0.23,0.12,0.44,0.36,0.76,0.43
	c0.47,0.12,1.14-0.04,1.46-0.11h0.65c0.39-0.09,0.8-0.16,1.35-0.16c0.16,0,0.34-0.07,0.44-0.05c0.12,0.02,0.31,0.23,0.43,0.27
	c0.69,0.26,1.92,0.12,2.38-0.21c0.04-0.06,0.03-0.05,0.05-0.16c-0.32-0.15-0.91-0.13-1.35-0.21c-0.45-0.75-1.06-1.17-1.73-1.68
	c-0.29-0.32-0.58-0.65-0.87-0.97c-0.09-0.02-0.18-0.04-0.27-0.05c-0.09-0.11-0.18-0.21-0.27-0.32c-0.25-0.14-0.52-0.12-0.76-0.27
	c-0.2-0.13-0.45-0.35-0.7-0.43c-0.18-0.02-0.36-0.04-0.54-0.05c-0.09-0.03-0.23-0.19-0.32-0.21c-0.2-0.06-0.48,0.09-0.6,0.05
	c-0.1-0.04-0.19-0.28-0.32-0.33c-0.2-0.02-0.39-0.04-0.59-0.05c-0.28-0.11-0.6-0.39-0.92-0.49c-0.17-0.05-0.39,0.04-0.49,0.05
	c-0.33,0.04-0.64-0.11-0.92-0.22c-0.42-0.16-1.08-0.69-1.46-0.97c-0.09-0.11-0.18-0.22-0.27-0.32c-0.37-0.25-1.2-0.36-1.51-0.6
	C70.88,61.95,71.08,61.7,70.48,61.64 M70.1,50.12c-0.1,0.3-0.23,0.5-0.16,0.86c0.7,0.17,1.02,0.8,1.73,0.92
	c0.03-0.09,0.05-0.17,0.05-0.32c-0.07-0.2-0.14-0.4-0.22-0.59c-0.22-0.33-0.64-0.58-0.92-0.86H70.1z M63.07,50.98v0.22
	c0.14,0.08,0.32,0.23,0.49,0.27c0.37,0.1,0.58-0.18,0.76-0.11c0.47,0.13,1.13,0.53,1.3,0.97c0.17,0.43,0.15,0.79,0.38,1.13
	c0.18,0.15,0.36,0.29,0.54,0.43c0.13,0.2,0.02,0.46,0.11,0.7c0.08,0.22,0.39,0.38,0.54,0.54h0.27c0.04-0.12,0.05-0.29,0.05-0.49
	c-0.12-0.21,0.05-0.84,0.05-1.24c-0.02-0.99-0.04-1.98-0.05-2.97c0.09-0.38,0.25-1.37,0-1.73c-0.07-0.05-0.13-0.05-0.27-0.05
	c-0.27,0.4-0.86,0.52-1.25,0.81c-0.17,0.13-0.2,0.31-0.32,0.49C65.16,50.68,64.32,50.98,63.07,50.98 M62.69,50.98
	c-0.03-0.63-0.53-0.74-0.59-1.46c0.25-0.16,0.47-0.47,0.49-0.87c-0.89-0.03-1.45,0.39-2.06,0.65c-0.38,0.16-0.73,0.07-0.76,0.6
	c0.18,0.04,0.3,0.17,0.43,0.22c0.4,0.13,0.75-0.04,1.08,0.11C61.8,50.46,61.89,50.96,62.69,50.98 M69.07,31.03
	c-0.22,0.2-0.33,0.15-0.32,0.59c0.19,0.18,0.24,0.23,0.65,0.22c0.09-0.17,0.12-0.35,0.11-0.65c-0.04-0.06-0.02-0.02-0.05-0.11
	C69.35,31.05,69.24,31.03,69.07,31.03 M69.12,29.02h-0.27c-0.07,0.28-0.11,1.16-0.11,1.57c0.15,0.08,0.41,0.11,0.67,0.11
	c0.04-0.1,0.05-0.21,0.05-0.38C69.36,30.17,69.15,29.25,69.12,29.02 M21.2,25.56c-0.59,0.98-0.19,2.2,0.38,2.98
	c0.34,0.47,0.81,0.82,1.46,0.97h0.76c0.09,0.03,0.23,0.18,0.32,0.22c0.54,0.2,1.21,0.25,1.73,0.38c0.3,0.02,0.61,0.04,0.92,0.05
	c0.46,0.1,1.22,0.3,1.84,0.16c0.5-0.11,0.93-0.28,1.41-0.38v-0.22c-0.55-0.21-1.23-0.37-1.84-0.54c-0.42-0.04-0.83-0.07-1.24-0.11
	c-0.7-0.21-1.36-0.63-1.95-0.97c-0.2-0.07-0.4-0.14-0.59-0.22c-0.44-0.27-0.83-0.68-1.25-0.97c-0.19-0.14-0.4-0.18-0.59-0.32
	C22.12,26.28,21.9,25.6,21.2,25.56 M67.55,23.45h0.45c0.06-0.16,0.06-0.42,0.06-0.65c-0.04-0.05-0.2-0.2-0.24-0.29
	c-0.08-0.03-0.09,0.15-0.21,0.13C67.54,22.84,67.55,23.18,67.55,23.45 M24.94,17.61c-0.96,0.77-3.15,1.34-3.14,2.98
	c0.16,0.19,0.31,0.55,0.38,0.81v0.92c0.1,0.42,0.35,1.06,0.54,1.46c0.16,0.32,1.48,0.85,1.84,1.14c0.27,0.21,0.42,1.12,0.81,1.41
	c0.53,0.38,1.36,0.7,2.06,0.86c0.36,0.09,0.76-0.19,1.03-0.11c0.09,0.11,0.18,0.22,0.27,0.33c0.24,0.16,0.42,0.07,0.76,0.16
	c0.13,0.04,0.31,0.18,0.43,0.22c0.44,0.12,2.44-0.35,2.76-0.49c0.44-0.18,1.01-0.47,1.41-0.76c0.19-0.14,0.35-0.41,0.54-0.54
	c0.32-0.11,0.65-0.22,0.97-0.32c0.18-0.14,0.23-0.46,0.43-0.59c0.33-0.22,0.76-0.21,1.08-0.43c0.39-0.27,0.5-0.92,0.7-1.41
	c0.29-0.7,0.78-1.28,0.38-2.27c-0.24-0.11-0.58-0.18-0.81-0.32c-0.22-0.14-0.43-0.41-0.7-0.49c-0.44-0.12-0.91,0.1-1.19,0.16
	c-0.44,0.1-0.65-0.19-1.03-0.11c-0.23,0.05-0.49,0.26-0.87,0.16c-0.42-0.11-1.06-0.18-1.46-0.38c-0.14-0.07-0.34-0.22-0.54-0.27
	c-0.69,0.04-1.37,0.07-2.06,0.11c-0.61-0.19-1.23-0.7-1.84-0.86c-0.24,0.02-0.47,0.03-0.71,0.05c-0.3-0.06-0.85-0.33-1.14-0.49
	c-0.35-0.19-0.35-0.71-0.7-0.87C25.09,17.62,25.06,17.63,24.94,17.61 M28.77,17.4c-0.08,0.12-0.1,0.1-0.11,0.32
	c0.04,0.06,0.02,0.01,0.05,0.11c0.28,0.16,0.68,0.49,0.97,0.59c0.14,0.05,1.33,0.23,1.41,0.22c0.12-0.02,0.44-0.1,0.65-0.05
	c0.52,0.12,1.04,0.21,1.78,0.21c0.03-0.09,0.05-0.17,0.05-0.32h-0.05v-0.05c-0.25-0.03-0.45-0.18-0.76-0.11
	c-0.15,0.03-0.39,0.19-0.65,0.11C31.05,18.1,30.19,17.44,28.77,17.4 M32.29,14.96c-0.13,0.08-0.34,0.01-0.54,0.05
	c-0.22,0.06-0.48,0.29-0.65,0.32c-0.51,0.12-1.11-0.39-1.79-0.27c-0.03,0.09-0.04,0.13-0.05,0.27c0.49,0.12,0.99,0.41,1.46,0.54
	c0.55,0.15,1-0.06,1.51,0.11c0.34,0.11,0.77,0.37,1.08,0.49c0.45,0.11,0.9,0.22,1.35,0.33c0.3,0.14,0.42,0.46,0.65,0.65
	c0.13,0.11,0.3,0.12,0.43,0.22c0.83,0.6,0.73,0.91,2.27,0.92c0.08-0.14,0.1-0.19,0.11-0.43c-0.06-0.08-0.08-0.15-0.11-0.27
	c-0.17-0.1-0.32-0.28-0.49-0.38c-0.44-0.27-1.33-0.35-1.51-0.87c-0.09-0.15-0.01-0.5-0.11-0.65c-0.2-0.32-0.46-0.24-0.86-0.38
	C34.21,15.33,33.48,14.96,32.29,14.96 M67.45,6.96C66.87,7.35,66,7.36,65.28,7.61c-0.85,0.29-1.97,0.57-2.86,0.81
	C62,8.53,61.74,8.45,61.33,8.58c-0.36,0.2-0.72,0.4-1.08,0.59c-0.33,0.07-0.65,0.14-0.97,0.22c-0.86,0.36-1.12,1.46-1.89,1.95
	c-0.61,0.38-1.34,0.67-2.06,0.92c-0.16,0.02-0.33,0.03-0.49,0.05c-0.74,0.26-1.5,0.6-2.22,0.86c-0.43,0.16-0.75,0.13-1.19,0.27
	c-0.77,0.24-1.47,0.82-2.27,0.92c-0.1,0.01-0.35-0.09-0.43-0.11c-0.12-0.03-2.02,0-2.22,0.05c-0.17,0.04-0.44,0.17-0.6,0.22
	c-0.45,0.12-2.29-0.28-2.7-0.38h-2.11c-0.27-0.06-0.91-0.11-1.19-0.11c-0.19,0-0.5,0.11-0.76,0.05c-0.74-0.17-2.04-0.27-2.92-0.11
	c-0.04,0.1-0.05,0.21-0.05,0.38c0.1,0.07,0.13,0.21,0.22,0.27c0.32,0.23,0.96,0.35,1.19,0.65c0.14,0.18,0.1,0.56,0.27,0.7
	c0.28,0.23,0.75,0.2,0.97,0.49c0.19,0.25,0.25,0.54,0.43,0.81c0.17,0.24,0.45,0.44,0.65,0.65c1.17,0.02,2.76-1.02,3.68-1.4
	c0.34-0.15,0.57-0.1,0.97-0.22c0.88-0.26,1.99-0.69,2.92-0.92c1.24-0.31,2.12,0.59,3.19,0.32c0.39-0.1,1.83-0.54,2.22-0.49
	c0.66,0.09,1.3,0.19,1.89,0.33h1.62c0.39,0.08,0.88,0.06,1.3,0.05c0.11,0.02,0.22,0.04,0.32,0.05c0.12-0.03,0.28-0.18,0.38-0.22
	c0.18-0.02,0.36-0.04,0.54-0.05c0.06-0.03,0.19-0.19,0.27-0.22c0.38-0.13,0.69-0.05,1.03-0.22c0.03-0.02,0.12-0.15,0.16-0.16
	c0.16-0.06,1.36-0.19,1.46-0.16c0.2,0.05,0.53,0.28,0.81,0.11c0.21-0.08,0.23-0.22,0.38-0.33c0.3-0.2,0.66-0.25,0.87-0.54
	c0.13-0.18,0.14-0.41,0.27-0.59c0.36-0.53,1.07-0.77,1.3-1.46c0.02-0.27,0.04-0.54,0.05-0.81c-0.01-0.04-0.16-0.18-0.16-0.22
	c-0.06-0.29,0.21-0.37,0.27-0.54c0.22-0.66-0.23-1.47,0.65-1.52c0.18,0.11,1.23,0.11,1.46,0.16c0.33,0.51,0.75,0.87,0.92,1.57
	c0.15,0.61-0.26,1.07-0.38,1.51c-0.16,0.62-0.01,1.2,0.05,1.68c0.03,0.26-0.11,0.57-0.05,0.87c0.05,0.02,0.11,0.04,0.16,0.05
	c0.23,0.15,0.5-0.06,0.7-0.11c0.38-0.09,0.75,0.27,1.19,0.11c0.08-0.03,0.79-0.56,0.87-0.65c0.27,0.05,0.52-0.03,0.76,0.05
	c0.58,0.2,1.37,0.58,1.95,0.76c0.63,0.19,1.19-0.37,1.78-0.27c0.72,0.12,1.5-0.08,2.22-0.27h0.76c0.75-0.18,1.58-0.27,2.49-0.38
	c0.14-0.19,0.38-0.32,0.49-0.54c0.15-0.31,0.13-0.62,0.32-0.87c0.09-0.05,0.18-0.11,0.27-0.16c0.08-0.14,0.02-0.31,0.11-0.43
	c0.12-0.18,0.28-0.06,0.49-0.16c0.09-0.13,0.18-0.25,0.27-0.38c0.05-0.57-0.06-1.56-0.54-1.73c-0.3-0.19-1.02,0.02-1.3,0.11
	c-0.39,0.12-0.68,0.29-1.03,0.43c-0.48,0.2-1.01,0.24-1.51,0.38c-0.26,0.07-0.74,0.27-1.08,0.16c-0.28-0.09-0.64-0.3-0.97-0.38
	c-0.38-0.09-0.75,0.05-1.03,0c-0.55-0.1-1.26-0.28-1.68-0.54c-0.6-0.37-0.94-1.05-1.36-1.62c-0.07-0.05-0.14-0.11-0.22-0.16
	c-0.14-0.25-0.14-0.51-0.38-0.65c-0.52-0.29-1.32-0.01-2-0.16c-0.23-0.05-0.61-0.17-0.92-0.11c-0.11,0.02-0.4,0.1-0.59,0.05
	C68.21,7,67.85,6.96,67.45,6.96 M20.66,30.76c-0.25-0.13-0.56-0.54-0.65-0.81v-0.97c-0.1-0.46-0.26-1.06-0.38-1.52
	c-0.1-0.41-0.04-0.92-0.11-1.3c-0.07-0.37,0.17-0.86,0.05-1.3c-0.14-0.53-0.07-0.78,0.05-1.24c0.11-0.41-0.11-0.89-0.05-1.19v-1.57
	c0.05-0.24,0.17-0.57,0.22-0.76c0.14-0.52-0.05-1.02,0.11-1.46c0.26-0.69,0.91-0.93,1.3-1.46c0.51-0.71,1.2-1.27,1.95-1.73
	c0.21-0.13,0.46-0.13,0.65-0.27c0.22-0.16,0.38-0.44,0.6-0.6c0.54-0.41,1.1-0.81,1.57-1.3c0.62,0.01,1.69,0.37,2.16,0.27
	c0.39-0.08,0.92-0.03,1.3-0.16c0.24-0.08,0.54-0.3,0.81-0.38c0.27-0.02,0.54-0.04,0.81-0.05c0.17-0.04,0.45-0.17,0.65-0.22
	c0.68-0.16,1.2,0.26,1.78,0.11c0.22-0.06,0.6-0.04,0.87-0.11c0.45-0.12,1.19-0.46,1.84-0.32c0.3,0.06,0.82-0.03,1.19,0.06
	c0.97,0.22,2.08,0.18,3.14,0.32c0.61,0.09,1.53-0.15,2.11-0.05c0.43,0.07,1.12-0.05,1.62,0.05c1.08,0.23,2.66,0.16,3.62-0.05
	c0.59-0.13,1.05,0.14,1.68,0c0.91-0.21,2.08-0.26,3.08-0.59c0.44-0.15,0.89-0.49,1.3-0.65c0.69-0.28,1.41-0.37,2-0.76
	c0.39-0.25,0.55-0.78,0.92-1.03c0.21-0.14,0.41-0.18,0.6-0.33c0.21-0.16,0.35-0.46,0.59-0.59c0.09-0.02,0.18-0.04,0.27-0.06
	c0.11-0.07,0.12-0.24,0.22-0.32c0.13-0.12,0.87-0.62,1.03-0.7c0.6-0.32,1.38-0.35,2.06-0.59c0.48-0.17,0.98-0.56,1.46-0.7
	c0.55-0.16,1.04-0.05,1.62-0.22c0.34-0.09,0.68-0.36,0.98-0.49c0.47-0.2,0.9-0.09,1.46-0.22c0.52-0.12,1.34-0.39,2.11-0.22
	c0.71,0.16,1.33,0.27,2.05,0.43c0.8,0.18,1.63,0,2.16,0.43c0.06,0.14,0.11,0.29,0.16,0.43c0.09,0.07,0.18,0.14,0.27,0.22
	c0.32,0.47,0.46,1.08,0.87,1.46c0.17,0.16,1.57,0.56,1.89,0.65h0.76c0.28,0.1,0.49,0.45,0.81,0.54c0.68,0.19,1.66-0.48,2-0.7
	c0.37-0.24,0.87-0.29,1.25-0.54c0.19-0.13,0.24-0.35,0.38-0.54c0.44-0.63,1.37-0.95,2.38-0.7c0.3,0.46,0.58,0.84,0.59,1.62
	c0.23,0.14,0.53,0.29,0.76,0.43c-0.04,0.09-0.01,0.05-0.05,0.11c-0.14,0.33-0.57,0.4-0.7,0.76c-0.17,0.45,0.24,0.87,0.05,1.41
	c-0.06,0.16-0.27,0.29-0.32,0.49c-0.13,0.46,0.21,0.8,0.16,1.08c-0.05,0.35-0.32,0.61-0.33,1.14c0.53-0.01,0.75-0.18,1.14-0.27
	c0.45-0.02,0.9-0.04,1.35-0.06c0.2-0.05,0.42-0.26,0.71-0.22c0.26,0.04,1.22,0.31,1.41,0.43c0.12,0.08,0.22,0.26,0.38,0.32
	c0.27,0.05,0.54,0.11,0.81,0.16c0.55,0.23,1.07,0.67,1.57,0.97c0.8,0.49,1.88,0.46,2.33,1.3c0.58,1.11,0.38,2.32,0.7,3.68v0.65
	c0.24,1.06,0.57,2.12,0.81,3.08c0.09,0.38,0.14,0.97,0.16,1.3v0.86c0.08,0.3,0.23,1.13,0.16,1.51c-0.02,0.13-0.1,0.44-0.05,0.65
	c0.03,0.15,0.11,0.53,0.05,0.76c-0.08,0.3-0.25,0.6-0.32,0.92c-0.02,0.36-0.04,0.72-0.05,1.08c-0.21,0.75-0.8,1.8-0.54,2.92
	c0.4,1.78,0.25,3.9,0.65,5.73v1.08c0,0.74,0.03,1.43,0.16,1.95v1.19c0.13,0.58,0.06,1.48,0.16,2.11c-0.24,0.62-0.32,1.61-0.32,2.38
	v1.3c-0.28,1.29-0.36,3.75-0.05,5.14c-0.02,1.23-0.04,2.45-0.05,3.68c0.3,1.37,0.39,2.88,0.7,4.27c0.19,0.83-0.06,1.9,0.11,2.71
	c0.04,0.2-0.03,0.48-0.05,0.6c-0.1,0.46,0.13,0.82,0.05,1.24c-0.05,0.32-0.17,0.81-0.11,1.19c0.07,0.38,0.14,0.92,0.22,1.3
	c-0.02,0.36-0.04,0.72-0.06,1.08c0.25,0.92,0.37,2.13,0.16,3.08c-0.11,0.49,0.06,1.24,0,1.57c0.05,0.88,0.11,1.77,0.16,2.65
	c-0.02,0.27-0.04,0.54-0.06,0.81c0.07,0.35,0.23,0.99,0.11,1.46c-0.16,0.62-0.11,1.4,0.05,2.05v0.76c0.07,0.25,0.25,0.56,0.32,0.87
	v1.35c0.26,1.16-0.17,2.6,0.11,3.9v0.59c0.27,1.23,0.39,2.18,0.38,3.46c0,0.53,0,1.15-0.11,1.51c-0.02,0.31-0.04,0.61-0.05,0.92
	c-0.11,0.33-0.85,0.78-1.08,1.24c-0.19,0.4-0.12,0.88-0.32,1.25c-0.18,0.32-0.57,0.58-0.7,0.92c-0.04,0.2-0.08,0.4-0.11,0.59
	c-0.14,0.23-0.46,0.3-0.65,0.49c-0.13,0.12-0.18,0.32-0.32,0.43c-0.38,0.29-0.75,0.53-1.14,0.81c-0.46,0.34-0.77,0.96-1.3,1.24
	c-0.23,0.06-0.47,0.11-0.7,0.16c-0.36,0.13-0.7,0.4-1.03,0.54c-0.31,0.13-0.59,0.15-0.86,0.32c-0.11,0.13-0.22,0.25-0.33,0.38
	c-0.54,0.37-1.16,0.53-1.79,0.81c-0.29,0.13-0.53,0.34-0.92,0.43H85.4c-1.36,0.31-3.01-0.05-4.49,0.27
	c-0.54,0.02-1.08,0.04-1.62,0.06c-0.09-0.02-0.37-0.11-0.54-0.06c-0.05,0.02-0.21,0.15-0.27,0.16c-0.5,0.02-1.01,0.04-1.51,0.05
	c-1.49,0.34-2.97,0.36-4.49,0.54c-0.2,0.02-0.78-0.07-0.98-0.11c-0.21-0.04-0.52,0.03-0.65,0.05c-0.12,0.03-1.11-0.09-1.19-0.11
	c-0.64-0.12-1.46,0.14-2,0.06c-0.32-0.05-0.72-0.26-1.19-0.16c-1.23,0.26-3.29,0.46-4.6,0.27c-0.69,0.04-1.37,0.07-2.05,0.11
	c-0.39-0.09-0.88-0.2-1.19-0.27c-0.28-0.07-1.21,0.14-1.57,0.11c-0.39-0.04-0.93-0.18-1.3-0.27c-0.49-0.12-1.14-0.02-1.51-0.11
	h-1.51c-0.26-0.06-0.84-0.2-1.08-0.17c-0.08,0.01-0.31,0.15-0.38,0.17c-0.19,0.03-0.63-0.12-0.92-0.06
	c-0.48,0.11-1.3,0.07-1.89-0.05c-0.49-0.1-1.15,0.04-1.57-0.05c-0.68-0.15-1.12,0.25-1.79,0.11c-0.29-0.06-0.66,0.06-0.97,0
	c-0.65-0.12-1.83-0.12-2.49,0c-0.52,0.1-0.9-0.29-1.51-0.16c-1.13,0.24-2.39-0.07-3.62,0.21c-0.33-0.02-0.65-0.04-0.97-0.06
	c-1.54,0.34-3.43,0.19-4.97,0.49c-0.49,0.09-1.21-0.18-1.79-0.06c-0.8,0.17-1.8,0.15-2.49,0c-0.16-0.03-0.29,0.04-0.38,0.06
	c-0.45,0.07-1-0.04-1.3-0.11h-1.19c-0.94-0.25-2.37-0.39-3.41-0.16c-0.51,0.11-1.31-0.11-1.67,0c-0.25,0.07-0.33,0.44-0.7,0.38
	c-0.31-0.05-0.74-0.25-1.03-0.32h-0.7c-0.36-0.09-1.03-0.19-1.35-0.27c-0.38,0.02-0.76,0.04-1.14,0.06
	c-0.77-0.2-1.94-0.15-2.71-0.33H9.9c-0.78-0.21-1.5-0.89-2.16-1.3c-0.39-0.24-0.85-0.21-1.3-0.43c-0.34-0.17-0.66-0.51-0.97-0.7
	c-0.32-0.2-0.7-0.23-1.03-0.43c-0.25-0.16-0.25-0.37-0.43-0.6c-0.13-0.17-0.48-0.21-0.6-0.38c-0.02-0.11-0.04-0.21-0.05-0.32
	c-0.1-0.23-0.33-0.43-0.43-0.65c-0.13-0.29-0.09-0.59-0.22-0.92c-0.22-0.58-0.5-1.23-0.65-1.95c-0.09-0.47,0.23-0.95,0.11-1.52
	c-0.16-0.71-0.11-1.72-0.27-2.43c-0.02-0.79-0.04-1.59-0.06-2.38c-0.15-0.7-0.03-1.54-0.16-2.11v-1.03
	c-0.09-0.38,0.01-0.83-0.11-1.35c-0.31-1.3-0.45-2.87-0.54-4.33C1.02,82.9,1.1,82.45,1.14,82.3V81c0.12-0.59,0.09-1.4,0.22-1.95
	v-0.81c0.1-0.46,0.17-1.45,0.05-2c-0.35-1.63,0.07-3.42-0.32-5.03c-0.12-0.5,0.04-1.19-0.05-1.62c0.02-0.52,0.04-1.04,0.05-1.57
	c-0.22-1.01-0.15-2.35-0.38-3.41v-0.76c-0.11-0.45-0.08-1.04-0.22-1.57C0.05,60.56-0.33,57.81,0,55.53c0.16-1.1-0.43-1.92-0.16-3.08
	c0.13-0.58,0.07-1.31,0.22-1.95c0.17-0.74,0.36-1.53,0.54-2.27v-1.24c0.25-1.13,0.02-2.59,0.27-3.73c0.08-0.38-0.08-1.9-0.16-2.27
	c0.02-0.58,0.04-1.15,0.05-1.73c-0.04-1.09-0.05-2.37-0.27-3.35c-0.18-0.83,0.02-2,0.16-2.65c0.02-0.4,0.03-0.79,0.05-1.19
	c0.25-0.98,0.31-2.34,0.54-3.3c0.04-0.63,0.07-1.26,0.11-1.89c-0.02-0.14-0.04-0.29-0.05-0.43c0.25-1.32,0.27-2.73,0.27-4.22
	c-0.02-0.85-0.04-1.69-0.06-2.54c0.11-0.51,0.17-1.12,0.27-1.57v-0.65c0.33-1.33,0.54-2.58,0.86-3.95c0.14-0.6,0.04-1.04,0.21-1.62
	c0.04-0.13,0.18-0.31,0.22-0.43v-0.49c0.06-0.14,0.32-0.27,0.38-0.43v-0.38c0.12-0.37,0.3-0.74,0.49-1.03
	c0.2-0.31,0.11-0.83,0.49-0.97c0.1,0.15,0.13-0.03,0.38-0.02c0.04-0.1,0.05-0.03,0.06-0.2C4.73,7.85,4.7,7.85,4.65,7.66
	c0.13-0.13,0.17-0.38,0.33-0.49c0.38-0.13,0.76-0.25,1.14-0.38c0.18-0.12,0.3-0.36,0.43-0.54c0.13-0.17,0.31-0.2,0.49-0.33
	c0.34-0.24,0.58-0.68,0.92-0.92c0.18-0.13,0.39-0.11,0.6-0.22c0.41-0.21,0.9-0.56,1.3-0.76h0.27c0.49-0.34,0.98-0.91,1.57-1.14
	c0.15-0.02,0.29-0.04,0.43-0.05c0.18-0.07,0.39-0.26,0.6-0.32c0.2-0.02,0.4-0.04,0.59-0.05c1-0.33,2.17-0.77,3.19-1.08
	c0.56-0.17,1.32-0.03,1.84-0.27c0.13,0.01,0.21,0.17,0.43,0.11c0.1-0.03,0.34-0.19,0.43-0.22c1.03-0.02,2.06-0.04,3.08-0.05
	c0.8-0.15,3.06-0.06,4.06,0.16c0.23,0.05,0.49-0.07,0.65-0.05c0.98,0.1,2.19,0.22,3.14,0.43h1.03c1.26,0.28,2.97,0,4.22,0.27
	c0.3,0.07,0.81-0.01,1.03-0.05c0.83-0.18,1.73,0.06,2.49-0.11c0.53-0.12,1.1,0.08,1.51,0c1-0.18,2.49-0.14,3.52-0.38
	c0.72,0.02,1.44,0.04,2.16,0.05c0.48-0.1,0.89,0.07,1.46-0.05c0.7-0.15,2.13-0.16,2.76-0.06c0.45,0.08,1.2-0.18,1.57-0.27
	c0.38-0.09,0.81,0,1.08,0c0.87,0.01,1.68-0.01,2.38-0.16h0.92c0.34-0.08,0.96-0.14,1.3-0.22h0.76c0.66-0.15,1.46-0.29,2.05-0.43
	h1.14c0.22-0.05,0.84-0.15,1.14-0.05c0.13,0.04,0.31,0.22,0.43,0.27c0.29,0.11,0.85,0.05,1.14,0.11c0.47-0.02,0.94-0.04,1.4-0.05
	c0.46,0.1,1.59,0.22,2,0.16c0.56-0.08,1.21-0.23,1.73-0.11h1.89c1.49,0.33,3.08,0.07,4.49,0.05c0.68-0.01,1.47,0.02,2.11,0.16
	c0.32,0.07,0.74-0.08,0.97-0.05c0.59,0.06,1.31,0.15,1.79,0.27c0.96-0.09,1.91-0.18,2.86-0.27c0.49,0.11,1.15,0.15,1.68,0.32
	c0.33,0.11,0.69,0.34,1.03,0.43c0.5,0.13,0.88,0.04,1.3,0.21c0.26,0.11,0.55,0.37,0.81,0.49c0.48,0.21,0.89,0.19,1.41,0.38
	c0.26,0.09,0.89,0.52,1.14,0.7c0.43,0.33,0.67,0.9,0.98,1.35c0.09,0.07,0.18,0.15,0.27,0.22c0.15,0.24,0.06,0.51,0.16,0.81
	c0.06,0.18,0.27,0.34,0.32,0.54c0.04,0.54,0.07,1.08,0.11,1.62c0.25,0.14,0.83,0.42,0.92,0.7c0.26,0.82-0.66,1.31-0.86,1.68
	c-0.08,0.13,0.02,0.31-0.11,0.38h-0.87c-0.08-0.06-0.16-0.08-0.27-0.11c-0.11-0.32-0.47-0.42-0.59-0.76
	c-0.06-0.36-0.11-0.72-0.16-1.08c-0.07-0.21-0.26-0.45-0.32-0.7c-0.12-0.46,0.1-0.81-0.06-1.24c-0.04-0.09-0.18-0.23-0.22-0.32
	c-0.02-0.13-0.04-0.25-0.06-0.38c-0.08-0.14-0.33-0.24-0.43-0.38c-0.13-0.2-0.18-0.4-0.37-0.54c-0.42-0.3-0.8-0.48-1.25-0.76
	c-0.14-0.09-0.28-0.3-0.43-0.38c-0.07-0.03-0.53-0.11-0.54,0c-0.15-0.19-0.12-0.3-0.38-0.38c-0.43-0.05-0.87-0.11-1.3-0.16
	c-0.31-0.09-0.7-0.29-1.03-0.38h-0.97c-0.8-0.18-1.84-0.19-2.65-0.38c-0.68-0.16-1.74,0.02-2.27,0.11c-0.27,0.05-1.03-0.05-1.3-0.11
	c-0.44-0.1-1.04,0.03-1.41-0.05c-0.39-0.09-1.1-0.02-1.41,0.05c-0.67,0.15-1.14-0.2-1.78-0.11c-0.5,0.07-1.28-0.07-1.84,0.05
	c-0.08,0.02-0.32,0.09-0.49,0.05c-0.75-0.17-1.71-0.03-2.54-0.22c-0.64-0.14-1.29-0.29-1.89-0.43c-0.7-0.17-1.77,0.22-2.32,0.33
	c-0.22-0.02-0.43-0.04-0.65-0.05c-0.32,0.07-0.83,0.09-1.13,0.16c-0.32,0.08-0.84-0.02-1.08-0.05c-0.98-0.15-2.24-0.03-3.03,0.16
	c-1.35-0.02-2.71-0.04-4.06-0.06c-0.78,0.19-1.75,0.29-2.6,0.49h-1.25c-0.97,0-1.98,0.02-2.81,0c-0.23-0.02-0.47-0.04-0.7-0.05
	c-0.67,0.15-1.48-0.06-2.22,0.11c-0.55,0.12-1.52,0.32-2.22,0.16c-0.38-0.09-0.99-0.16-1.52-0.11c-0.88,0.09-2.03,0.21-3.19,0.22
	c-0.21,0.02-0.43,0.04-0.65,0.06c-0.52-0.1-1.2,0.05-1.89-0.06c-0.09-0.01-0.26-0.09-0.43-0.05c-0.2,0.04-0.63,0.11-0.87,0.16h-0.65
	c-0.11,0.04-0.18,0.23-0.27,0.27c-0.21,0.1-0.82,0.03-0.97,0.05c-0.15,0.02-0.43-0.08-0.54-0.11c-0.6-0.14-1.3-0.04-1.84-0.16
	c-0.65,0.02-1.3,0.04-1.95,0.05c-0.36-0.08-0.86-0.04-1.3-0.16c-0.44-0.12-1.03-0.35-1.46-0.49h-0.43
	c-1.08-0.25-2.06-0.19-3.03,0.06c-0.76,0.19-1.62,0.1-2.33,0.27c-0.49,0.02-0.97,0.04-1.46,0.05c-0.42,0.11-1,0.16-1.46,0.32
	c-0.32,0.12-0.64,0.41-0.97,0.54c-0.69,0.28-1.54,0.27-2.22,0.54c-0.6,0.23-1.18,0.74-1.73,1.03c-0.16,0.04-0.32,0.07-0.49,0.11
	c-0.2,0.1-0.35,0.37-0.54,0.49C9.26,6.25,8.95,6.25,8.71,6.42C8.29,6.7,7.08,7.6,6.81,7.98C6.71,8.14,6.71,8.33,6.6,8.47
	C6.26,8.91,5.7,9.24,5.41,9.72c-0.15,0.23-0.36,0.63-0.43,0.86c-0.09,0.29,0.15,0.55,0.11,0.7c-0.03,0.1-0.28,0.25-0.32,0.38
	c-0.24,0.7,0.08,1.52-0.11,2.22c-0.14,0.54-0.3,1.26-0.43,1.79v0.6C4.19,16.35,4.04,16.5,4,16.58c-0.04,0.32-0.07,0.65-0.11,0.97
	c-0.14,0.49-0.36,0.91-0.49,1.46c-0.15,0.63,0.26,0.81,0.38,1.13c0.16,0.45-0.19,0.9-0.27,1.19c-0.19,0.67-0.02,1.81-0.11,2.38v0.76
	c-0.04,0.13-0.18,0.35-0.22,0.49c-0.21,0.73-0.05,1.6-0.22,2.33c-0.02,0.61-0.03,1.23-0.05,1.84c-0.18,0.78-0.2,1.78-0.11,2.54
	c0.01,0.1-0.09,0.26-0.11,0.33v0.86c-0.1,0.36-0.39,1-0.27,1.51c0.2,0.89-0.1,2.01,0.11,3.03c0.12,0.57,0,1.35,0,2.11
	c0,0.31,0.08,0.75,0.05,0.97c-0.08,0.83-0.11,1.88-0.27,2.54c0.02,0.31,0.04,0.61,0.05,0.92c-0.05,0.55-0.09,1.21-0.22,1.78
	c0.02,0.31,0.04,0.61,0.05,0.92c-0.01,0.59-0.04,1.37-0.16,1.89v1.4c-0.14,0.55-0.02,1.43-0.16,2.05c-0.33,1.48-0.42,3.99,0,5.63
	c0.18,0.72,0.05,1.6,0.22,2.27v1.19c0.31,1.15,0.19,2.67,0.49,3.84c-0.02,0.38-0.03,0.76-0.05,1.14c0.06,0.68,0.08,1.6-0.05,2.22
	c0.02,0.27,0.04,0.54,0.05,0.81c-0.15,0.69-0.04,3,0.16,3.79c0.16,0.62,0,1.46,0.11,1.95v0.92c0.14,0.63,0.08,1.64-0.05,2.22
	c-0.1,0.43-0.03,1.22,0.05,1.57c0.1,0.43-0.08,1.23-0.16,1.57c-0.09,0.35,0.12,0.83,0.05,1.08c-0.04,0.02-0.07,0.04-0.11,0.06
	c-0.16,0.47,0.08,1.17,0.11,1.51c-0.02,0.36-0.04,0.72-0.05,1.08c0.14,0.6,0.11,1.61,0.27,2.33c0.04,0.17-0.04,0.34-0.06,0.43
	c0.02,0.69,0.04,1.37,0.06,2.05c0.17,0.72,0.14,1.63,0.33,2.44v0.97c0.11,0.43,0.06,1.15,0.22,1.62c0.11,0.32,0.3,0.75,0.38,1.14
	c-0.02,0.25-0.04,0.5-0.05,0.76c0.29,1.18,0.7,2.35,1.19,3.3c0.07,0.21,0.14,0.43,0.22,0.65c0.12,0.19,1.01,1.08,1.19,1.19
	c0.23,0.14,0.45,0.09,0.7,0.22c0.98,0.49,2,1.16,3.08,1.57c0.32,0.05,0.65,0.1,0.97,0.16c0.76,0.22,1.66,0.46,2.49,0.65
	c0.45,0.1,0.79-0.12,1.14-0.11c0.49,0.01,1.27,0.16,1.68,0.27c0.4-0.02,0.79-0.04,1.19-0.05c0.34,0.08,0.75,0.19,1.08,0.27
	c0.15,0.04,0.36-0.04,0.43-0.05c0.12-0.02,0.92,0.06,1.14,0.11c0.71,0.16,1.57,0.27,2.27,0.16c0.2-0.03,0.38,0.24,0.75,0.16
	c0.32-0.07,0.85,0,1.08,0.05c0.94-0.04,1.87-0.07,2.81-0.11c0.38-0.06,1.04,0.13,1.62,0c0.64-0.15,1.32-0.38,1.95-0.54
	c0.46-0.12,1.17,0,1.57-0.05c0.18,0.04,0.36,0.07,0.54,0.11c0.63,0.06,1.35,0.07,1.79-0.05c0.51-0.14,1.23,0.05,1.68-0.05
	c1.19-0.27,2.01,0.47,3.08,0.22c0.71-0.17,1.8-0.09,2.6-0.27h0.54c0.18-0.05,0.47-0.19,0.65-0.22c0.11,0.02,0.22,0.03,0.32,0.05
	c0.63-0.02,1.26-0.03,1.89-0.05c0.81-0.18,1.99-0.13,2.81,0.05c0.6,0.14,1.49,0.01,1.89-0.05c0.14-0.02,0.52,0.12,0.76,0.05
	c0.11-0.03,0.24-0.21,0.43-0.16c0.09,0.02,0.27,0.18,0.38,0.22c0.25,0.02,0.51,0.04,0.76,0.06c0.18,0.06,0.39,0.27,0.59,0.32
	c0.21,0.05,0.25-0.08,0.33-0.11c0.05-0.02,1.52,0.08,1.68,0.11c2,0.46,5.1,0.33,7.14,0.05c0.19-0.03,0.58,0.08,0.87,0.05
	c1.09-0.1,2.23,0.07,3.14-0.11c0.54-0.11,1.2,0.06,1.57,0.16c0.45,0.12,1.35,0,1.95,0c0.85,0,1.57-0.13,2.33-0.11
	c0.95,0.03,2.23,0.1,3.03-0.11c0.13-0.03,1.48-0.02,1.57,0c0.16,0.04,0.43,0.19,0.7,0.11c0.41-0.11,0.98-0.33,1.41-0.43h0.97
	c0.11-0.01,0.2-0.09,0.27-0.11c0.14-0.03,0.91,0.12,1.09,0.16c0.51,0.12,1.03-0.08,1.35-0.16c0.27,0.02,0.54,0.03,0.81,0.05
	c0.36-0.09,0.91-0.23,1.3-0.32h0.6c0.31-0.09,0.65-0.35,0.92-0.43c0.2,0.02,0.4,0.04,0.59,0.06c0.06-0.02,0.18-0.15,0.22-0.17
	c0.15-0.02,0.29-0.04,0.43-0.05c0.34-0.12,0.71-0.47,1.03-0.65c0.57-0.31,1.26-0.4,1.79-0.76c0.3-0.2,0.54-0.58,0.86-0.76
	c0.38-0.21,0.75-0.28,1.08-0.54c0.02-0.05,0.03-0.11,0.05-0.16c0.16-0.2,0.39-0.32,0.6-0.49c0.07-0.06,0.09-0.21,0.16-0.27
	c0.18-0.17,0.62-0.37,0.76-0.54c0.18-0.22,0.22-0.58,0.43-0.76c0.17-0.14,0.48-0.19,0.59-0.38c0.11-0.19,0.04-0.43,0.16-0.59
	c0.07-0.09,0.26-0.12,0.33-0.22c0.13-0.2,0.22-0.65,0.27-0.87v-0.91c0.07-0.31,0.16-0.59,0.16-0.97v-0.87
	c0.41-1.39,0.39-3.56,0.05-4.92v-0.7c-0.14-0.6-0.12-1.35-0.27-2c0.02-0.2,0.03-0.4,0.05-0.6c-0.11-0.68-0.14-1.65-0.27-2.32
	c-0.08-0.39,0.12-0.84,0-1.3c-0.06-0.23-0.17-0.66-0.22-0.98c-0.03-0.23,0.06-0.78,0-1.03v-0.97c-0.1-0.43-0.26-1.04-0.16-1.57
	c0.08-0.43-0.09-1.17-0.16-1.68c-0.03-0.21,0.12-0.67,0.05-0.97c-0.12-0.57,0.07-1.21-0.05-1.79c-0.01-0.04-0.1-0.27-0.11-0.33
	c-0.02-0.51,0.12-1.2,0.21-1.62c0.03-0.15-0.04-0.32-0.05-0.38c-0.04-0.21,0.08-0.45,0.11-0.59c0.04-0.18-0.03-0.44-0.06-0.54
	c-0.08-0.33,0.04-1.31,0.11-1.62c0.03-0.13-0.04-0.28-0.05-0.33v-1.08c-0.06-0.25-0.19-0.76-0.16-1.03c0.05-0.54-0.06-1.04,0-1.73
	c0.03-0.28,0.07-0.74,0-1.03c-0.1-0.45,0.08-0.9,0-1.24c-0.14-0.61,0.01-1.4-0.11-1.89v-1.08c-0.05-0.18-0.13-0.55-0.16-0.76
	c0.02-0.11,0.04-0.22,0.05-0.32c-0.07-0.37-0.21-0.73-0.27-1.14c-0.05-0.32,0.1-0.81,0-1.24c-0.11-0.48-0.1-1.15-0.22-1.68
	c0.02-0.29,0.04-0.58,0.06-0.87c-0.02-0.26-0.09-0.58,0-0.86c0.03-0.11,0.19-0.25,0.22-0.32c0.26-0.65-0.33-1.38-0.22-1.95
	c0.16-0.82,0.54-2.54,0.32-3.52c-0.33-1.48,0-3.2-0.32-4.6c-0.17-0.71,0.29-1.26,0.11-2c-0.2-0.83-0.42-1.64-0.6-2.49
	c-0.12-0.58,0.32-1.32,0.22-1.84c-0.09-0.47-0.12-0.97-0.27-1.46c-0.05-0.17-0.24-0.41-0.27-0.6c0.02-0.18,0.04-0.36,0.05-0.54
	c-0.02-0.26-0.19-0.55-0.11-0.92c0.08-0.35,0.16-0.64,0.16-1.08c1.31-0.9,1.62-2.88,1.03-4.81v-0.65c-0.12-0.49-0.21-1.17-0.32-1.68
	v-0.86c-0.14-0.57-0.34-1.17-0.49-1.73c-0.25-0.93-0.23-1.86-0.7-2.54c-0.21-0.31-1.15-1.13-1.52-1.24c-0.25-0.08-0.47,0.16-0.7,0
	c-0.04-0.07-0.07-0.15-0.11-0.22c-0.15-0.15-0.57-0.47-0.76-0.54c-0.28-0.1-0.49-0.02-0.76-0.11c-1.36-0.45-2.74-0.79-4.38-0.43
	c-0.74,0.16-1.55-0.09-2.16,0.16c-0.62,0.25-1.2,0.73-1.62,1.19c-0.37-0.01-0.75-0.23-1.19-0.11c-0.33,0.09-0.85,0.43-1.3,0.38
	c-0.15-0.02-0.33-0.17-0.44-0.22c-0.32-0.13-2.09-0.58-2.49-0.49c-0.35,0.08-0.65,0-1.03,0.11c-0.35,0.09-0.86,0.24-1.3,0.32
	c-0.29,0.06-0.41-0.11-0.7-0.11c-0.29,0-0.51,0.08-0.86,0c-0.32-0.08-0.68-0.15-0.92-0.32c-0.27-0.19-0.18-0.45-0.65-0.49
	c-0.13,0.09-0.48,0.06-0.7,0.05c-0.16,0.23-0.51,0.62-0.27,1.08c0.18,0.35,0.58,0.7,0.76,1.08c0.23,0.51,0.11,1.12,0.27,1.73
	c0.05,0.21,0.18,0.53,0.22,0.76c0.06,0.37-0.25,0.91-0.32,1.25c-0.11,0.48,0.14,1.48,0.27,1.78c0.21,0.09,0.66,0.18,0.76,0.38
	c0.02,0.16,0.04,0.32,0.05,0.49c0.19,0.34,0.99,0.7,1.4,0.81c0.78,0.21,1.54-0.34,1.84,0.38c0.26,0.28,0.13,0.86,0.11,1.3
	c-0.99,0.66-1.5,0.27-2.38-0.11c-0.4-0.17-0.79-0.09-1.19-0.22c-0.42-0.14-0.7-0.37-1.24-0.27v0.11c-0.48,0.75,0.53,1.2,0.65,1.57
	c0.13,0.43-0.13,0.72,0,1.19c0.11,0.37,0.42,0.83,0.54,1.19c0.14,0.4,0.04,1.13,0.05,1.62c0.25,0.16,0.49,0.27,0.76,0.43
	c0.22,0.25,0.43,0.5,0.65,0.76c0.29,0.21,0.58,0.32,0.87,0.54c0.3,0.23,0.57,0.69,0.97,0.81c0.25-0.02,0.5-0.04,0.76-0.05
	c0.33,0.1,0.53,0.37,0.97,0.27c0.74-0.16,2.09,0.25,2.38-0.43c0.12-0.2,0.17-0.71,0.22-0.92c0.54-0.25,1.31-0.63,2-0.7
	c0.56,0.57,1.74,1.02,1.79,2.05c-0.39,0.57-0.52,1.58-1.41,1.62c-0.14-0.09-0.41-0.14-0.6-0.16c-0.41,0.44-0.87,0.83-1.3,1.24
	c-0.49,0-1.12-0.02-1.46-0.22c-0.19-0.11-0.36-0.36-0.59-0.43c-0.67-0.22-1.16,0.47-1.68,0.54c-0.03,0.01-1.5-0.42-1.68-0.49
	c-0.34-0.13-0.72-0.49-1.08-0.65c-0.32-0.09-0.65-0.18-0.97-0.27c-0.29-0.19-0.31-0.54-0.76-0.59c-0.06,0.04-0.02,0.02-0.11,0.05
	c-0.2,0.39-0.42,0.79-0.54,1.3v0.86c-0.04,0.16-0.22,0.34-0.27,0.49c-0.17,0.5-0.16,1.11-0.27,1.57c0.02,0.32,0.03,0.65,0.05,0.97
	c-0.09,0.42-0.33,1.94-0.16,2.43c0.04,0.12,0.21,0.18,0.27,0.27c0.24,0.37,0.34,0.75,0.59,1.08c0.17,0.23,0.49,0.27,0.59,0.59
	c0.13,0.41-0.13,0.97-0.05,1.41c0.19,0.09,0.5,0.14,0.7,0.27c0.37,0.23,0.66,0.73,1.03,0.97c0.33,0.22,0.73,0.21,1.14,0.38
	c0.25,0.1,0.6,0.35,0.86,0.43c0.44,0.13,1.6-0.31,1.89-0.43c1.29-0.53,2.97-1.18,4.49-0.81c0.19,0.37,0.42,0.56,0.43,1.13
	c-0.09,0.15-0.18,0.29-0.27,0.43c-0.46,0.32-1.12,0.37-1.19,1.08c0.16,0.05,0.42,0.06,0.65,0.05c0.28,0.18,0.58-0.05,0.76-0.11
	c0.36-0.11,0.7,0.01,0.92,0.05c0.18,0.49,0.79,0.37,0.81,0.97c-0.04,0.06-0.04,0.09-0.05,0.22c-0.27,0.17-0.49,0.47-0.7,0.7
	c-0.45,0-0.73,0.09-1.03,0.16c-0.31,0.08-0.83-0.05-1.09-0.11c-1-0.22-2.23,0.01-3.08-0.16c-0.72-0.15-1.83,0.09-2,0.54
	c-0.05,0.07-0.04,0.09-0.05,0.22c0.27,0.16,0.94,0.29,1.13,0.54c0.28,0.35,0.2,1.05,0.38,1.51c0.34,0.16,0.68,0.32,1.03,0.49
	c0.16,0.2,0.32,0.4,0.49,0.59c0.36,0.24,0.89,0.35,1.3,0.54c0.15,0.07,0.26,0.27,0.44,0.33h0.76c0.49,0.12,1.07,0.2,1.51,0.32
	c0.18,0.05,0.37-0.02,0.49,0.05c0.69,0.21,0.83,1.4,0.65,2.16c-0.43,0.29-0.34,0.39-1.14,0.38c-0.23-0.14-0.56-0.1-0.81-0.22
	c-0.15-0.06-0.26-0.24-0.38-0.32c-0.47-0.31-1.01-0.39-1.57-0.59c-0.13-0.05-0.26-0.22-0.38-0.27c-0.27-0.11-0.66-0.16-0.87-0.22
	H77.4c-0.12-0.05-0.22-0.25-0.32-0.32C76.76,57,76.3,57,75.99,56.77c-0.33-0.24-0.13-0.52-0.76-0.54c-0.16,0.21-0.47,0.35-0.59,0.59
	c-0.12,0.25,0,0.56-0.22,0.7c-0.15,0.1-0.41,0.03-0.54,0c-0.13,0.02-0.25,0.04-0.38,0.05c-0.55,0.02-0.98-0.17-1.19-0.49
	c-0.57-0.74,0.53-1.6,0.7-2c0.11-0.26,0-0.48,0-0.81c-0.63-0.41-0.85-1.27-1.62-1.51c-1.21-0.38-1.07,1.79-1.24,2.59
	c-0.18,0.85,0.05,1.83,0.49,2.38c0.22,0.28,0.67,0.45,0.87,0.76c0.21,0.33,0.22,0.71,0.43,1.03c0.27,0.4,0.81,0.45,1.19,0.76
	c0.09,0.12,0.18,0.25,0.27,0.38c0.14,0.09,0.28,0.02,0.43,0.11c0.09,0.11,0.18,0.21,0.27,0.32c0.75,0.49,1.62,0.66,2.38,1.14
	c0.26,0.16,0.39,0.49,0.7,0.59c0.54,0.05,1.08,0.11,1.62,0.16c0.56,0.21,1.04,0.72,1.52,1.03c0.45,0.29,1.04,0.39,1.46,0.7
	c0.21,0.16,0.39,0.65,0.54,0.76c0.11,0.02,0.21,0.04,0.32,0.05c0.15,0.08,0.32,0.32,0.49,0.38h0.97c0.32,0.11,0.61,0.42,0.86,0.59
	c0.2,0.13,1.14,0.53,1.35,0.6h0.76c0.43-0.02,0.86-0.04,1.3-0.05c0.11-0.04,0.23-0.21,0.32-0.27c0.14-0.09,0.25-0.04,0.43-0.11
	c0.25-0.1,0.45-0.33,0.7-0.43c0.35-0.14,0.87-0.01,1.19,0.05c0.27,0.05,0.4-0.07,0.59-0.05c0.04,0.11-0.01,0.39,0.05,0.54
	c0.11,0.27,0.57,0.33,0.43,0.87c-0.18,0.69-0.77,0.92-1.14,1.41c-0.22,0.29-0.35,0.72-0.7,0.86c-0.78,0.32-1.82,0.08-2.7,0.32
	c-0.35,0.1-0.74,0.34-1.08,0.43c-0.72,0.19-1.7-0.07-2.43,0.11c-0.19,0.04-0.69,0.18-0.86,0.21c-0.22,0.04-0.66-0.13-0.97-0.05
	c-0.57,0.14-1.13,0.35-1.79,0.49c-0.43,0.09-2.43-0.14-2.76-0.27c-0.09-0.03-0.23-0.18-0.32-0.22c-0.29-0.04-0.58-0.07-0.86-0.11
	c-0.29-0.08-0.85-0.27-1.3-0.16c-0.39,0.1-0.81,0.38-1.13,0.49h-0.87c-0.85,0.23-1.02,0.1-1.79-0.11c-0.33-0.09-0.68,0.18-0.76,0.38
	c-0.25,0.34,0.19,1.48,0.27,1.95c0.03,0.2-0.16,1-0.22,1.24c-0.02,0.87-0.04,1.73-0.05,2.6c-0.11,0.52,0.04,1.24-0.05,1.84
	c-0.1,0.69-0.05,1.55-0.05,2.33c0,0.47,0.03,1.07-0.06,1.46v0.81c-0.13,0.59-0.19,1.17-0.32,1.79c-0.02,0.45-0.03,0.9-0.05,1.35
	c-0.17,0.7-0.38,1.41-0.54,2.11c-0.03,0.77-0.07,1.55-0.11,2.32c-0.1,0.44-0.2,0.96-0.22,1.52c0.16,0.13,0.26,0.38,0.43,0.48
	c0.24,0.16,1.61,0.48,2.11,0.33c0.14-0.04,0.29-0.17,0.49-0.22c0.06-0.36,0.12-0.6,0.43-0.7c0.39-0.3,1.37,0.01,1.78-0.27
	c0.24-0.16,0.65-0.62,0.76-0.92c0.09-0.26,0.03-0.55,0.16-0.76c0.22-0.18,0.43-0.36,0.65-0.54c0.23-0.34,0.36-0.63,0.6-0.97
	c0.29-0.23,0.57-0.47,0.86-0.7h0.27c0.26,0.25,0.6,0.27,0.65,0.75c0.08,0.11,0.04,0.61-0.05,0.92c-0.19,0.69-0.4,1.58-0.22,2.38
	c0.38,0.22,0.77,0.49,1.14,0.76c0.51,0.38,0.71,1.04,1.35,1.3c0.68,0.27,1.03-0.43,1.78-0.27c0.77,0.16,1.75,0.09,2.54,0
	c0.1-0.01,0.31,0.09,0.38,0.11c0.56,0.13,1.38,0.04,1.89,0.05c0.2,0.25,0.28,0.3,0.27,0.82c0.04,0.05,0.02,0.01,0.06,0.11
	c0.68,0.34,1.15,0.91,1.68,1.41v0.64c-0.86,0.55-0.19,0.83,0,1.41v0.6c0.08,0.31,0.18,0.58,0.11,0.97
	c-0.27,0.09-0.46,0.31-0.76,0.38c-0.33,0.07-0.73-0.14-0.98-0.21c-0.23-0.02-0.47-0.04-0.7-0.05c-0.39-0.12-0.86-0.28-1.35-0.38
	c-0.58-0.13-2.06-0.17-2.6-0.06c-0.34,0.07-0.94-0.04-1.25-0.11c-0.7,0.04-1.41,0.07-2.11,0.11c-0.21,0.35-0.75,0.96-1.41,0.81
	c-0.3-0.07-0.68-0.26-1.14-0.16c-0.81,0.18-1.69,0.28-2.65,0.27c-0.12,0.19-0.28,0.33-0.43,0.49c-0.52-0.04-0.9-0.06-1.3-0.32
	c-0.09-0.06-0.15-0.23-0.27-0.27c-0.26-0.09-0.53,0.07-0.65,0.11c-0.29,0.08-0.5-0.12-0.71-0.16c-0.18,0.03-0.36,0.07-0.54,0.11
	c-0.27-0.04-0.54-0.28-0.76-0.38c-0.85-0.38-1.83-0.69-2.05-1.68c-0.12-0.54,0.26-1.72,0.43-2.06c0.06-0.12,0.23-0.25,0.27-0.38
	c0.12-0.37-0.17-0.87-0.27-1.13c-0.22-0.08-0.61-0.05-0.92-0.05c-0.23,0.19-0.46,0.17-0.81,0.27c-1.99,0.58-3.25-0.98-4.65-1.46
	c-0.92-0.31-1.52,0.4-2.27,0.22c-0.88-0.21-1.32-0.66-2.11-0.92c-0.75-0.24-1.71,0.09-2.33-0.38c-0.09-0.12-0.18-0.25-0.27-0.38
	c-0.13-0.08-0.27-0.02-0.38-0.11c-0.08-0.06-0.27-0.35-0.32-0.43c-0.05-0.16-0.11-0.33-0.16-0.49c-0.19-0.25-0.73-0.47-0.92-0.71
	c-0.15-0.18-0.12-0.46-0.27-0.65c-0.11-0.14-0.83-0.51-1.03-0.65c-0.14-0.18-0.29-0.36-0.43-0.54c-0.26-0.16-1.05-0.27-1.46-0.27
	c-0.27,0.27-0.62,0.47-0.92,0.71c-0.18,0.14-0.19,0.41-0.38,0.54c-0.3,0.22-1.45,0.01-1.95,0.16c-0.38,0.12-0.93,0.32-1.35,0.43
	h-0.81c-0.34,0.05-0.69,0.11-1.03,0.16c-0.27,0.08-0.6,0.26-0.92,0.33c-0.19,0.04-0.3-0.05-0.43-0.06c-0.25,0.02-0.5,0.04-0.76,0.06
	c-0.22-0.05-0.62-0.07-0.92-0.06c-0.53,0.03-2.2,0.3-2.54,0.11c-0.36-0.12-0.62-0.51-0.92-0.71c-0.28-0.17-0.79-0.19-1.14-0.27
	c-0.85-0.19-1.92,0.07-2.54,0.22c-0.6,0.14-2.84-0.3-3.19-0.49c-1.01-0.52-2.2-1.14-3.08-1.84c-0.52-0.41-1.06-1.09-1.46-1.62
	c-0.15-0.2-0.3-0.5-0.49-0.65c-0.22-0.17-1.45-0.68-1.73-0.76c-0.73-0.2-1.82-0.13-2.54-0.11H19.2c-0.34,0.08-0.86,0.16-1.3,0.05
	c-0.36-0.09-0.88-0.12-1.24-0.27c-0.27-0.11-0.54-0.34-0.81-0.43c-0.53-0.18-1.08-0.05-1.51-0.27c-0.12-0.06-0.22-0.26-0.32-0.32
	c-0.32-0.18-0.59-0.23-0.87-0.43c-0.14-0.1-0.21-0.3-0.38-0.38c-0.4-0.18-1.11-0.19-1.51-0.27c-0.59-0.11-1.61,0.62-2.16,0.76
	c-0.26,0.07-0.53-0.07-0.7-0.11c-0.18,0.02-0.36,0.04-0.54,0.05c-0.19-0.05-0.51-0.12-0.76-0.22c-0.53-0.2-1-0.67-1.57-0.81
	c-1.01-0.26-1.38,0.43-2.33,0.22c-0.14-0.21-0.25-0.25-0.27-0.6c0.06-0.11-0.01-0.34,0.05-0.49c0.09-0.2,0.48-0.79,0.71-0.86
	c0.61-0.44,1.7-0.27,2.54-0.49c0.58-0.15,1.04-0.46,1.58-0.7c0.14-0.06,0.55-0.27,0.71-0.32c0.62-0.2,1.27-0.03,1.61-0.5
	c0.24-0.32-0.08-0.59,0-0.92c0.07-0.3,0.4-1.35,0.6-1.51c0.67-0.56,1.94-0.39,2.81-0.76c0.61-0.26,1.4-0.62,2-0.87
	c0.52-0.21,1.04-0.23,1.57-0.43c0.33-0.12,0.68-0.37,1.08-0.43c0.16-0.03,0.24,0.08,0.33,0.11h0.86c0.17,0.04,0.32,0.21,0.59,0.16
	c0.65-0.12,1.37-0.05,2.11-0.22h0.92c1.29-0.32,2.88-0.34,4.17-0.7c1.45-0.41,3.21-0.77,4.6-1.19c0.64-0.2,1.36-0.09,1.95-0.33
	c0.74-0.3,1.45-0.75,2.11-1.13c0.29-0.17,0.58-0.21,0.86-0.38c0.22-0.13,0.52-0.38,0.76-0.49c0.18-0.08,0.81-0.17,0.97-0.22h0.7
	c0.66-0.18,1.48-0.46,2.22-0.65c0.54-0.04,1.08-0.07,1.62-0.11c0.91-0.25,1.35-1.07,2.38-1.3c0.73-0.16,0.9,0.71,1.57,0.54
	c0.2-0.05,0.46-0.24,0.65-0.32c0.3-0.12,0.59-0.09,0.92-0.22c0.38-0.15,0.79-0.51,1.19-0.7c0.2-0.1,0.36-0.03,0.6-0.11
	c0.68-0.23,1.36-0.59,2.11-0.76c0.18,0.02,0.36,0.04,0.54,0.05c0.58-0.13,1.27-0.3,1.78-0.43c0.5-0.12,0.72,0.3,0.98,0.43
	c0.29,0.15,0.61,0.11,0.92,0.27c0.2,0.11,0.46,0.33,0.7,0.43c0.18,0.04,0.36,0.07,0.54,0.11c0.19,0.08,0.33,0.31,0.54,0.38
	c0.71,0.21,1.22-0.28,1.62-0.43c0.3-0.11,0.64-0.2,0.87-0.27h0.97c0.31-0.12,0.5-0.37,0.97-0.43c0.72,0.77,1.39,0.14,2.11-0.11
	c0.32-0.11,0.64-0.1,0.92-0.27c0.44-0.25,0.48-0.66,0.76-1.08c0.11-0.09,0.22-0.18,0.32-0.27c0.02-0.11,0.04-0.22,0.06-0.33
	c0.09-0.07,0.18-0.14,0.27-0.22c0.19-0.29,0.17-0.57,0.27-0.97c0.08-0.31,0.35-0.93,0.22-1.36c-0.06-0.2-0.19-0.22-0.22-0.54
	c0.29-0.19,0.2-0.27,0.32-0.65c0.3-0.91,0.16-0.94-0.21-1.68c-0.08-0.15-0.03-0.3-0.11-0.43c-0.5-0.84-1.4-1.37-2.38-1.73
	c-0.25-0.03-0.5-0.07-0.76-0.11c-0.76-0.28-1.01-1.01-1.62-1.41c-0.24-0.15-0.62-0.13-0.81-0.32c-0.51-0.51-0.51-1.99-1.24-2.27
	c-0.21-0.12-1.26-0.04-1.68-0.16c-0.57-0.16-0.71-0.74-1.41-0.76c-0.41,0.42-0.94,0.78-1.3,1.24c-0.14,0.18-0.25,0.46-0.43,0.59
	c-0.14,0.1-0.27,0.07-0.43,0.16c-0.27,0.15-0.41,0.52-0.65,0.7c-0.27,0.2-0.66,0.38-0.86,0.65c-0.31,0.4-0.96,1.46-1.35,1.68
	c-0.21,0.12-0.52,0.04-0.7,0.16c-0.34,0.23-0.34,0.7-0.86,0.76c-0.41-0.39-0.78-0.8-1.19-1.19c0.03-0.9,0.66-1.06,1.19-1.46
	c0.67-0.51,1.1-1.31,1.84-1.79c0.44-0.28,1.11-0.29,1.19-0.92c-0.74,0.01-1.17,0.45-1.68,0.7c-0.39,0.19-0.82,0.11-1.25,0.27
	c-0.33,0.12-0.75,0.33-1.14,0.43c-0.46,0.12-2.53-0.29-2.81-0.43c-0.26-0.13-0.71-0.59-1.08-0.54c-1.16,0.16-1.83,1.07-2.92,1.24
	c-0.31,0.05-0.56-0.24-0.76-0.32c-0.62-0.26-1.2-0.5-1.84-0.76c-0.46-0.19-1.07-0.1-1.57-0.27c-0.59-0.2-1.15-0.6-1.68-0.81
	c-0.31-0.12-0.74-0.12-0.97-0.33c-0.12-0.11-0.2-0.31-0.32-0.43c-0.17-0.16-0.4-0.24-0.6-0.38c-0.23-0.17-0.4-0.48-0.65-0.65
	c-0.46-0.33-1.27-0.54-1.62-0.97c-0.24-0.34-0.05-0.87-0.59-0.92c-0.24-0.14-0.61,0.09-0.97,0c-0.16-0.04-0.54-0.18-0.71-0.22
	c-0.14-0.03-1.9,0.31-2.06,0.38c-0.19,0.09-0.37,0.32-0.54,0.43c-0.35,0.23-0.8,0.2-1.03,0.54c-0.07,0.1-0.19,0.34-0.22,0.43v0.65
	c-0.06,0.12-0.58,0.38-0.7,0.54c-0.43,0.59-0.88,1.23-1.41,1.73c-0.28,0.27-0.69,0.38-0.92,0.7c-0.51,0.7-0.89,1.52-1.41,2.22
	c-0.46,0.62-1.2,1.07-1.73,1.62C20.44,57,20,58.37,19.53,58.67c-0.35,0.21-1.15,0.04-1.52,0.27c-0.24,0.16-0.92,0.76-1.03,1.03
	c-0.1,0.25-0.03,0.51-0.16,0.7c-0.29,0.42-0.83,0.49-1.35,0.7c-0.3,0.12-0.58,0.31-0.97,0.22c-0.56-0.13-1.22-0.16-1.41-0.65
	c-0.32-0.38,0.16-1.54,0.43-1.73c0.74-0.51,1.81-0.57,2.49-1.13c0.29-0.24,0.49-1.05,0.7-1.41c0.14-0.11,0.29-0.22,0.43-0.33
	c0.57-0.8,0.65-0.51,1.73-0.7c0.28-0.58,0.57-0.42,1.03-0.76c0.44-0.33,0.63-0.98,1.08-1.3c0.19-0.13,0.5-0.08,0.7-0.22
	c0.21-0.13,0.88-1.24,1.08-1.51c0.75-1.05,1.74-1.92,2.43-3.03c0.19-0.31,0.38-0.75,0.49-1.08c0.02-0.16,0.04-0.32,0.06-0.49
	c0.22-0.24,0.43-0.47,0.65-0.7c0.32-0.6,0.19-0.96,0.87-1.25c0.21-0.09,0.35-0.04,0.59-0.1c0.43-0.13,1.06-0.4,1.52-0.49
	c0.18,0.02,0.36,0.04,0.54,0.05c0.08-0.03,0.2-0.18,0.27-0.22c0.64-0.32,1.68-0.45,2.38-0.16c0.26,0.11,0.43,0.36,0.65,0.49
	c0.38,0.23,1.06,0.36,1.19,0.81c0.09,0.32-0.25,0.51-0.27,0.87c0.06,0.06,0.09,0.11,0.16,0.16c0.16,0.13,0.63,0.26,0.86,0.27
	c0.13-0.02,0.25-0.03,0.38-0.05c0.53,0.11,0.9,0.55,1.35,0.7c0.41,0.13,0.77-0.02,1.08,0.16c0.49,0.3,0.58,0.66,0.86,1.19
	c0.2,0.38,1.16,1.43,1.52,1.67c0.52,0.37,1.47,0.42,2.22,0.54c0.34-0.02,0.68-0.04,1.03-0.05c0.33,0.08,0.78,0.36,1.3,0.22
	c0.43-0.12,1.05-0.31,1.51-0.49c0.21-0.08,0.44-0.31,0.65-0.38c0.72-0.25,1.37,0.07,1.95,0.22c0.65,0.16,1.21-0.25,1.57-0.43
	c0.28-0.14,0.58-0.13,0.7-0.43c0.06-0.08,0.06-0.22,0.06-0.38c-0.56,0.01-0.8,0.26-1.25,0.38c-0.52,0.14-1-0.11-1.51,0
	c-0.57,0.12-1.31,0.17-1.84,0.06c-0.04-0.06-0.07-0.11-0.11-0.16c-0.16-0.2-0.08-0.48-0.06-0.76c0.32-0.24,0.49-0.61,0.92-0.76
	c0.4-0.14,0.84-0.08,1.19-0.21c0.11-0.39,0.05-0.51,0.59-0.49c0.24-0.14,0.69,0.08,0.92,0.11c0.49,0.04,0.97,0.07,1.46,0.11
	c0.56,0.14,1.06,0.41,1.73,0.43c0.02-0.05,0.04-0.11,0.05-0.16c0.18-0.39-0.35-0.95,0.32-1.41c0.19-0.14,0.41-0.04,0.7-0.11
	c1.62-0.38,2.14,1.07,3.68,0.65c1.84-0.5,4.09-0.7,5.9-1.24c0.46-0.14,0.97-0.11,1.35-0.27c0.13-0.22,0.35-0.52,0.43-0.76
	c0.02-0.2,0.03-0.4,0.05-0.59c0.05-0.13,0.21-0.23,0.27-0.32c0.32-0.49,0.55-1.02,0.59-1.79c-0.23-0.24-0.4-0.66-0.7-0.81
	c-0.96-0.49-2.38,0.46-3.08,0.76c-0.32,0.09-0.65,0.18-0.97,0.27c-0.26,0.15-0.42,0.52-0.65,0.65c-0.31,0.18-0.85-0.05-1.24,0.05
	c-0.65,0.18-1.26,0.53-2,0.7c-0.82,0.19-2.21-0.9-2.92-1.08c-0.41-0.11-0.91,0.12-1.24,0.05c-0.12-0.02-0.31-0.15-0.49-0.11
	c-0.2,0.04-0.36,0.14-0.54,0.11c-0.51-0.09-1.52,0.09-2,0.16c-0.43,0.06-0.87-0.31-1.41-0.11c-0.41,0.15-1,1.02-1.57,0.65
	c-0.21-0.07-0.77-0.68-0.81-0.92c-0.04-0.07,0.02-0.18,0.05-0.32c0.14-0.09,0.27-0.27,0.43-0.32c0.41-0.13,0.85,0.13,1.3,0
	c0.12-0.03,0.31-0.19,0.43-0.22c0.35-0.07,0.91,0.22,1.41,0.11c0.28-0.06,0.85,0.05,1.19-0.05c1.41-0.44,3.24-0.19,4.65,0.11
	c0.74,0.15,0.7-0.47,1.41-0.49c0.15,0.1,1.53,0.25,1.84,0.16c0.38-0.12,0.57-0.6,0.92-0.76c0.22-0.04,0.43-0.07,0.65-0.11
	c0.74-0.25,1.32-0.56,1.89-0.97c0.33-0.24,0.28-0.83,0.6-1.08c0.21-0.16,0.97-0.42,1.24-0.49c0.13-0.27,0.34-0.48,0.43-0.76
	c0.51-1.53,0.06-4.57-0.22-5.95c0.02-0.16,0.04-0.32,0.05-0.49c0.01-0.44-0.09-0.76-0.05-1.14c0.03-0.33,0.19-0.62,0.11-1.03
	c-0.1-0.03-0.17-0.05-0.33-0.05c-0.22,0.17-0.58,0.21-0.76,0.43c-0.22,0.27-0.36,0.83-0.65,1.03c-0.36,0.26-0.72,0.41-0.97,0.76
	c-0.22,0.3-0.38,0.56-0.6,0.86c-0.2,0.16-0.4,0.33-0.59,0.49c-0.09,0.11-0.11,0.24-0.22,0.32c-0.23,0.18-0.57,0.32-0.76,0.54
	c-0.24,0.28-0.46,0.7-0.76,0.92c-0.44,0.33-0.99,0.41-1.35,0.81c-0.14,0.16-0.21,0.42-0.38,0.54c-0.19,0.14-0.4,0.14-0.54,0.32
	c-0.31,0.41-1,1.32-1.41,1.57c-0.25,0.15-1.93,0.39-2.17,0.38c-0.18-0.22-0.48-0.24-0.59-0.54c-0.29-0.49,0.37-1.19,0.54-1.46
	c0.03-0.11,0.07-0.22,0.11-0.33c0.19-0.28,1.24-0.81,1.62-0.92h0.43c0.39-0.13,0.46-0.61,0.7-0.76c0.16-0.09,0.29,0.07,0.54,0
	c0.29-0.08,0.53-0.32,0.75-0.49c1.26-0.95,2.24-2.21,3.41-3.25c0.23-0.2,0.5-0.3,0.76-0.49c0.77-0.56,2.09-2.65,2.49-3.62
	c0.34-0.84,0.03-1.88,0.27-2.87c0.34-1.4,0.29-2.6,0-4c-0.05-0.02-0.11-0.04-0.16-0.05c-0.42-0.22-0.75,0.89-1.14,1.03h-0.6
	c-0.2,0.06-0.61,0.15-0.81,0.27c-0.06,0.03-0.16,0.19-0.22,0.22c-0.42,0.18-0.85,0.15-1.24,0.38c-0.3,0.17-0.54,0.55-0.81,0.76
	c-0.32,0.24-0.74,0.46-1.08,0.65c-0.34,0.19-1.24,0.41-1.62,0.16c-0.62-0.23-0.89-1.65-0.27-2c0.32-0.18,0.62-0.06,1.03-0.16
	c0.49-0.12,0.95-0.25,1.46-0.43c0.65-0.24,1.19-0.87,1.79-1.14c0.56-0.25,1.31-0.35,1.51-0.92c0.19-0.4-0.56-0.54-0.81-0.7
	c-0.15-0.1-0.11-0.23-0.22-0.38c-0.14-0.2-0.77-0.57-1.14-0.49c-0.68,0.15-1.35,0.52-2.05,0.7c-0.41,0.11-0.92-0.12-1.24-0.05
	c-0.3,0.06-1.17,0.31-1.73,0.16c-0.23-0.06-0.45-0.26-0.71-0.33c-0.52-0.13-1.14,0.17-1.51,0.27c-0.65,0.17-1.04-0.2-1.68-0.05
	c-0.59,0.13-1.26,0.25-1.84,0.38c-0.81,0.19-1.9-0.01-2.6-0.16c-0.37-0.08-0.66,0.12-0.92,0.16c-0.11-0.02-0.22-0.04-0.32-0.06
	c-0.64,0.15-0.98,0.67-1.57,0.87c-0.48,0.16-0.9,0.12-1.4,0.27c-0.47,0.16-0.94,0.32-1.41,0.49c-0.52,0.15-1.08,0.05-1.35,0.43
	c-0.12,0.14-0.12,0.38-0.11,0.65c0.71,0.53,0.8,1.87,0.27,2.65c-0.25,0.37-0.77,0.53-0.97,0.97c-0.02,0.18-0.04,0.36-0.05,0.54
	c-0.14,0.47-0.36,1.13-0.49,1.57c-0.12,0.39-0.03,0.59-0.22,0.86c-0.9,1.38-2.27,2.37-3.57,3.35c-0.49,0.37-0.73,1.06-1.3,1.35
	c-0.24,0.04-0.47,0.07-0.7,0.11c-0.18,0.06-0.42,0.21-0.65,0.27h-1.3c-0.62,0.16-1.49,0.16-2.27,0.16c-0.23-0.02-0.47-0.04-0.7-0.05
	c-0.36,0.06-0.78-0.09-1.19,0c-1.1,0.23-3.54,0.04-4.49-0.38c-0.12-0.05-0.21-0.22-0.32-0.27c-0.46-0.21-1.07-0.32-1.57-0.27"/>
<g>
	<g>
		<path d="M102.25,21.21v-5.72h5.56v-7.8h6.73v7.8h7.41v5.72h-7.41v11.79c0,2.69,0.79,4.38,3.76,4.38c1.18,0,2.81-0.22,3.65-0.84
			v5.67c-1.4,0.67-3.76,0.9-5.33,0.9c-7.13,0-8.81-3.2-8.81-9.54V21.21H102.25z"/>
		<path d="M133.96,19.24h0.11c1.07-2.24,3.76-4.43,7.91-4.43c7.24,0,9.82,5.11,9.82,10.61v17h-6.73V28.79
			c0-2.97-0.22-7.91-4.94-7.91c-4.43,0-6.17,3.25-6.17,6.85v14.7h-6.73V0h6.73V19.24z"/>
		<path d="M162.02,31.31c0.45,3.98,3.48,6.4,7.24,6.4c3.37,0,5.56-1.57,7.24-3.65l4.83,3.65c-3.14,3.87-7.13,5.39-11.39,5.39
			c-8.14,0-14.65-5.67-14.65-14.14c0-8.47,6.51-14.14,14.65-14.14c7.52,0,12.63,5.28,12.63,14.65v1.85H162.02z M175.83,26.26
			c-0.06-3.93-2.64-6.4-6.85-6.4c-3.98,0-6.45,2.53-6.96,6.4H175.83z"/>
		<path d="M205.24,31.31c0.45,3.98,3.48,6.4,7.24,6.4c3.37,0,5.56-1.57,7.24-3.65l4.83,3.65c-3.14,3.87-7.13,5.39-11.39,5.39
			c-8.14,0-14.65-5.67-14.65-14.14c0-8.47,6.51-14.14,14.65-14.14c7.52,0,12.63,5.28,12.63,14.65v1.85H205.24z M219.04,26.26
			c-0.06-3.93-2.64-6.4-6.85-6.4c-3.98,0-6.45,2.53-6.96,6.4H219.04z"/>
		<path d="M225.61,15.48h7.35l7.18,18.86h0.11l7.24-18.86h6.9l-10.61,26.94h-7.18L225.61,15.48z"/>
		<path d="M260.91,31.31c0.45,3.98,3.48,6.4,7.24,6.4c3.37,0,5.56-1.57,7.24-3.65l4.83,3.65c-3.14,3.87-7.13,5.39-11.39,5.39
			c-8.14,0-14.65-5.67-14.65-14.14c0-8.47,6.51-14.14,14.65-14.14c7.52,0,12.63,5.28,12.63,14.65v1.85H260.91z M274.71,26.26
			c-0.06-3.93-2.64-6.4-6.85-6.4c-3.99,0-6.45,2.53-6.96,6.4H274.71z"/>
		<path d="M285.77,15.48h6.73v4.27h0.11c1.46-3.09,4.43-4.94,7.97-4.94c0.84,0,1.63,0.17,2.41,0.39v6.51
			c-1.12-0.28-2.19-0.5-3.25-0.5c-6.34,0-7.24,5.33-7.24,6.79v14.42h-6.73V15.48z"/>
		<path d="M333.59,15.48v24.52c0,9.71-4.71,15.88-15.21,15.88c-5,0-9.54-1.07-13.36-4.43l4.04-5.5c2.69,2.47,5.5,3.87,9.26,3.87
			c6.51,0,8.53-3.7,8.53-9.04v-1.96h-0.11c-1.96,2.64-5.44,3.93-8.81,3.93c-8.08,0-13.41-6.17-13.41-13.81
			c0-7.97,4.99-14.14,13.3-14.14c3.76,0,7.3,1.46,9.26,4.71h0.11v-4.04H333.59z M311.25,28.9c0,4.27,3.37,7.8,7.91,7.8
			c5,0,8.03-3.42,8.03-7.91c0-4.66-3.09-7.91-7.97-7.91C314.51,20.87,311.25,24.13,311.25,28.9z"/>
		<path d="M337.8,15.48h6.73v4.27h0.11c1.46-3.09,4.43-4.94,7.97-4.94c0.84,0,1.63,0.17,2.41,0.39v6.51
			c-1.12-0.28-2.19-0.5-3.25-0.5c-6.34,0-7.24,5.33-7.24,6.79v14.42h-6.73V15.48z"/>
		<path d="M363.33,31.31c0.45,3.98,3.48,6.4,7.24,6.4c3.37,0,5.56-1.57,7.24-3.65l4.83,3.65c-3.14,3.87-7.13,5.39-11.39,5.39
			c-8.14,0-14.65-5.67-14.65-14.14c0-8.47,6.51-14.14,14.65-14.14c7.52,0,12.63,5.28,12.63,14.65v1.85H363.33z M377.14,26.26
			c-0.06-3.93-2.64-6.4-6.85-6.4c-3.99,0-6.45,2.53-6.96,6.4H377.14z"/>
		<path d="M393.86,31.31c0.45,3.98,3.48,6.4,7.24,6.4c3.37,0,5.55-1.57,7.24-3.65l4.83,3.65c-3.14,3.87-7.13,5.39-11.39,5.39
			c-8.14,0-14.65-5.67-14.65-14.14c0-8.47,6.51-14.14,14.65-14.14c7.52,0,12.63,5.28,12.63,14.65v1.85H393.86z M407.67,26.26
			c-0.06-3.93-2.64-6.4-6.85-6.4c-3.98,0-6.45,2.53-6.96,6.4H407.67z"/>
		<path d="M418.56,15.48h6.4v4.32h0.11c1.24-2.69,3.76-4.99,8.25-4.99c7.24,0,9.82,5.11,9.82,10.61v17h-6.74V28.79
			c0-2.97-0.22-7.91-4.94-7.91c-4.43,0-6.17,3.25-6.17,6.85v14.7h-6.74V15.48z"/>
	</g>
	<g>
		<path d="M150.02,73.56c-1.29-1.8-2.98-2.75-5.28-2.75c-1.8,0-3.93,0.84-3.93,2.86c0,4.83,14.54,0.9,14.54,11.39
			c0,6.4-6.12,8.64-11.62,8.64c-4.15,0-7.74-1.07-10.49-4.15l4.49-4.21c1.74,1.91,3.54,3.31,6.4,3.31c1.96,0,4.49-0.95,4.49-3.09
			c0-5.56-14.54-1.18-14.54-11.45c0-6,5.39-8.7,10.83-8.7c3.59,0,7.41,1.12,9.6,4.1L150.02,73.56z"/>
		<path d="M157.43,71.82v-5.72h5.56v-7.8h6.73v7.8h7.41v5.72h-7.41V83.6c0,2.69,0.79,4.38,3.76,4.38c1.18,0,2.81-0.23,3.65-0.84
			v5.67c-1.4,0.67-3.76,0.9-5.33,0.9c-7.13,0-8.81-3.2-8.81-9.54V71.82H157.43z"/>
		<path d="M199.24,89.33h-0.17c-1.91,3.03-5.05,4.38-8.64,4.38c-4.99,0-9.82-2.75-9.82-8.08c0-8.75,10.21-9.37,16.95-9.37h1.68
			v-0.73c0-3.31-2.58-5.05-6.17-5.05c-2.81,0-5.39,1.12-7.18,2.81l-3.54-3.54c2.97-3.03,7.18-4.32,11.45-4.32
			c11.5,0,11.5,8.31,11.5,12.12v15.49h-6.06V89.33z M198.85,80.97h-1.4c-3.7,0-10.1,0.28-10.1,4.15c0,2.47,2.53,3.54,4.71,3.54
			c4.6,0,6.79-2.41,6.79-6.17V80.97z"/>
		<path d="M208.84,71.82v-5.72h5.56v-7.8h6.74v7.8h7.41v5.72h-7.41V83.6c0,2.69,0.79,4.38,3.76,4.38c1.18,0,2.81-0.23,3.65-0.84
			v5.67c-1.4,0.67-3.76,0.9-5.33,0.9c-7.13,0-8.81-3.2-8.81-9.54V71.82H208.84z"/>
		<path d="M239.2,81.92c0.45,3.98,3.48,6.4,7.24,6.4c3.37,0,5.55-1.57,7.24-3.65l4.83,3.65c-3.14,3.87-7.13,5.39-11.39,5.39
			c-8.14,0-14.65-5.67-14.65-14.14s6.51-14.14,14.65-14.14c7.52,0,12.63,5.28,12.63,14.65v1.85H239.2z M253.01,76.87
			c-0.06-3.93-2.64-6.4-6.85-6.4c-3.98,0-6.45,2.53-6.96,6.4H253.01z"/>
		<path d="M298.24,74.18c-1.57-1.63-3.31-2.69-5.11-2.69c-4.94,0-7.91,3.87-7.91,8.08s2.97,8.08,7.91,8.08
			c2.08,0,3.99-0.9,5.22-2.52l4.49,4.83c-2.75,2.75-7.35,3.76-9.71,3.76c-8.14,0-14.65-5.67-14.65-14.14s6.51-14.14,14.65-14.14
			c3.42,0,7.18,1.23,9.77,4.1L298.24,74.18z"/>
		<path d="M319.63,65.42c8.14,0,14.65,5.67,14.65,14.14s-6.51,14.14-14.65,14.14s-14.65-5.67-14.65-14.14S311.49,65.42,319.63,65.42
			z M319.63,87.64c4.94,0,7.91-3.87,7.91-8.08s-2.97-8.08-7.91-8.08s-7.91,3.87-7.91,8.08S314.69,87.64,319.63,87.64z"/>
		<path d="M337.98,50.6h6.73v42.43h-6.73V50.6z"/>
		<path d="M352.34,50.6h6.73v42.43h-6.73V50.6z"/>
		<path d="M370.19,81.92c0.45,3.98,3.48,6.4,7.24,6.4c3.37,0,5.56-1.57,7.24-3.65l4.83,3.65c-3.14,3.87-7.13,5.39-11.39,5.39
			c-8.14,0-14.65-5.67-14.65-14.14s6.51-14.14,14.65-14.14c7.52,0,12.63,5.28,12.63,14.65v1.85H370.19z M384,76.87
			c-0.06-3.93-2.64-6.4-6.85-6.4c-3.99,0-6.45,2.53-6.96,6.4H384z"/>
		<path d="M422.89,66.09v24.52c0,9.71-4.71,15.88-15.21,15.88c-4.99,0-9.54-1.07-13.36-4.43l4.04-5.5c2.69,2.47,5.5,3.87,9.26,3.87
			c6.51,0,8.53-3.7,8.53-9.04v-1.96h-0.11c-1.96,2.64-5.44,3.93-8.81,3.93c-8.08,0-13.41-6.17-13.41-13.81
			c0-7.97,5-14.14,13.3-14.14c3.76,0,7.29,1.46,9.26,4.71h0.11v-4.04H422.89z M400.55,79.51c0,4.26,3.37,7.8,7.91,7.8
			c5,0,8.03-3.42,8.03-7.91c0-4.66-3.09-7.91-7.97-7.91C403.81,71.48,400.55,74.74,400.55,79.51z"/>
		<path d="M433.22,81.92c0.45,3.98,3.48,6.4,7.24,6.4c3.37,0,5.56-1.57,7.24-3.65l4.83,3.65c-3.14,3.87-7.13,5.39-11.39,5.39
			c-8.14,0-14.65-5.67-14.65-14.14s6.51-14.14,14.65-14.14c7.52,0,12.63,5.28,12.63,14.65v1.85H433.22z M447.02,76.87
			c-0.06-3.93-2.64-6.4-6.85-6.4c-3.99,0-6.45,2.53-6.96,6.4H447.02z"/>
	</g>
</g>
</svg>
