<?xml version="1.0" encoding="utf-8"?>
<!-- Generator: Adobe Illustrator 16.0.4, SVG Export Plug-In . SVG Version: 6.00 Build 0)  -->
<!DOCTYPE svg PUBLIC "-//W3C//DTD SVG 1.1//EN" "http://www.w3.org/Graphics/SVG/1.1/DTD/svg11.dtd">
<!--width="1000px" height="134px"-->
<svg version="1.1" id="Layer_1" xmlns="http://www.w3.org/2000/svg" xmlns:xlink="http://www.w3.org/1999/xlink" x="0px" y="0px"
	 width="100%" height="100%" viewBox="0 0 1000 134" preserveAspectRatio="xMinYMin meet" enable-background="new 0 0 1000 134" xml:space="preserve">
<g>
	<g>
		<path fill="#010101" d="M123.028,29.591v-7.436h7.212v-10.13h8.753v10.13h9.624v7.436h-9.624v15.317
			c0,3.505,1.013,5.693,4.882,5.693c1.541,0,3.647-0.284,4.742-1.094v7.375c-1.823,0.871-4.883,1.175-6.929,1.175
			c-9.26,0-11.448-4.154-11.448-12.399V29.612h-7.212V29.591z"/>
		<path fill="#010101" d="M164.238,27.039h0.142c1.378-2.917,4.883-5.755,10.292-5.755c9.401,0,12.764,6.646,12.764,13.778v22.104
			h-8.752V39.438c0-3.869-0.284-10.292-6.423-10.292c-5.753,0-8.023,4.234-8.023,8.895v19.105h-8.752V2.017h8.752V27.039z"/>
		<path fill="#010101" d="M200.707,42.72c0.588,5.187,4.518,8.307,9.401,8.307c4.375,0,7.211-2.046,9.4-4.741l6.281,4.741
			c-4.093,5.024-9.259,7.01-14.811,7.01c-10.576,0-19.024-7.375-19.024-18.376c0-11.021,8.468-18.377,19.024-18.377
			c9.766,0,16.411,6.849,16.411,19.045v2.411h-26.683V42.72z M218.637,36.156c-0.081-5.106-3.424-8.307-8.895-8.307
			c-5.187,0-8.388,3.282-9.036,8.307H218.637z"/>
		<path fill="#010101" d="M256.868,42.72c0.587,5.187,4.518,8.307,9.401,8.307c4.376,0,7.213-2.046,9.401-4.741l6.281,4.741
			c-4.093,5.024-9.26,7.01-14.811,7.01c-10.576,0-19.025-7.375-19.025-18.376c0-11.021,8.469-18.377,19.025-18.377
			c9.765,0,16.411,6.849,16.411,19.045v2.411h-26.684V42.72z M274.799,36.156c-0.082-5.106-3.424-8.307-8.894-8.307
			c-5.187,0-8.388,3.282-9.037,8.307H274.799z"/>
		<path fill="#010101" d="M283.328,22.156h9.563l9.34,24.496h0.142l9.4-24.496h8.976l-13.778,35.01h-9.34L283.328,22.156z"/>
		<path fill="#010101" d="M329.219,42.72c0.586,5.187,4.518,8.307,9.4,8.307c4.377,0,7.213-2.046,9.401-4.741l6.281,4.741
			c-4.093,5.024-9.26,7.01-14.811,7.01c-10.576,0-19.024-7.375-19.024-18.376c0-11.021,8.469-18.377,19.024-18.377
			c9.765,0,16.411,6.849,16.411,19.045v2.411h-26.683V42.72z M347.148,36.156c-0.081-5.106-3.424-8.307-8.894-8.307
			c-5.187,0-8.388,3.282-9.036,8.307H347.148z"/>
		<path fill="#010101" d="M361.533,22.156h8.752v5.552h0.143c1.904-4.011,5.753-6.423,10.353-6.423c1.094,0,2.107,0.224,3.141,0.506
			v8.469c-1.459-0.365-2.837-0.648-4.235-0.648c-8.246,0-9.4,6.929-9.4,8.833v18.741h-8.753V22.156L361.533,22.156z"/>
		<path fill="#010101" d="M423.652,22.156v31.87c0,12.622-6.119,20.645-19.754,20.645c-6.484,0-12.4-1.377-17.364-5.754l5.248-7.15
			c3.505,3.2,7.151,5.023,12.035,5.023c8.469,0,11.082-4.822,11.082-11.75v-2.553h-0.141c-2.553,3.424-7.071,5.106-11.447,5.106
			c-10.495,0-17.424-8.024-17.424-17.931c0-10.354,6.483-18.377,17.282-18.377c4.882,0,9.481,1.905,12.035,6.12h0.142v-5.248
			H423.652z M394.639,39.58c0,5.552,4.376,10.13,10.292,10.13c6.484,0,10.434-4.458,10.434-10.292
			c0-6.058-4.012-10.292-10.353-10.292C398.874,29.146,394.639,33.38,394.639,39.58z"/>
		<path fill="#010101" d="M429.143,22.156h8.752v5.552h0.142c1.904-4.011,5.754-6.423,10.353-6.423c1.094,0,2.107,0.224,3.14,0.506
			v8.469c-1.458-0.365-2.836-0.648-4.234-0.648c-8.246,0-9.401,6.929-9.401,8.833v18.741h-8.752V22.156L429.143,22.156z"/>
		<path fill="#010101" d="M462.329,42.72c0.587,5.187,4.518,8.307,9.401,8.307c4.376,0,7.213-2.046,9.401-4.741l6.28,4.741
			c-4.093,5.024-9.259,7.01-14.811,7.01c-10.575,0-19.024-7.375-19.024-18.376c0-11.021,8.468-18.377,19.024-18.377
			c9.766,0,16.411,6.849,16.411,19.045v2.411h-26.683V42.72z M480.26,36.156c-0.081-5.106-3.424-8.307-8.895-8.307
			c-5.187,0-8.388,3.282-9.036,8.307H480.26z"/>
		<path fill="#010101" d="M501.998,42.72c0.59,5.187,4.519,8.307,9.402,8.307c4.376,0,7.214-2.046,9.399-4.741l6.282,4.741
			c-4.094,5.024-9.26,7.01-14.812,7.01c-10.575,0-19.023-7.375-19.023-18.376c0-11.021,8.468-18.377,19.023-18.377
			c9.767,0,16.41,6.849,16.41,19.045v2.411h-26.683V42.72z M519.93,36.156c-0.081-5.106-3.425-8.307-8.894-8.307
			c-5.188,0-8.39,3.282-9.038,8.307H519.93z"/>
		<path fill="#010101" d="M534.09,22.156h8.309v5.612h0.141c1.603-3.505,4.883-6.484,10.72-6.484
			c9.399,0,12.764,6.646,12.764,13.778v22.104h-8.754V39.438c0-3.869-0.282-10.292-6.422-10.292c-5.754,0-8.023,4.234-8.023,8.895
			v19.105h-8.753v-34.99H534.09z"/>
		<path fill="#010101" d="M608.913,31.861c-1.682-2.33-3.87-3.566-6.848-3.566c-2.331,0-5.104,1.094-5.104,3.729
			c0,6.281,18.881,1.175,18.881,14.811c0,8.306-7.941,11.224-15.094,11.224c-5.39,0-10.069-1.378-13.637-5.39l5.837-5.471
			c2.268,2.472,4.599,4.295,8.306,4.295c2.553,0,5.837-1.235,5.837-4.011c0-7.213-18.883-1.54-18.883-14.871
			c0-7.8,7.008-11.305,14.079-11.305c4.661,0,9.623,1.459,12.48,5.328L608.913,31.861z"/>
		<path fill="#010101" d="M618.557,29.591v-7.436h7.214v-10.13h8.751v10.13h9.624v7.436h-9.624v15.317
			c0,3.505,1.014,5.693,4.883,5.693c1.54,0,3.646-0.284,4.741-1.094v7.375c-1.822,0.871-4.884,1.175-6.929,1.175
			c-9.258,0-11.446-4.154-11.446-12.399V29.612h-7.214V29.591z"/>
		<path fill="#010101" d="M672.876,52.344h-0.224c-2.471,3.931-6.564,5.693-11.225,5.693c-6.483,0-12.764-3.565-12.764-10.496
			c0-11.385,13.271-12.176,22.023-12.176h2.188v-0.952c0-4.295-3.363-6.565-8.023-6.565c-3.648,0-7.01,1.458-9.341,3.646l-4.6-4.598
			c3.87-3.932,9.341-5.613,14.873-5.613c14.951,0,14.951,10.799,14.951,15.763v20.118h-7.882v-4.822H672.876z M672.369,41.484
			h-1.824c-4.821,0-13.127,0.365-13.127,5.39c0,3.2,3.28,4.599,6.117,4.599c5.978,0,8.834-3.141,8.834-8.023V41.484L672.369,41.484z
			"/>
		<path fill="#010101" d="M685.354,29.591v-7.436h7.214v-10.13h8.753v10.13h9.624v7.436h-9.624v15.317
			c0,3.505,1.014,5.693,4.882,5.693c1.541,0,3.648-0.284,4.742-1.094v7.375c-1.824,0.871-4.883,1.175-6.929,1.175
			c-9.26,0-11.448-4.154-11.448-12.399V29.612h-7.214V29.591z"/>
		<path fill="#010101" d="M724.823,42.72c0.587,5.187,4.519,8.307,9.399,8.307c4.377,0,7.214-2.046,9.402-4.741l6.28,4.741
			c-4.092,5.024-9.26,7.01-14.81,7.01c-10.577,0-19.026-7.375-19.026-18.376c0-11.021,8.471-18.377,19.026-18.377
			c9.764,0,16.41,6.849,16.41,19.045v2.411h-26.683V42.72z M742.753,36.156c-0.081-5.106-3.423-8.307-8.894-8.307
			c-5.187,0-8.388,3.282-9.036,8.307H742.753z"/>
		<path fill="#010101" d="M797.902,32.651c-2.047-2.107-4.295-3.505-6.646-3.505c-6.423,0-10.292,5.024-10.292,10.494
			c0,5.471,3.869,10.496,10.292,10.496c2.694,0,5.186-1.175,6.786-3.283l5.835,6.281c-3.565,3.566-9.562,4.883-12.621,4.883
			c-10.575,0-19.024-7.375-19.024-18.377c0-11.021,8.469-18.375,19.024-18.375c4.458,0,9.341,1.601,12.683,5.328L797.902,32.651z"/>
		<path fill="#010101" d="M825.68,21.284c10.575,0,19.023,7.375,19.023,18.377c0,11.021-8.448,18.376-19.023,18.376
			c-10.577,0-19.025-7.375-19.025-18.376C806.654,28.64,815.103,21.284,825.68,21.284z M825.68,50.155
			c6.422,0,10.293-5.023,10.293-10.494s-3.871-10.495-10.293-10.495s-10.293,5.024-10.293,10.495
			C815.407,45.132,819.277,50.155,825.68,50.155z"/>
		<path fill="#010101" d="M849.545,2.017h8.753v55.128h-8.753V2.017z"/>
		<path fill="#010101" d="M868.205,2.017h8.753v55.128h-8.753V2.017z"/>
		<path fill="#010101" d="M891.403,42.72c0.588,5.187,4.519,8.307,9.402,8.307c4.374,0,7.212-2.046,9.399-4.741l6.28,4.741
			c-4.092,5.024-9.258,7.01-14.81,7.01c-10.575,0-19.023-7.375-19.023-18.376c0-11.021,8.448-18.377,19.023-18.377
			c9.767,0,16.41,6.849,16.41,19.045v2.411h-26.683V42.72z M909.335,36.156c-0.081-5.106-3.425-8.307-8.896-8.307
			c-5.186,0-8.387,3.282-9.036,8.307H909.335z"/>
		<path fill="#010101" d="M959.883,22.156v31.87c0,12.622-6.117,20.645-19.754,20.645c-6.481,0-12.397-1.377-17.361-5.754
			l5.247-7.15c3.504,3.2,7.152,5.023,12.035,5.023c8.469,0,11.082-4.822,11.082-11.75v-2.553h-0.143
			c-2.552,3.424-7.071,5.106-11.446,5.106c-10.496,0-17.425-8.024-17.425-17.931c0-10.354,6.483-18.377,17.283-18.377
			c4.883,0,9.481,1.905,12.033,6.12h0.143v-5.248H959.883z M930.852,39.58c0,5.552,4.375,10.13,10.291,10.13
			c6.483,0,10.435-4.458,10.435-10.292c0-6.058-4.011-10.292-10.354-10.292C935.086,29.146,930.852,33.38,930.852,39.58z"/>
		<path fill="#010101" d="M973.317,42.72c0.588,5.187,4.517,8.307,9.4,8.307c4.376,0,7.212-2.046,9.399-4.741l6.282,4.741
			c-4.094,5.024-9.26,7.01-14.812,7.01c-10.575,0-19.023-7.375-19.023-18.376c0-11.021,8.448-18.377,19.023-18.377
			c9.767,0,16.412,6.849,16.412,19.045v2.411h-26.683V42.72z M991.247,36.156c-0.081-5.106-3.425-8.307-8.894-8.307
			c-5.188,0-8.389,3.282-9.036,8.307H991.247z"/>
	</g>
	<g>
		<path fill="#010101" d="M140.797,86.039c8.853,0,15.823,6.969,15.823,15.639c0,8.674-6.97,15.642-15.823,15.642
			c-8.854,0-15.823-6.968-15.823-15.642C124.974,93.008,131.943,86.039,140.797,86.039z M140.797,112.053
			c6.038,0,9.806-4.337,9.806-10.375c0-6.035-3.768-10.372-9.806-10.372c-6.039,0-9.807,4.337-9.807,10.372
			C130.99,107.716,134.779,112.053,140.797,112.053z"/>
		<path fill="#010101" d="M160.773,69.079h5.653v47.493h-5.653V69.079z"/>
		<path fill="#010101" d="M170.761,86.787h6.524l8.854,23.24h0.122l8.408-23.24h6.098l-14.121,36.188
			c-2.006,5.145-3.951,8.67-10.171,8.67c-1.702,0-3.464-0.182-5.024-0.812l0.688-5.144c1.075,0.442,2.27,0.688,3.383,0.688
			c3.586,0,4.64-1.947,5.774-4.903l1.823-4.721L170.761,86.787z"/>
		<path fill="#010101" d="M205.124,86.787h5.267v4.642h0.122c0.568-1.765,4.214-5.409,9.542-5.409c4.396,0,7.416,1.883,9.3,5.527
			c1.945-3.645,5.835-5.527,9.421-5.527c9.178,0,11.306,6.521,11.306,13.188v17.344h-5.653V99.956c0-4.52-0.932-8.67-6.402-8.67
			s-7.598,3.708-7.598,8.975v16.268h-5.653v-15.579c0-5.65-0.81-9.663-6.281-9.663c-4.093,0-7.72,3.078-7.72,9.806v15.46h-5.651
			V86.787z"/>
		<path fill="#010101" d="M255.794,86.787h5.653v4.277h0.122c2.188-3.201,6.341-5.025,10.374-5.025
			c9.238,0,15.134,6.846,15.134,15.639c0,8.915-5.977,15.642-15.134,15.642c-4.275,0-8.347-1.942-10.374-5.025h-0.122v21.986h-5.653
			V86.787z M261.447,101.678c0,6.038,3.768,10.375,9.806,10.375s9.807-4.337,9.807-10.375c0-6.035-3.769-10.372-9.807-10.372
			S261.447,95.643,261.447,101.678z"/>
		<path fill="#010101" d="M295.869,71.979c2.27,0,4.154,1.884,4.154,4.15c0,2.271-1.885,4.155-4.154,4.155
			c-2.269,0-4.153-1.884-4.153-4.155C291.716,73.863,293.601,71.979,295.869,71.979z M293.054,86.787h5.653v29.785h-5.653V86.787z"
			/>
		<path fill="#010101" d="M306.546,90.436c3.141-2.96,7.659-4.396,11.812-4.396c8.794,0,12.44,4.78,12.44,9.928v15.195
			c0,2.066,0.06,3.827,0.243,5.41h-5.024c-0.122-1.5-0.183-3.02-0.183-4.52h-0.122c-2.512,3.831-5.896,5.267-10.434,5.267
			c-5.531,0-10.292-3.142-10.292-8.915c0-7.657,7.355-10.292,16.392-10.292h4.153v-1.274c0-3.079-2.27-6.28-7.091-6.28
			c-4.336,0-6.402,1.82-8.489,3.384L306.546,90.436z M322.512,102.247c-5.349,0-11.873,0.93-11.873,5.714
			c0,3.384,2.513,4.84,6.402,4.84c6.281,0,8.489-4.638,8.489-8.67v-1.884H322.512z"/>
		<path fill="#010101" d="M339.591,124.858h-5.146l4.336-15.461h6.099L339.591,124.858z"/>
		<path fill="#010101" d="M348.243,86.787h6.341l6.727,22.246h0.122l7.091-22.246h5.977l7.537,22.246h0.122l6.401-22.246h5.977
			l-9.603,29.785h-5.714l-7.861-22.247h-0.122l-7.091,22.247h-6.098L348.243,86.787z"/>
		<path fill="#010101" d="M398.063,90.436c3.14-2.96,7.658-4.396,11.811-4.396c8.793,0,12.44,4.78,12.44,9.928v15.195
			c0,2.066,0.062,3.827,0.244,5.41h-5.024c-0.122-1.5-0.182-3.02-0.182-4.52h-0.122c-2.513,3.831-5.896,5.267-10.435,5.267
			c-5.531,0-10.292-3.142-10.292-8.915c0-7.657,7.354-10.292,16.39-10.292h4.153v-1.274c0-3.079-2.269-6.28-7.091-6.28
			c-4.335,0-6.401,1.82-8.489,3.384L398.063,90.436z M414.008,102.247c-5.348,0-11.873,0.93-11.873,5.714
			c0,3.384,2.513,4.84,6.403,4.84c6.281,0,8.489-4.638,8.489-8.67v-1.884H414.008z"/>
		<path fill="#010101" d="M445.351,94.266c-1.317-1.643-3.262-2.96-6.099-2.96c-2.633,0-4.963,1.195-4.963,3.324
			c0,3.585,5.085,4.092,7.598,4.638c4.903,1.195,8.671,3.078,8.671,8.674c0,6.724-6.159,9.358-12.054,9.358
			c-4.904,0-8.55-1.254-11.489-5.267l4.276-3.525c1.823,1.824,3.95,3.525,7.232,3.525c2.897,0,6.038-1.195,6.038-3.771
			c0-3.383-4.721-4.008-7.151-4.578c-4.843-1.195-9.117-2.754-9.117-8.488c0-6.221,5.713-9.176,11.305-9.176
			c3.95,0,8.043,1.377,10.171,4.902L445.351,94.266z"/>
		<path fill="#010101" d="M456.089,69.079h5.652v22.306h0.122c1.438-3.138,5.206-5.326,9.806-5.326
			c5.774,0,10.799,3.463,10.799,11.365v19.168h-5.653V99.006c0-5.595-3.201-7.66-6.787-7.66c-4.721,0-8.287,3.019-8.287,9.928
			v15.338h-5.652V69.079z"/>
		<path fill="#010101" d="M491.14,71.979c2.269,0,4.153,1.884,4.153,4.15c0,2.271-1.884,4.155-4.153,4.155
			c-2.27,0-4.154-1.884-4.154-4.155C486.986,73.863,488.87,71.979,491.14,71.979z M488.302,86.787h5.653v29.785h-5.653V86.787z"/>
		<path fill="#010101" d="M499.811,86.787h5.654v4.578h0.12c1.438-3.138,5.206-5.326,9.806-5.326
			c5.775,0,10.799,3.462,10.799,11.364v19.169h-5.652v-17.59c0-5.591-3.201-7.657-6.786-7.657c-4.722,0-8.286,3.02-8.286,9.929
			v15.338h-5.654V86.787L499.811,86.787z"/>
		<path fill="#010101" d="M563.003,116.326c0,8.976-6.523,15.338-16.27,15.338c-5.651,0-10.372-1.437-14.566-5.35l3.828-4.78
			c2.958,3.142,6.282,4.844,10.617,4.844c8.429,0,10.737-5.268,10.737-10.293v-4.396h-0.182c-2.127,3.586-6.221,5.268-10.292,5.268
			c-8.733,0-15.195-6.604-15.135-15.278c0-8.793,5.916-15.639,15.135-15.639c4.012,0,8.165,1.824,10.373,5.025h0.121v-4.277h5.654
			v29.539H563.003z M537.738,101.678c0,6.038,3.768,9.991,9.806,9.991c6.039,0,9.806-3.953,9.806-9.991
			c0-6.035-3.767-10.372-9.806-10.372C541.506,91.306,537.738,95.643,537.738,101.678z"/>
		<path fill="#010101" d="M586.851,91.689h-8.104v13.514c0,3.324,0,6.85,4.273,6.85c1.318,0,2.896-0.182,4.013-0.87v5.144
			c-1.317,0.752-3.951,1.014-5.085,1.014c-8.733,0-8.855-5.347-8.855-10.11V91.709h-6.521v-4.902h6.521v-8.346h5.654v8.346h8.104
			V91.689z"/>
		<path fill="#010101" d="M606.462,86.039c8.854,0,15.822,6.969,15.822,15.639c0,8.674-6.969,15.642-15.822,15.642
			c-8.854,0-15.825-6.968-15.825-15.642C590.617,93.008,597.588,86.039,606.462,86.039z M606.462,112.053
			c6.038,0,9.806-4.337,9.806-10.375c0-6.035-3.768-10.372-9.806-10.372c-6.039,0-9.806,4.337-9.806,10.372
			C596.656,107.716,600.423,112.053,606.462,112.053z"/>
		<path fill="#010101" d="M627.797,86.787h5.652v4.578h0.121c1.438-3.138,5.207-5.326,9.806-5.326
			c5.775,0,10.799,3.462,10.799,11.364v19.169h-5.653v-17.59c0-5.591-3.201-7.657-6.786-7.657c-4.721,0-8.286,3.02-8.286,9.929
			v15.338h-5.652V86.787L627.797,86.787z"/>
	</g>
	<path fill="#231F20" d="M86.397,110.755c-0.75,0.526-2.958,0.59-3.242,1.396c-0.203,0.325,0.061,0.772-0.062,1.097
		c-0.425,1.013-0.992,0.851-0.891,2.43c0.305,0.206,0.689,0.55,0.953,0.831h0.628c0.162-0.262,0.364-0.384,0.83-0.384
		c0.203,0.201,0.628,0.546,0.893,0.648c0.911,0.305,1.195-0.447,2.046-0.245c0.729,0.162,1.62,0.324,2.351,0.57
		c0.243,0.079,0.81,0.344,1.154,0.241c0.527-0.143,0.709-0.768,1.135-0.95c0.831-0.388,2.167-0.186,3.12-0.388
		c0.831-0.182,1.742,0.183,2.37,0.324c0.648-0.039,1.317-0.079,1.966-0.122c1.013,0.226,1.742,0.811,2.877,0.831v-0.06h0.06
		c0.021-0.241-0.041-0.791,0.062-1.092c0.101-0.285,0.283-0.226,0.324-0.693c-0.283-0.221-0.567-0.625-0.892-0.768
		c-0.709-0.305-1.398-0.083-2.107-0.265c-0.507-0.183-1.013-0.384-1.52-0.566c-0.851-0.241-1.642,0.772-1.783,0.63
		c-0.325-0.143-0.244-0.305-0.77-0.325c-0.263-0.162-0.608,0.06-0.891,0c-0.243-0.039-1.013-0.201-1.216-0.324
		c-0.365-0.222-0.77-0.811-0.953-1.215c-0.02-0.103-0.041-0.206-0.061-0.324c-0.122-0.182-1.276-0.708-1.54-0.771
		c-0.202-0.04-0.486,0.103-0.627,0.122c-0.365,0.079-0.587,0-0.892,0.123c-0.344,0.139-0.83,0.729-1.52,0.507
		c-0.607-0.206-0.547-0.935-0.952-1.156C87.045,110.735,86.721,110.735,86.397,110.755 M11.616,93.411
		c-0.526,0.348-1.175,0.324-1.783,0.569c-0.385,0.162-0.487,0.547-0.77,0.768c-0.487,0.368-0.953-0.02-0.953,0.895
		c0.526,0.143,1.033,0.143,1.539,0.324c0.244,0.08,0.588,0.385,0.831,0.443c0.406,0.123,1.479-0.305,1.844-0.384
		c0.141-0.162,0.304-0.344,0.445-0.506c0.021-0.609-0.263-0.729-0.385-1.097c-0.162-0.463,0.224-0.768-0.323-0.949
		C11.981,93.411,11.819,93.411,11.616,93.411 M65.731,81.44c-0.06,0.586-0.891,0.768-1.539,0.768
		C64.233,81.417,65.043,81.357,65.731,81.44 M62.996,79.13c-0.587,0.344-1.316,0.06-2.107,0.261
		c-0.973,0.246-2.208,0.388-3.12,0.771c-0.627,0.266-1.377,0.586-1.986,0.954c-0.526,0.324-0.789,1.033-1.154,1.539
		c-0.061,0.079-1.438,0.709-1.601,0.768c-0.831,0.266-1.195-0.546-1.539-0.708h-1.541c-0.526,0.305-1.297-0.162-1.904,0
		c-0.75,0.202-1.763,0.285-2.492,0.566c-1.297,0.506-2.492,1.543-3.83,2.025c-0.304,0.044-0.587,0.083-0.891,0.143
		c-0.385,0.123-0.83,0.364-1.216,0.507c-0.445,0.162-0.851,0.143-1.276,0.324c-0.688,0.305-1.235,0.895-2.045,1.076
		c-0.385,0.079-0.872-0.226-1.398-0.063c-0.588,0.162-1.216,0.526-1.784,0.709c-0.405-0.021-0.811-0.04-1.215-0.06
		c-0.386,0-0.628,0.06-0.893,0.122c-0.547,0.021-1.114,0.04-1.661,0.06c-0.75,0.183-1.418,0.408-2.045,0.59
		c-0.812,0.04-1.622,0.079-2.432,0.119c-0.466,0.122-1.175,0.284-1.661,0.388c-0.487,0.099-0.831-0.226-1.337-0.063
		c-0.406,0.122-0.811,0.427-1.216,0.569c-1.013,0.345-2.127,0.424-3.12,0.831c-0.588,0.241-1.216,0.91-1.661,1.334
		c-0.021,0.692-0.021,1.867,0.324,2.434c0.182,0.305,0.567,0.486,0.77,0.768c0.141,0.206,0.141,0.53,0.323,0.712
		c0.143,0.119,0.426,0.1,0.507,0.242c0.122,0.201-0.061,0.384,0.122,0.506c0.162,0.104,0.344,0.04,0.506,0.123
		c0.183,0.099,0.325,0.364,0.506,0.443c0.507,0.205,0.851,0.205,1.398,0.388c0.628,0.182,1.318,0.526,1.966,0.708
		c0.567,0.143,1.216-0.103,1.601-0.202c0.912-0.201,2.148,0.119,2.938,0.325c0.324,0.079,0.689-0.063,0.952,0.059
		c1.438,0.748,3.1,1.48,4.396,2.41c0.365,0.266,0.588,0.649,0.892,0.954c0.203,0.201,0.527,0.284,0.771,0.447
		c0.425,0.301,0.729,0.851,1.154,1.151c0.607,0.427,1.357,0.934,2.046,1.219c0.872,0.364,2.128,0.118,2.938-0.063h0.892
		c0.284-0.06,0.872-0.119,1.216-0.202h1.094c0.688-0.162,1.499-0.506,2.167-0.629c0.891-0.162,1.52,0.59,2.107,0.831
		c0.284,0.123,0.729,0.182,0.953,0.245c0.709,0.183,2.411-0.02,2.877-0.122c0.952-0.202,1.965,0.403,3.12,0.122
		c1.054-0.265,1.094-0.895,1.783-1.278c0.425-0.241,0.831-0.162,1.073-0.648c0.224-0.384,0.082-0.993,0.325-1.338
		c0.223-0.324,0.729-0.344,0.953-0.645c0.263-0.388-0.143-0.831,0.445-0.954c0.304,0.424,1.013,0.143,1.601,0.305
		c0.304,0.079,0.649,0.384,0.891,0.566c0.183,0.143,0.163,0.427,0.325,0.565c0.101,0.103,0.304,0.044,0.385,0.206v0.506
		c0.062,0.139,0.344,0.325,0.446,0.443c0.404,0.487,0.587,1.195,0.952,1.722c0.081,0.123,0.263,0.162,0.385,0.265
		c0.669,0.63,1.277,1.156,2.047,1.722c0.445,0.324,0.445,0.771,1.216,0.831c0.101-0.079,0.283-0.06,0.385-0.143
		c0.142-0.099,0.364-0.423,0.506-0.565c1.114-0.06,1.317,0.364,1.904,0.953c0.142,0.1,0.304,0.222,0.445,0.32
		c0.224,0.285,0.386,0.732,0.709,0.895c0.385,0.202,1.074-0.122,1.52,0.06c0.102,0.04,0.284,0.266,0.385,0.324
		c0.385,0.222,1.013,0.447,1.398,0.566c0.506,0.162,1.317-0.1,1.784,0c0.526,0.103,1.336,0.974,2.107,0.447
		c0.324-0.123,1.276-1.156,1.398-1.461c0.182-0.442,0.162-2.876,0.061-3.319v-1.46c-0.101-0.404-0.385-1.136-0.324-1.662
		c0.202-1.397,0.263-3.281,0.627-4.84v-2.05c0.305-1.417,0.305-3.079-0.061-4.396c-0.162-0.565-0.021-1.313-0.122-1.78
		c-0.061-0.266,0.041-0.57,0.061-0.771c0.061-0.729-0.021-3.748-0.264-4.132c-0.222-0.364-1.701-0.182-2.107-0.245
		c-0.506-0.099-0.851-0.526-1.276-0.708c-0.466-0.202-0.932-0.06-1.52-0.183c-0.162-0.039-0.628-0.143-0.891-0.06
		c-0.466,0.143-0.607,0.507-1.155,0.586c-0.102-0.122-0.345-0.143-0.446-0.261c-0.203-0.246-0.203-0.63-0.385-0.895
		c-0.142-0.099-0.304-0.202-0.446-0.301c-1.398-0.023-1.843,0.87-2.734,1.334c-0.587,0.305-1.054,0.284-1.784,0.506
		c-0.567,0.162-1.255,0.507-1.843,0.692c-0.244,0.04-0.466,0.079-0.709,0.139c-1.156,0.487-2.351,1.155-3.383,1.785
		c-0.183,0.059-0.385,0.142-0.568,0.182c-0.851,0.526-2.148,1.278-3.565,1.013c-0.143-0.241-0.325-0.629-0.446-0.89
		c-0.445-0.974,0.143-1.357,0.709-1.722c0.182-0.123,0.344-0.345,0.567-0.447c1.053-0.447,2.816-0.526,3.384-1.396
		c0.323-0.507-0.021-1.014,0.121-1.461c0.122-0.363,0.73-1.155,1.013-1.337c0.649-0.424,2.493-0.123,2.613-1.013
		c-0.101-0.079-0.041-0.06-0.182-0.123C64.456,78.987,63.462,79.13,62.996,79.13 M79.307,78.117
		c-1.013,0.791-2.229,1.298-3.627,1.721c-0.628,0.183-1.256-0.079-1.276,0.709h0.121c0.426,0.284,1.399,0.226,1.905,0.062
		c1.013-0.284,3.505-1.219,3.625-2.231C79.854,78.156,79.792,78.097,79.307,78.117 M83.318,72.645c-0.263,0.791,0.263,1.582,0,2.35
		c-0.061,0.206-0.365,0.368-0.446,0.57c-0.082,0.649-0.163,1.317-0.263,1.986c0.122,0.625,0.466,1.195,0.506,1.781
		c-0.628,0.565-0.406,1.44-0.203,2.228c0.709,0.305,1.662,0.245,2.35,0.063c0.507-0.123,0.932,0.079,1.338,0
		c0.404-0.083,0.729-0.143,1.215-0.246c0.425-0.099,1.277-0.344,1.784-0.261c0.404,0.079,0.749,0.281,1.073,0.384
		c0.365,0.123,0.648-0.02,0.953,0.123c0.263,0.139,0.526,0.423,0.891,0.506c0.547,0.139,1.337-0.043,1.722-0.122h0.771
		c0.466-0.104,0.952-0.183,1.601-0.202c0.182,0,0.405-0.083,0.506-0.063c0.142,0.021,0.364,0.266,0.507,0.325
		c0.81,0.305,2.269,0.142,2.795-0.262c0.041-0.063,0.041-0.063,0.061-0.182c-0.385-0.183-1.073-0.162-1.601-0.246
		c-0.526-0.87-1.236-1.377-2.046-1.986c-0.344-0.384-0.688-0.768-1.013-1.151c-0.101-0.023-0.203-0.043-0.324-0.063
		c-0.101-0.118-0.203-0.241-0.324-0.384c-0.284-0.162-0.608-0.143-0.892-0.324c-0.243-0.162-0.526-0.403-0.83-0.507
		c-0.203-0.02-0.425-0.039-0.649-0.059c-0.101-0.044-0.283-0.226-0.385-0.246c-0.243-0.079-0.567,0.104-0.709,0.063
		c-0.121-0.043-0.223-0.324-0.385-0.388c-0.223-0.02-0.466-0.039-0.708-0.06c-0.324-0.122-0.709-0.467-1.074-0.565
		c-0.203-0.063-0.466,0.039-0.567,0.06c-0.385,0.039-0.75-0.143-1.094-0.266c-0.487-0.202-1.276-0.807-1.722-1.151
		c-0.101-0.123-0.203-0.266-0.325-0.388c-0.445-0.281-1.417-0.424-1.783-0.688C83.804,73.012,84.027,72.707,83.318,72.645
		 M82.872,59.05c-0.122,0.344-0.263,0.588-0.182,1.013c0.831,0.203,1.195,0.953,2.046,1.094c0.041-0.101,0.061-0.203,0.061-0.385
		c-0.081-0.244-0.162-0.466-0.243-0.709c-0.263-0.385-0.77-0.688-1.094-1.013H82.872z M74.585,60.083v0.263
		c0.163,0.101,0.385,0.263,0.567,0.325c0.426,0.121,0.689-0.203,0.892-0.122c0.547,0.161,1.337,0.628,1.54,1.154
		c0.203,0.506,0.163,0.932,0.445,1.337c0.224,0.182,0.426,0.344,0.649,0.507c0.142,0.223,0.02,0.547,0.122,0.831
		c0.101,0.263,0.466,0.445,0.628,0.648h0.323c0.041-0.142,0.062-0.344,0.062-0.568c-0.143-0.263,0.061-0.992,0.061-1.458
		c-0.02-1.175-0.041-2.33-0.061-3.505c0.101-0.446,0.283-1.622,0-2.047c-0.081-0.06-0.162-0.06-0.325-0.06
		c-0.324,0.466-1.013,0.607-1.479,0.952c-0.203,0.162-0.223,0.365-0.385,0.568C77.057,59.719,76.084,60.083,74.585,60.083
		 M74.14,60.083c-0.041-0.73-0.628-0.871-0.708-1.722c0.304-0.183,0.546-0.547,0.586-1.013c-1.053-0.041-1.701,0.466-2.431,0.77
		c-0.446,0.183-0.871,0.081-0.891,0.709c0.223,0.041,0.344,0.203,0.506,0.263c0.466,0.143,0.871-0.041,1.276,0.122
		C73.106,59.456,73.208,60.043,74.14,60.083 M81.677,36.561c-0.243,0.224-0.385,0.183-0.385,0.709
		c0.223,0.203,0.283,0.264,0.77,0.264c0.101-0.203,0.142-0.406,0.122-0.771c-0.061-0.061-0.021-0.02-0.061-0.122
		C82.001,36.582,81.859,36.561,81.677,36.561 M81.737,34.19h-0.324c-0.081,0.324-0.122,1.378-0.122,1.864
		c0.162,0.102,0.486,0.122,0.79,0.122c0.041-0.122,0.061-0.242,0.061-0.445C82.001,35.548,81.758,34.474,81.737,34.19
		 M25.272,30.119c-0.689,1.154-0.223,2.593,0.445,3.505c0.406,0.547,0.953,0.973,1.722,1.154h0.892
		c0.101,0.041,0.284,0.224,0.385,0.263c0.628,0.244,1.418,0.305,2.047,0.446c0.364,0.021,0.729,0.041,1.094,0.061
		c0.547,0.122,1.438,0.365,2.167,0.203c0.587-0.142,1.094-0.324,1.661-0.445v-0.264c-0.648-0.242-1.458-0.445-2.168-0.627
		c-0.486-0.042-0.972-0.081-1.459-0.122c-0.83-0.244-1.601-0.75-2.289-1.156c-0.244-0.081-0.466-0.161-0.709-0.263
		c-0.506-0.324-0.972-0.81-1.458-1.154c-0.224-0.162-0.466-0.224-0.709-0.385C26.346,30.95,26.102,30.159,25.272,30.119
		 M79.894,27.626h0.526c0.062-0.183,0.062-0.487,0.062-0.771c-0.062-0.061-0.244-0.243-0.284-0.344
		c-0.102-0.041-0.102,0.162-0.243,0.142C79.874,26.917,79.874,27.302,79.894,27.626 M29.668,20.758
		c-1.135,0.912-3.729,1.581-3.708,3.505c0.182,0.222,0.365,0.648,0.445,0.953v1.073c0.122,0.486,0.406,1.256,0.628,1.722
		c0.183,0.385,1.743,1.013,2.168,1.337c0.323,0.243,0.506,1.317,0.952,1.661c0.608,0.446,1.601,0.83,2.432,1.013
		c0.425,0.101,0.891-0.223,1.216-0.122c0.101,0.122,0.202,0.263,0.323,0.385c0.284,0.183,0.487,0.081,0.892,0.183
		c0.143,0.04,0.365,0.222,0.506,0.263c0.527,0.142,2.878-0.425,3.242-0.567c0.527-0.223,1.196-0.567,1.662-0.892
		c0.223-0.162,0.405-0.486,0.627-0.628c0.386-0.122,0.771-0.263,1.135-0.385c0.223-0.162,0.284-0.547,0.506-0.709
		c0.385-0.263,0.892-0.244,1.277-0.507c0.466-0.323,0.587-1.094,0.83-1.661c0.344-0.831,0.912-1.499,0.446-2.674
		c-0.284-0.122-0.668-0.203-0.953-0.386c-0.263-0.161-0.506-0.486-0.83-0.567c-0.506-0.142-1.074,0.122-1.398,0.182
		c-0.507,0.122-0.77-0.223-1.215-0.122c-0.265,0.061-0.588,0.305-1.013,0.183c-0.487-0.122-1.237-0.223-1.722-0.446
		c-0.163-0.081-0.406-0.263-0.628-0.325c-0.81,0.042-1.621,0.081-2.432,0.123c-0.729-0.224-1.458-0.831-2.167-1.013
		c-0.284,0.02-0.547,0.04-0.831,0.06c-0.344-0.081-0.992-0.385-1.336-0.566c-0.406-0.224-0.406-0.831-0.831-1.013
		C29.851,20.758,29.81,20.758,29.668,20.758 M34.187,20.495c-0.102,0.142-0.122,0.122-0.122,0.385c0.06,0.061,0.02,0.02,0.06,0.122
		c0.325,0.202,0.812,0.587,1.156,0.708c0.162,0.062,1.56,0.264,1.661,0.264c0.142-0.021,0.527-0.122,0.77-0.061
		c0.608,0.142,1.216,0.243,2.107,0.243c0.041-0.101,0.062-0.203,0.062-0.385h-0.062v-0.062c-0.304-0.04-0.526-0.202-0.891-0.121
		c-0.182,0.041-0.466,0.223-0.77,0.121C36.86,21.326,35.848,20.555,34.187,20.495 M38.32,17.638c-0.163,0.101-0.406,0-0.628,0.062
		c-0.263,0.06-0.568,0.344-0.77,0.385c-0.608,0.142-1.297-0.466-2.107-0.325c-0.04,0.101-0.04,0.163-0.061,0.325
		c0.587,0.142,1.175,0.486,1.722,0.648c0.648,0.182,1.175-0.062,1.783,0.122c0.406,0.122,0.912,0.425,1.276,0.567
		c0.527,0.122,1.053,0.263,1.601,0.386c0.365,0.161,0.487,0.546,0.771,0.77c0.162,0.121,0.344,0.142,0.506,0.263
		c0.973,0.709,0.851,1.074,2.674,1.094c0.081-0.162,0.122-0.224,0.122-0.506c-0.081-0.081-0.102-0.182-0.122-0.325
		c-0.203-0.122-0.385-0.324-0.567-0.445c-0.527-0.325-1.56-0.406-1.784-1.013c-0.101-0.183-0.02-0.588-0.122-0.771
		c-0.223-0.385-0.547-0.283-1.013-0.445C40.588,18.063,39.737,17.638,38.32,17.638 M79.751,8.196
		c-0.668,0.467-1.701,0.486-2.552,0.771c-0.993,0.344-2.33,0.667-3.383,0.952c-0.487,0.122-0.791,0.041-1.277,0.183
		c-0.426,0.223-0.851,0.465-1.276,0.708c-0.385,0.082-0.77,0.163-1.154,0.263c-1.013,0.427-1.317,1.723-2.229,2.291
		c-0.729,0.445-1.58,0.79-2.432,1.073c-0.182,0.021-0.385,0.041-0.567,0.062c-0.872,0.303-1.763,0.708-2.614,1.013
		c-0.506,0.182-0.891,0.162-1.398,0.324c-0.912,0.284-1.722,0.953-2.674,1.094c-0.122,0.021-0.426-0.101-0.506-0.122
		c-0.143-0.04-2.372,0-2.614,0.062c-0.203,0.041-0.527,0.203-0.709,0.263c-0.527,0.143-2.695-0.325-3.181-0.445h-2.492
		c-0.324-0.081-1.073-0.122-1.398-0.122c-0.223,0-0.587,0.142-0.891,0.06c-0.871-0.203-2.411-0.324-3.444-0.122
		c-0.041,0.122-0.062,0.244-0.062,0.446c0.122,0.081,0.143,0.243,0.263,0.325c0.386,0.263,1.135,0.404,1.399,0.77
		c0.161,0.202,0.121,0.668,0.324,0.83c0.324,0.264,0.891,0.243,1.155,0.568c0.223,0.284,0.304,0.648,0.506,0.952
		c0.202,0.284,0.526,0.506,0.77,0.771c1.377,0.02,3.262-1.196,4.336-1.662c0.404-0.182,0.667-0.122,1.154-0.263
		c1.033-0.304,2.351-0.81,3.444-1.074c1.459-0.364,2.493,0.709,3.769,0.386c0.466-0.122,2.167-0.628,2.614-0.568
		c0.77,0.102,1.52,0.224,2.228,0.385h1.906c0.466,0.102,1.033,0.062,1.539,0.062c0.122,0.02,0.243,0.041,0.385,0.061
		c0.143-0.041,0.325-0.203,0.446-0.263c0.203-0.02,0.425-0.041,0.648-0.062c0.081-0.04,0.223-0.223,0.325-0.263
		c0.445-0.162,0.81-0.061,1.216-0.263c0.041-0.02,0.141-0.162,0.182-0.182c0.182-0.061,1.601-0.224,1.723-0.183
		c0.242,0.061,0.628,0.345,0.952,0.122c0.243-0.101,0.264-0.263,0.446-0.385c0.345-0.243,0.77-0.304,1.013-0.628
		c0.162-0.223,0.162-0.486,0.325-0.708c0.425-0.628,1.255-0.912,1.52-1.722c0.02-0.324,0.04-0.649,0.06-0.953
		c-0.021-0.061-0.182-0.203-0.203-0.263c-0.081-0.344,0.243-0.446,0.324-0.628c0.263-0.77-0.263-1.742,0.77-1.783
		c0.223,0.141,1.459,0.122,1.722,0.182c0.385,0.608,0.892,1.034,1.094,1.844c0.182,0.709-0.304,1.255-0.446,1.783
		c-0.203,0.729-0.02,1.418,0.062,1.966c0.041,0.304-0.122,0.668-0.062,1.013c0.062,0.02,0.122,0.04,0.183,0.061
		c0.263,0.162,0.586-0.081,0.83-0.122c0.446-0.101,0.891,0.324,1.398,0.122c0.102-0.041,0.932-0.669,1.013-0.77
		c0.325,0.06,0.608-0.041,0.892,0.06c0.689,0.244,1.621,0.688,2.29,0.892c0.749,0.224,1.398-0.426,2.107-0.324
		c0.851,0.142,1.762-0.102,2.614-0.324h0.892c0.891-0.203,1.864-0.325,2.937-0.446c0.162-0.223,0.446-0.385,0.568-0.628
		c0.162-0.364,0.142-0.729,0.385-1.013c0.101-0.061,0.203-0.121,0.325-0.182c0.101-0.162,0.02-0.364,0.121-0.506
		c0.143-0.203,0.324-0.061,0.568-0.182c0.101-0.143,0.223-0.304,0.324-0.446c0.061-0.668-0.081-1.843-0.649-2.046
		c-0.344-0.223-1.195,0.02-1.52,0.122c-0.466,0.142-0.81,0.344-1.216,0.507c-0.567,0.223-1.195,0.283-1.783,0.445
		c-0.304,0.082-0.872,0.325-1.276,0.203c-0.344-0.101-0.77-0.344-1.155-0.446c-0.446-0.101-0.872,0.062-1.216,0
		c-0.649-0.121-1.479-0.323-1.965-0.648c-0.709-0.445-1.114-1.236-1.601-1.904c-0.081-0.061-0.162-0.122-0.243-0.182
		c-0.161-0.284-0.161-0.608-0.445-0.77c-0.607-0.345-1.56-0.021-2.351-0.183c-0.283-0.061-0.729-0.203-1.073-0.122
		c-0.122,0.041-0.466,0.122-0.709,0.061C80.664,8.237,80.238,8.196,79.751,8.196 M24.623,36.237
		c-0.284-0.163-0.668-0.649-0.77-0.953V34.13c-0.122-0.547-0.304-1.256-0.446-1.784c-0.121-0.485-0.041-1.093-0.121-1.52
		c-0.081-0.425,0.202-1.013,0.061-1.539c-0.163-0.628-0.081-0.912,0.06-1.458c0.122-0.486-0.121-1.054-0.06-1.398v-1.843
		c0.06-0.284,0.203-0.669,0.263-0.891c0.162-0.608-0.061-1.216,0.122-1.723c0.304-0.81,1.074-1.094,1.54-1.722
		c0.607-0.831,1.418-1.5,2.29-2.026c0.243-0.142,0.547-0.163,0.77-0.325c0.263-0.182,0.446-0.506,0.709-0.708
		c0.648-0.486,1.297-0.953,1.844-1.54c0.729,0,1.985,0.425,2.552,0.324c0.466-0.102,1.094-0.041,1.52-0.183
		c0.284-0.101,0.648-0.344,0.953-0.445c0.324-0.021,0.627-0.041,0.952-0.062c0.203-0.06,0.527-0.202,0.77-0.263
		c0.791-0.182,1.418,0.304,2.107,0.122c0.264-0.061,0.709-0.041,1.013-0.122c0.527-0.141,1.398-0.547,2.168-0.385
		c0.344,0.081,0.973-0.041,1.398,0.061c1.154,0.264,2.451,0.203,3.708,0.386c0.708,0.101,1.803-0.183,2.492-0.062
		c0.506,0.081,1.316-0.06,1.904,0.062c1.276,0.263,3.14,0.182,4.274-0.062c0.689-0.162,1.236,0.163,1.966,0
		c1.073-0.243,2.452-0.304,3.627-0.709c0.526-0.182,1.052-0.567,1.539-0.77c0.811-0.323,1.661-0.425,2.351-0.891
		c0.445-0.304,0.648-0.912,1.073-1.216c0.244-0.162,0.487-0.223,0.709-0.385c0.244-0.182,0.406-0.547,0.709-0.709
		c0.101-0.02,0.203-0.041,0.323-0.06c0.122-0.082,0.143-0.284,0.264-0.385c0.161-0.142,1.033-0.729,1.215-0.831
		c0.709-0.385,1.622-0.405,2.432-0.709c0.567-0.202,1.155-0.648,1.722-0.831c0.648-0.202,1.216-0.061,1.905-0.263
		c0.405-0.101,0.81-0.425,1.154-0.567c0.547-0.243,1.054-0.102,1.722-0.263c0.608-0.142,1.581-0.466,2.492-0.264
		c0.851,0.183,1.581,0.325,2.432,0.507c0.952,0.224,1.924,0,2.552,0.506c0.062,0.162,0.122,0.344,0.183,0.506
		c0.101,0.081,0.202,0.163,0.323,0.244c0.385,0.547,0.547,1.276,1.013,1.722c0.203,0.182,1.844,0.669,2.229,0.77h0.891
		c0.325,0.122,0.568,0.527,0.953,0.628c0.811,0.223,1.945-0.567,2.35-0.831c0.446-0.283,1.034-0.344,1.479-0.627
		c0.224-0.162,0.284-0.405,0.446-0.649c0.526-0.75,1.621-1.114,2.795-0.831c0.365,0.548,0.69,0.994,0.709,1.906
		c0.263,0.162,0.628,0.344,0.892,0.506c-0.041,0.121-0.02,0.061-0.061,0.121c-0.162,0.386-0.669,0.467-0.831,0.893
		c-0.203,0.526,0.284,1.013,0.061,1.661c-0.061,0.182-0.324,0.344-0.385,0.567c-0.163,0.547,0.243,0.953,0.203,1.277
		c-0.061,0.405-0.385,0.709-0.385,1.336c0.628-0.02,0.872-0.202,1.337-0.323c0.526-0.021,1.054-0.041,1.601-0.062
		c0.243-0.061,0.506-0.304,0.83-0.263c0.305,0.041,1.438,0.365,1.662,0.506c0.141,0.101,0.263,0.304,0.445,0.385
		c0.304,0.062,0.628,0.122,0.953,0.182c0.648,0.264,1.256,0.791,1.843,1.156c0.933,0.567,2.229,0.547,2.735,1.539
		c0.689,1.318,0.446,2.735,0.831,4.336v0.77c0.284,1.256,0.669,2.492,0.953,3.626c0.101,0.446,0.161,1.135,0.182,1.541v1.013
		c0.101,0.364,0.263,1.336,0.182,1.783c-0.02,0.142-0.122,0.507-0.06,0.77c0.041,0.182,0.122,0.628,0.06,0.892
		c-0.081,0.365-0.284,0.709-0.385,1.094c-0.02,0.425-0.041,0.851-0.06,1.276c-0.244,0.892-0.932,2.128-0.649,3.445
		c0.487,2.107,0.284,4.599,0.77,6.747v1.276c0,0.872,0.041,1.682,0.183,2.289v1.398c0.141,0.689,0.081,1.743,0.182,2.493
		c-0.284,0.729-0.385,1.903-0.385,2.795v1.52c-0.325,1.52-0.426,4.417-0.061,6.058c-0.021,1.438-0.041,2.897-0.062,4.338
		c0.344,1.599,0.466,3.403,0.831,5.021c0.223,0.974-0.081,2.252,0.122,3.182c0.041,0.245-0.041,0.57-0.061,0.708
		c-0.122,0.551,0.143,0.954,0.061,1.461c-0.061,0.363-0.203,0.953-0.122,1.396c0.081,0.447,0.162,1.076,0.263,1.539
		c-0.02,0.428-0.041,0.851-0.06,1.278c0.283,1.072,0.445,2.513,0.202,3.625c-0.121,0.589,0.061,1.46,0,1.867
		c0.061,1.033,0.122,2.086,0.183,3.118c-0.021,0.325-0.041,0.649-0.062,0.954c0.081,0.423,0.284,1.175,0.122,1.722
		c-0.182,0.728-0.122,1.642,0.062,2.409v0.891c0.081,0.305,0.304,0.669,0.385,1.013v1.583c0.304,1.357-0.203,3.059,0.122,4.599
		v0.688c0.324,1.46,0.466,2.572,0.445,4.092c0,0.629,0,1.356-0.122,1.784c-0.02,0.345-0.041,0.708-0.061,1.092
		c-0.143,0.389-0.993,0.914-1.276,1.461c-0.224,0.467-0.143,1.032-0.386,1.479c-0.202,0.384-0.667,0.688-0.83,1.072
		c-0.041,0.222-0.082,0.467-0.122,0.688c-0.162,0.266-0.547,0.364-0.77,0.57c-0.143,0.139-0.224,0.384-0.385,0.506
		c-0.446,0.345-0.893,0.605-1.337,0.95c-0.547,0.407-0.912,1.136-1.541,1.46c-0.283,0.06-0.547,0.143-0.83,0.202
		c-0.425,0.162-0.81,0.467-1.216,0.629c-0.365,0.162-0.688,0.183-1.013,0.384c-0.122,0.143-0.263,0.305-0.385,0.447
		c-0.628,0.424-1.357,0.625-2.107,0.95c-0.344,0.142-0.628,0.407-1.074,0.506h-0.952c-1.601,0.364-3.546-0.06-5.288,0.324
		c-0.628,0.021-1.277,0.04-1.906,0.063c-0.101-0.023-0.425-0.122-0.627-0.063c-0.062,0.021-0.244,0.163-0.325,0.183
		c-0.587,0.02-1.195,0.043-1.783,0.063c-1.763,0.403-3.505,0.423-5.289,0.648c-0.223,0.021-0.932-0.083-1.154-0.143
		c-0.244-0.043-0.607,0.04-0.77,0.06c-0.143,0.04-1.317-0.103-1.398-0.122c-0.75-0.143-1.723,0.162-2.351,0.062
		c-0.385-0.062-0.851-0.305-1.398-0.182c-1.438,0.301-3.89,0.546-5.409,0.324c-0.811,0.04-1.622,0.079-2.432,0.119
		c-0.466-0.099-1.033-0.222-1.398-0.324c-0.325-0.079-1.418,0.162-1.844,0.122c-0.466-0.039-1.094-0.222-1.52-0.305
		c-0.566-0.143-1.357-0.02-1.783-0.143H62.47c-0.304-0.06-0.993-0.241-1.276-0.201c-0.102,0.02-0.365,0.182-0.446,0.201
		c-0.223,0.044-0.75-0.139-1.073-0.06c-0.568,0.123-1.541,0.084-2.229-0.059c-0.587-0.123-1.357,0.039-1.844-0.063
		c-0.811-0.162-1.317,0.305-2.107,0.143c-0.344-0.079-0.79,0.083-1.154,0c-0.77-0.143-2.168-0.143-2.938,0
		c-0.607,0.122-1.073-0.345-1.782-0.183c-1.317,0.285-2.816-0.079-4.275,0.246c-0.385-0.024-0.771-0.044-1.155-0.063
		c-1.823,0.407-4.052,0.222-5.855,0.59c-0.587,0.099-1.418-0.226-2.107-0.084c-0.932,0.202-2.128,0.183-2.938,0
		c-0.182-0.039-0.344,0.063-0.445,0.084c-0.527,0.079-1.175-0.044-1.52-0.143h-1.399c-1.114-0.285-2.795-0.468-4.011-0.183
		c-0.587,0.119-1.54-0.122-1.986,0c-0.304,0.079-0.385,0.526-0.83,0.443c-0.365-0.06-0.872-0.281-1.216-0.384h-0.872
		c-0.426-0.099-1.216-0.222-1.601-0.324c-0.445,0.02-0.891,0.039-1.336,0.063c-0.912-0.246-2.29-0.163-3.181-0.389H11.94
		c-0.912-0.241-1.763-1.052-2.553-1.539c-0.466-0.285-1.013-0.241-1.52-0.506c-0.404-0.202-0.77-0.586-1.154-0.831
		c-0.385-0.242-0.831-0.281-1.216-0.507c-0.304-0.182-0.304-0.424-0.506-0.708c-0.142-0.202-0.567-0.242-0.709-0.447
		c-0.02-0.119-0.041-0.262-0.061-0.384c-0.122-0.262-0.385-0.507-0.506-0.768c-0.162-0.345-0.102-0.693-0.243-1.077
		c-0.263-0.688-0.588-1.436-0.77-2.287c-0.122-0.55,0.284-1.115,0.122-1.784c-0.183-0.831-0.122-2.026-0.324-2.877
		c-0.02-0.93-0.041-1.864-0.061-2.798c-0.183-0.827-0.041-1.82-0.183-2.489v-1.215c-0.101-0.446,0.021-0.973-0.122-1.582
		c-0.364-1.54-0.526-3.384-0.648-5.105c-0.02-0.182,0.081-0.708,0.122-0.89v-1.54c0.142-0.692,0.101-1.642,0.244-2.291v-0.953
		c0.122-0.546,0.202-1.702,0.06-2.351c-0.425-1.924,0.082-4.028-0.385-5.936c-0.141-0.586,0.041-1.397-0.06-1.903
		c0.02-0.609,0.041-1.235,0.06-1.845c-0.263-1.194-0.162-2.773-0.446-4.012v-0.891c-0.121-0.546-0.101-1.234-0.243-1.844
		c-0.527-2.026-0.972-5.269-0.568-7.963c0.183-1.297-0.506-2.27-0.182-3.627c0.163-0.688,0.082-1.539,0.263-2.289
		c0.203-0.872,0.426-1.804,0.628-2.674v-1.459C1.263,53.904,1,52.202,1.304,50.845c0.101-0.446-0.102-2.229-0.183-2.674
		c0.021-0.669,0.041-1.358,0.061-2.047c-0.041-1.276-0.061-2.796-0.324-3.951c-0.223-0.973,0.021-2.35,0.182-3.119
		c0.021-0.467,0.041-0.933,0.061-1.399c0.304-1.154,0.365-2.755,0.648-3.89c0.041-0.75,0.081-1.479,0.122-2.229
		c-0.02-0.161-0.041-0.344-0.06-0.506c0.304-1.56,0.323-3.221,0.323-4.963c-0.02-0.993-0.041-2.006-0.06-2.999
		c0.141-0.608,0.203-1.317,0.324-1.844v-0.77c0.385-1.56,0.628-3.039,1.013-4.66c0.161-0.607,0.041-1.114,0.242-1.803
		c0.041-0.143,0.224-0.365,0.264-0.506v-0.568c0.061-0.162,0.364-0.325,0.445-0.506v-0.445c0.143-0.446,0.365-0.872,0.568-1.216
		c0.242-0.365,0.122-0.973,0.567-1.155c0.122,0.162,0.142-0.042,0.446-0.021c0.041-0.122,0.06-0.041,0.06-0.223
		C5.842,9.25,5.801,9.25,5.741,9.027C5.903,8.865,5.944,8.582,6.125,8.46c0.466-0.163,0.912-0.304,1.357-0.466
		c0.223-0.142,0.344-0.405,0.506-0.628c0.163-0.203,0.365-0.223,0.568-0.385C8.962,6.697,9.246,6.191,9.65,5.907
		c0.203-0.141,0.446-0.122,0.709-0.263c0.487-0.243,1.074-0.649,1.54-0.891h0.324c0.587-0.406,1.155-1.074,1.844-1.337
		c0.142-0.02,0.325-0.041,0.487-0.061c0.223-0.081,0.466-0.305,0.708-0.386c0.243-0.02,0.466-0.04,0.709-0.061
		c1.175-0.385,2.553-0.911,3.769-1.276c0.667-0.203,1.559-0.041,2.167-0.325c0.162,0.021,0.243,0.203,0.506,0.122
		c0.122-0.041,0.405-0.223,0.507-0.263c1.216-0.021,2.411-0.041,3.626-0.062c0.932-0.182,3.606-0.061,4.781,0.203
		c0.284,0.062,0.587-0.081,0.77-0.06c1.156,0.122,2.594,0.263,3.688,0.506h1.215c1.48,0.325,3.506,0,4.964,0.325
		c0.365,0.08,0.953,0,1.216-0.062c0.972-0.223,2.026,0.062,2.937-0.122c0.628-0.142,1.297,0.081,1.784,0
		c1.175-0.223,2.937-0.162,4.133-0.446c0.851,0.021,1.702,0.042,2.552,0.062c0.568-0.122,1.054,0.081,1.722-0.062
		c0.831-0.182,2.512-0.182,3.242-0.061c0.526,0.082,1.417-0.222,1.843-0.323c0.446-0.102,0.953,0,1.277,0
		c1.033,0.02,1.985,0,2.796-0.183h1.073c0.405-0.101,1.135-0.162,1.52-0.263h0.891c0.771-0.183,1.722-0.344,2.432-0.506h1.337
		c0.263-0.061,0.992-0.183,1.337-0.061c0.162,0.061,0.365,0.263,0.506,0.324c0.345,0.122,0.993,0.06,1.337,0.122
		c0.547-0.02,1.094-0.041,1.661-0.062c0.547,0.123,1.884,0.264,2.371,0.183c0.648-0.102,1.418-0.284,2.046-0.122h2.229
		c1.763,0.385,3.626,0.081,5.288,0.062c0.81,0,1.742,0.02,2.492,0.182c0.385,0.082,0.871-0.102,1.134-0.061
		c0.689,0.081,1.56,0.183,2.107,0.324c1.135-0.101,2.249-0.223,3.383-0.324c0.568,0.143,1.357,0.183,1.985,0.386
		c0.385,0.121,0.811,0.405,1.216,0.506c0.588,0.142,1.033,0.04,1.52,0.243c0.304,0.122,0.648,0.446,0.953,0.568
		c0.567,0.242,1.054,0.222,1.661,0.445c0.304,0.102,1.054,0.608,1.337,0.831c0.507,0.385,0.79,1.054,1.155,1.601
		c0.101,0.081,0.203,0.163,0.324,0.243c0.182,0.284,0.061,0.587,0.182,0.953c0.081,0.203,0.304,0.405,0.385,0.628
		c0.041,0.628,0.081,1.276,0.122,1.904c0.304,0.163,0.973,0.507,1.094,0.831c0.304,0.973-0.791,1.54-1.013,1.965
		c-0.102,0.162,0.02,0.365-0.122,0.446H108.4c-0.122-0.02-0.203-0.041-0.345-0.081c-0.142-0.385-0.547-0.507-0.709-0.892
		c-0.061-0.425-0.122-0.851-0.203-1.276c-0.081-0.244-0.304-0.527-0.385-0.831c-0.141-0.547,0.122-0.953-0.06-1.459
		c-0.041-0.101-0.203-0.283-0.264-0.385c-0.02-0.142-0.041-0.304-0.061-0.445c-0.101-0.162-0.385-0.284-0.506-0.446
		c-0.162-0.223-0.223-0.466-0.446-0.628c-0.486-0.364-0.952-0.567-1.479-0.891c-0.161-0.101-0.323-0.364-0.506-0.445
		c-0.081-0.041-0.627-0.143-0.627,0c-0.183-0.224-0.142-0.344-0.446-0.446c-0.507-0.06-1.013-0.122-1.541-0.182
		c-0.364-0.102-0.83-0.345-1.215-0.446h-1.135c-0.953-0.203-2.168-0.223-3.12-0.445c-0.81-0.183-2.047,0.02-2.674,0.121
		c-0.325,0.062-1.216-0.06-1.52-0.121c-0.507-0.122-1.216,0.04-1.662-0.062c-0.466-0.101-1.297-0.02-1.661,0.062
		c-0.791,0.182-1.337-0.243-2.107-0.122c-0.588,0.081-1.5-0.081-2.167,0.06c-0.102,0.021-0.365,0.101-0.568,0.062
		c-0.892-0.203-2.026-0.041-2.999-0.264c-0.75-0.161-1.52-0.344-2.229-0.506c-0.83-0.203-2.086,0.264-2.735,0.385
		c-0.263-0.02-0.506-0.04-0.77-0.061c-0.364,0.061-0.973,0.081-1.317,0.163c-0.385,0.081-0.993-0.021-1.276-0.061
		c-1.156-0.183-2.635-0.042-3.566,0.182c-1.58-0.021-3.181-0.041-4.781-0.062c-0.912,0.224-2.067,0.344-3.059,0.568h-1.459
		c-1.154,0-2.33,0.02-3.323,0c-0.283-0.021-0.547-0.041-0.83-0.062c-0.791,0.163-1.743-0.06-2.614,0.122
		c-0.649,0.141-1.804,0.385-2.614,0.183c-0.446-0.102-1.155-0.183-1.784-0.122c-1.033,0.122-2.39,0.263-3.768,0.283
		c-0.244,0.021-0.506,0.041-0.77,0.061c-0.607-0.122-1.419,0.061-2.229-0.061c-0.122-0.02-0.304-0.101-0.506-0.061
		c-0.244,0.041-0.75,0.122-1.013,0.182h-0.77c-0.122,0.041-0.223,0.263-0.325,0.324c-0.243,0.122-0.972,0.041-1.154,0.061
		c-0.163,0.021-0.487-0.101-0.628-0.122c-0.709-0.161-1.539-0.04-2.167-0.202c-0.771,0.02-1.54,0.041-2.29,0.06
		c-0.425-0.101-1.013-0.06-1.52-0.182c-0.526-0.141-1.215-0.425-1.721-0.587h-0.507c-1.277-0.284-2.432-0.223-3.566,0.06
		c-0.891,0.224-1.904,0.122-2.735,0.325c-0.566,0.02-1.154,0.041-1.721,0.062c-0.506,0.141-1.196,0.202-1.743,0.384
		c-0.364,0.142-0.75,0.487-1.154,0.649c-0.81,0.324-1.823,0.324-2.614,0.628c-0.688,0.284-1.378,0.872-2.026,1.216
		c-0.203,0.04-0.385,0.081-0.567,0.121c-0.244,0.122-0.426,0.446-0.649,0.588c-0.304,0.183-0.669,0.183-0.952,0.386
		c-0.507,0.324-1.925,1.398-2.229,1.843C8.192,9.595,8.192,9.817,8.071,9.98c-0.406,0.526-1.054,0.911-1.398,1.458
		c-0.182,0.284-0.446,0.75-0.527,1.034c-0.121,0.344,0.183,0.648,0.122,0.83c-0.02,0.102-0.323,0.284-0.385,0.446
		c-0.263,0.831,0.102,1.783-0.122,2.614c-0.162,0.628-0.344,1.479-0.507,2.086v0.709c-0.041,0.101-0.222,0.284-0.263,0.385
		c-0.041,0.385-0.082,0.771-0.122,1.155c-0.162,0.568-0.425,1.074-0.567,1.722c-0.183,0.75,0.304,0.953,0.445,1.337
		c0.183,0.527-0.223,1.073-0.323,1.398c-0.224,0.791-0.021,2.127-0.122,2.796v0.892c-0.041,0.161-0.203,0.405-0.243,0.567
		c-0.243,0.872-0.061,1.885-0.263,2.735c-0.021,0.729-0.041,1.438-0.062,2.167c-0.202,0.912-0.222,2.086-0.122,2.999
		c0.021,0.122-0.101,0.304-0.121,0.385v1.013c-0.143,0.446-0.487,1.196-0.345,1.803c0.243,1.054-0.121,2.371,0.122,3.565
		c0.143,0.669,0,1.581,0,2.493c0,0.364,0.081,0.891,0.062,1.134c-0.102,0.973-0.122,2.209-0.325,3
		c0.021,0.364,0.041,0.729,0.061,1.093c-0.061,0.649-0.101,1.419-0.263,2.107c0.021,0.365,0.041,0.729,0.062,1.094
		c0,0.689-0.041,1.621-0.183,2.229v1.661c-0.162,0.649-0.02,1.682-0.182,2.411c-0.385,1.743-0.486,4.701,0,6.626
		c0.223,0.853,0.061,1.886,0.263,2.674v1.4c0.365,1.357,0.224,3.138,0.568,4.515c-0.021,0.447-0.041,0.895-0.062,1.338
		c0.062,0.791,0.081,1.884-0.06,2.615c0.02,0.325,0.041,0.63,0.06,0.95c-0.182,0.812-0.041,3.546,0.183,4.46
		c0.182,0.728,0,1.721,0.121,2.287v1.096c0.162,0.748,0.102,1.924-0.06,2.612c-0.122,0.506-0.02,1.44,0.06,1.844
		c0.122,0.507-0.08,1.46-0.182,1.844c-0.101,0.407,0.143,0.974,0.062,1.278c-0.041,0.02-0.081,0.039-0.122,0.06
		c-0.183,0.546,0.081,1.377,0.122,1.784c-0.021,0.424-0.041,0.851-0.062,1.274c0.163,0.708,0.122,1.884,0.325,2.734
		c0.041,0.206-0.041,0.407-0.062,0.507c0.021,0.811,0.041,1.622,0.062,2.434c0.203,0.851,0.162,1.923,0.385,2.877v1.155
		c0.142,0.506,0.061,1.357,0.243,1.903c0.122,0.384,0.345,0.89,0.445,1.357c-0.02,0.284-0.041,0.589-0.06,0.89
		c0.344,1.401,0.81,2.778,1.397,3.891c0.082,0.245,0.163,0.506,0.263,0.771c0.143,0.222,1.196,1.273,1.398,1.396
		c0.264,0.162,0.527,0.103,0.831,0.266c1.154,0.565,2.351,1.356,3.626,1.863c0.385,0.06,0.77,0.123,1.155,0.183
		c0.891,0.261,1.945,0.546,2.938,0.768c0.526,0.122,0.932-0.139,1.337-0.119c0.567,0,1.499,0.182,1.986,0.324
		c0.466-0.02,0.932-0.043,1.397-0.063c0.405,0.084,0.871,0.226,1.276,0.305c0.182,0.04,0.425-0.039,0.506-0.059
		c0.142-0.021,1.094,0.079,1.338,0.118c0.851,0.187,1.843,0.325,2.674,0.206c0.243-0.044,0.446,0.281,0.891,0.182
		c0.365-0.083,1.013,0,1.276,0.06c1.094-0.039,2.209-0.079,3.323-0.122c0.446-0.079,1.235,0.162,1.904,0
		c0.77-0.163,1.56-0.443,2.289-0.626c0.547-0.143,1.378,0,1.844-0.063c0.203,0.044,0.426,0.084,0.628,0.123
		c0.75,0.079,1.601,0.079,2.107-0.06c0.588-0.162,1.438,0.06,1.986-0.063c1.398-0.324,2.37,0.551,3.626,0.246
		c0.831-0.202,2.127-0.104,3.059-0.325h0.649c0.203-0.062,0.547-0.226,0.77-0.265c0.122,0.02,0.263,0.039,0.385,0.063
		c0.75-0.024,1.479-0.044,2.229-0.063c0.952-0.202,2.351-0.162,3.323,0.063c0.708,0.162,1.762,0,2.228-0.063
		c0.162-0.02,0.608,0.143,0.892,0.063c0.121-0.044,0.283-0.245,0.507-0.183c0.101,0.021,0.323,0.222,0.445,0.262
		c0.303,0.02,0.587,0.039,0.891,0.06c0.203,0.083,0.466,0.324,0.689,0.388c0.242,0.059,0.283-0.104,0.385-0.123
		c0.061-0.02,1.803,0.079,1.986,0.123c2.349,0.546,6.017,0.384,8.408,0.059c0.223-0.02,0.688,0.104,1.013,0.06
		c1.276-0.118,2.634,0.083,3.687-0.118c0.649-0.123,1.419,0.079,1.844,0.182c0.526,0.143,1.58,0,2.289,0
		c1.013,0,1.844-0.143,2.735-0.123c1.114,0.04,2.634,0.123,3.565-0.122c0.143-0.04,1.743-0.02,1.844,0
		c0.203,0.063,0.506,0.226,0.831,0.122c0.485-0.122,1.154-0.384,1.661-0.506h1.156c0.121-0.02,0.242-0.104,0.323-0.143
		c0.162-0.04,1.074,0.143,1.276,0.202c0.608,0.142,1.216-0.1,1.601-0.202c0.324,0.02,0.628,0.039,0.953,0.063
		c0.425-0.104,1.073-0.266,1.52-0.388h0.709c0.364-0.1,0.77-0.404,1.073-0.507c0.243,0.02,0.466,0.044,0.709,0.083
		c0.081-0.02,0.203-0.182,0.243-0.202c0.182-0.023,0.344-0.043,0.506-0.062c0.405-0.143,0.83-0.566,1.216-0.768
		c0.668-0.368,1.479-0.487,2.106-0.895c0.365-0.241,0.628-0.688,1.013-0.891c0.446-0.241,0.872-0.324,1.277-0.629
		c0.02-0.06,0.041-0.119,0.061-0.183c0.182-0.241,0.466-0.384,0.709-0.565c0.081-0.06,0.101-0.241,0.182-0.324
		c0.203-0.183,0.73-0.424,0.891-0.63c0.203-0.261,0.265-0.688,0.507-0.89c0.203-0.162,0.568-0.222,0.709-0.447
		c0.122-0.222,0.041-0.507,0.182-0.688c0.082-0.1,0.305-0.143,0.386-0.241c0.161-0.246,0.263-0.772,0.323-1.033v-1.076
		c0.081-0.364,0.183-0.688,0.203-1.151v-1.014c0.487-1.642,0.466-4.194,0.061-5.797v-0.831c-0.161-0.708-0.142-1.599-0.324-2.351
		c0.02-0.241,0.041-0.463,0.061-0.708c-0.122-0.812-0.162-1.943-0.323-2.734c-0.082-0.467,0.141-0.993,0-1.52
		c-0.082-0.285-0.203-0.771-0.265-1.155c-0.04-0.262,0.062-0.91,0-1.215v-1.215c-0.122-0.507-0.304-1.239-0.182-1.845
		c0.101-0.506-0.101-1.377-0.203-1.986c-0.041-0.241,0.143-0.791,0.062-1.136c-0.143-0.669,0.081-1.437-0.062-2.104
		c0-0.04-0.122-0.325-0.122-0.385c-0.02-0.589,0.143-1.42,0.244-1.907c0.041-0.182-0.061-0.384-0.061-0.442
		c-0.062-0.266,0.081-0.526,0.122-0.713c0.04-0.201-0.041-0.526-0.061-0.625c-0.101-0.388,0.061-1.56,0.122-1.907
		c0.041-0.158-0.041-0.32-0.061-0.384v-1.274c-0.061-0.285-0.224-0.895-0.203-1.219c0.061-0.645-0.081-1.215,0-2.046
		c0.041-0.344,0.081-0.87,0-1.215c-0.122-0.526,0.101-1.053,0-1.46c-0.162-0.708,0.02-1.658-0.122-2.228v-1.275
		c-0.062-0.224-0.163-0.65-0.182-0.893c0.02-0.122,0.041-0.263,0.061-0.385c-0.082-0.445-0.244-0.872-0.325-1.337
		c-0.061-0.385,0.122-0.952,0-1.458c-0.122-0.568-0.122-1.357-0.263-1.985c0.021-0.344,0.041-0.669,0.061-1.013
		c-0.02-0.304-0.101-0.668,0-1.013c0.041-0.122,0.224-0.304,0.264-0.385c0.303-0.771-0.385-1.622-0.264-2.291
		c0.183-0.972,0.649-2.999,0.386-4.132c-0.386-1.743,0-3.77-0.386-5.411c-0.202-0.83,0.345-1.479,0.122-2.35
		c-0.243-0.972-0.486-1.945-0.708-2.938c-0.143-0.688,0.364-1.56,0.242-2.167c-0.101-0.547-0.141-1.135-0.323-1.722
		c-0.062-0.203-0.284-0.487-0.324-0.709c0.02-0.203,0.041-0.425,0.06-0.628c-0.02-0.304-0.223-0.648-0.121-1.094
		c0.101-0.405,0.182-0.75,0.182-1.276c1.539-1.054,1.904-3.383,1.216-5.672v-0.771c-0.143-0.567-0.244-1.377-0.385-1.985v-1.013
		c-0.163-0.668-0.406-1.377-0.568-2.045c-0.304-1.094-0.263-2.188-0.831-2.999c-0.243-0.365-1.357-1.338-1.783-1.459
		c-0.304-0.101-0.547,0.183-0.831,0c-0.04-0.081-0.08-0.182-0.121-0.263c-0.183-0.182-0.669-0.547-0.893-0.628
		c-0.223-0.142-0.485-0.061-0.789-0.163c-1.601-0.526-3.222-0.932-5.167-0.506c-0.871,0.203-1.823-0.101-2.553,0.203
		c-0.729,0.304-1.397,0.851-1.904,1.398c-0.446-0.02-0.891-0.284-1.398-0.122c-0.385,0.102-0.993,0.506-1.52,0.446
		c-0.183-0.021-0.385-0.203-0.506-0.263c-0.365-0.162-2.451-0.689-2.938-0.568c-0.406,0.102-0.77,0-1.216,0.122
		c-0.405,0.122-1.013,0.284-1.52,0.385c-0.344,0.081-0.486-0.122-0.83-0.122c-0.345,0-0.608,0.102-1.013,0
		c-0.386-0.081-0.811-0.182-1.074-0.385c-0.325-0.223-0.203-0.526-0.77-0.567c-0.163,0.101-0.568,0.061-0.831,0.061
		c-0.182,0.284-0.607,0.729-0.324,1.277c0.223,0.405,0.688,0.811,0.892,1.276c0.263,0.607,0.141,1.316,0.323,2.026
		c0.062,0.244,0.224,0.627,0.244,0.892c0.061,0.425-0.284,1.073-0.385,1.458c-0.122,0.568,0.162,1.743,0.324,2.107
		c0.242,0.102,0.77,0.203,0.892,0.446c0.02,0.182,0.041,0.385,0.06,0.567c0.224,0.406,1.175,0.831,1.662,0.953
		c0.911,0.244,1.823-0.405,2.167,0.445c0.304,0.344,0.162,1.013,0.122,1.54c-1.175,0.77-1.763,0.324-2.795-0.122
		c-0.466-0.203-0.932-0.101-1.399-0.263c-0.507-0.162-0.83-0.425-1.458-0.324v0.122c-0.568,0.891,0.628,1.417,0.77,1.844
		c0.162,0.506-0.163,0.851,0,1.397c0.122,0.445,0.486,0.973,0.628,1.398c0.162,0.466,0.041,1.317,0.061,1.904
		c0.284,0.182,0.568,0.325,0.892,0.507c0.263,0.304,0.507,0.587,0.77,0.891c0.345,0.243,0.689,0.385,1.013,0.628
		c0.344,0.284,0.669,0.81,1.155,0.952c0.304-0.02,0.587-0.04,0.891-0.061c0.385,0.122,0.628,0.425,1.155,0.325
		c0.871-0.183,2.471,0.304,2.796-0.507c0.142-0.223,0.203-0.831,0.263-1.074c0.649-0.304,1.54-0.749,2.351-0.83
		c0.648,0.669,2.046,1.195,2.107,2.411c-0.466,0.668-0.608,1.864-1.662,1.904c-0.162-0.122-0.486-0.163-0.708-0.203
		c-0.487,0.507-1.013,0.973-1.52,1.459c-0.568,0-1.318-0.021-1.722-0.263c-0.223-0.143-0.426-0.426-0.709-0.506
		c-0.791-0.264-1.378,0.566-1.966,0.627c-0.041,0-1.762-0.506-1.985-0.567c-0.405-0.142-0.851-0.587-1.276-0.77
		c-0.385-0.102-0.77-0.203-1.154-0.325c-0.344-0.223-0.365-0.628-0.892-0.709c-0.061,0.061-0.021,0.021-0.122,0.061
		c-0.243,0.466-0.506,0.932-0.649,1.54v1.013c-0.06,0.182-0.263,0.406-0.323,0.568c-0.203,0.588-0.183,1.296-0.325,1.843
		c0.021,0.385,0.041,0.771,0.062,1.154c-0.102,0.507-0.386,2.291-0.183,2.878c0.041,0.142,0.243,0.203,0.324,0.324
		c0.284,0.446,0.405,0.892,0.709,1.277c0.202,0.263,0.588,0.324,0.708,0.709c0.162,0.486-0.162,1.134-0.061,1.661
		c0.223,0.101,0.588,0.162,0.831,0.323c0.445,0.284,0.77,0.852,1.216,1.135c0.385,0.264,0.851,0.243,1.336,0.446
		c0.284,0.122,0.709,0.425,1.013,0.506c0.527,0.162,1.884-0.365,2.229-0.506c1.52-0.628,3.485-1.398,5.288-0.953
		c0.224,0.426,0.487,0.649,0.506,1.337c-0.101,0.182-0.203,0.344-0.323,0.506c-0.547,0.385-1.318,0.425-1.399,1.276
		c0.183,0.061,0.487,0.061,0.771,0.061c0.344,0.203,0.688-0.061,0.891-0.122c0.426-0.143,0.831,0.02,1.074,0.061
		c0.224,0.568,0.932,0.425,0.953,1.155c-0.062,0.08-0.041,0.101-0.062,0.263c-0.323,0.203-0.567,0.547-0.83,0.83
		c-0.527,0-0.851,0.102-1.216,0.183c-0.365,0.081-0.972-0.061-1.276-0.122c-1.175-0.263-2.635,0.02-3.627-0.182
		c-0.851-0.162-2.168,0.101-2.351,0.627c-0.06,0.081-0.06,0.102-0.06,0.264c0.323,0.182,1.114,0.344,1.336,0.648
		c0.325,0.406,0.243,1.237,0.446,1.783c0.404,0.183,0.81,0.386,1.216,0.568c0.182,0.223,0.385,0.466,0.567,0.688
		c0.425,0.284,1.053,0.406,1.52,0.628c0.182,0.081,0.304,0.324,0.506,0.385h0.891c0.568,0.143,1.257,0.243,1.783,0.385
		c0.203,0.062,0.446-0.02,0.568,0.062c0.811,0.242,0.973,1.643,0.77,2.554c-0.507,0.344-0.405,0.467-1.338,0.447
		c-0.263-0.162-0.667-0.123-0.952-0.266c-0.162-0.079-0.304-0.284-0.446-0.384c-0.547-0.365-1.195-0.448-1.843-0.709
		c-0.143-0.063-0.305-0.266-0.446-0.326c-0.324-0.122-0.77-0.182-1.013-0.263h-0.567c-0.143-0.061-0.264-0.305-0.385-0.386
		c-0.365-0.242-0.912-0.242-1.277-0.506c-0.385-0.283-0.162-0.607-0.891-0.627c-0.182,0.243-0.567,0.405-0.709,0.689
		c-0.142,0.304,0,0.668-0.263,0.831c-0.182,0.121-0.486,0.041-0.628,0c-0.141,0.02-0.304,0.041-0.445,0.061
		c-0.649,0.021-1.156-0.203-1.398-0.567c-0.669-0.872,0.627-1.884,0.83-2.351c0.122-0.304,0-0.568,0-0.953
		c-0.729-0.486-0.992-1.499-1.904-1.783c-1.438-0.445-1.256,2.107-1.458,3.06c-0.224,0.992,0.061,2.167,0.567,2.815
		c0.263,0.326,0.791,0.528,1.013,0.892c0.243,0.385,0.263,0.832,0.506,1.216c0.325,0.486,0.953,0.526,1.398,0.89
		c0.102,0.143,0.223,0.305,0.304,0.447c0.162,0.104,0.324,0.04,0.506,0.123c0.102,0.143,0.224,0.261,0.325,0.384
		c0.891,0.565,1.904,0.771,2.795,1.338c0.304,0.182,0.446,0.589,0.831,0.708c0.628,0.063,1.276,0.122,1.904,0.182
		c0.669,0.245,1.216,0.851,1.783,1.219c0.527,0.345,1.237,0.463,1.723,0.827c0.243,0.187,0.446,0.771,0.648,0.895
		c0.122,0.02,0.243,0.039,0.386,0.06c0.182,0.103,0.364,0.364,0.567,0.447h1.135c0.385,0.118,0.729,0.506,1.013,0.688
		c0.244,0.162,1.338,0.629,1.601,0.708h0.892c0.506-0.02,1.013-0.04,1.52-0.06c0.122-0.063,0.263-0.245,0.385-0.324
		c0.162-0.103,0.304-0.044,0.506-0.123c0.284-0.122,0.547-0.384,0.831-0.506c0.425-0.162,1.033,0,1.398,0.059
		c0.325,0.063,0.466-0.079,0.688-0.059c0.041,0.143,0,0.467,0.062,0.629c0.122,0.324,0.667,0.384,0.506,1.033
		c-0.224,0.811-0.912,1.072-1.337,1.661c-0.243,0.345-0.406,0.852-0.831,1.014c-0.911,0.384-2.147,0.099-3.181,0.384
		c-0.405,0.103-0.872,0.403-1.276,0.506c-0.851,0.222-2.006-0.083-2.877,0.143c-0.224,0.04-0.811,0.202-1.013,0.242
		c-0.264,0.062-0.771-0.143-1.135-0.06c-0.668,0.162-1.317,0.403-2.107,0.565c-0.506,0.104-2.857-0.162-3.263-0.324
		c-0.101-0.04-0.263-0.222-0.385-0.262c-0.344-0.039-0.688-0.083-1.013-0.122c-0.344-0.103-0.992-0.324-1.539-0.183
		c-0.466,0.123-0.953,0.447-1.337,0.566h-1.013c-0.992,0.265-1.195,0.123-2.107-0.119c-0.385-0.103-0.81,0.202-0.891,0.443
		c-0.304,0.408,0.223,1.745,0.325,2.291c0.041,0.242-0.203,1.176-0.263,1.457c-0.021,1.013-0.041,2.049-0.062,3.062
		c-0.142,0.605,0.041,1.476-0.061,2.164c-0.122,0.812-0.061,1.845-0.061,2.738c0,0.566,0.041,1.274-0.061,1.722v0.949
		c-0.162,0.713-0.223,1.382-0.385,2.109c-0.021,0.526-0.041,1.072-0.062,1.599c-0.203,0.831-0.445,1.662-0.628,2.493
		c-0.041,0.914-0.081,1.824-0.122,2.734c-0.121,0.526-0.243,1.136-0.263,1.785c0.183,0.142,0.304,0.446,0.506,0.565
		c0.284,0.182,1.904,0.57,2.492,0.388c0.162-0.063,0.344-0.206,0.568-0.265c0.06-0.428,0.141-0.709,0.506-0.831
		c0.466-0.345,1.601,0.02,2.107-0.325c0.283-0.182,0.77-0.728,0.892-1.092c0.101-0.305,0.041-0.648,0.182-0.895
		c0.263-0.201,0.506-0.423,0.77-0.625c0.284-0.407,0.425-0.752,0.709-1.155c0.344-0.285,0.668-0.57,1.013-0.831h0.325
		c0.304,0.305,0.709,0.324,0.77,0.891c0.081,0.143,0.041,0.708-0.06,1.096c-0.224,0.808-0.487,1.864-0.264,2.794
		c0.446,0.265,0.912,0.569,1.337,0.895c0.587,0.442,0.831,1.215,1.601,1.539c0.791,0.324,1.216-0.507,2.107-0.324
		c0.911,0.182,2.067,0.118,2.999,0c0.122-0.021,0.365,0.099,0.445,0.118c0.669,0.162,1.622,0.063,2.229,0.063
		c0.243,0.281,0.344,0.345,0.324,0.974c0.061,0.06,0.02,0,0.061,0.118c0.811,0.408,1.358,1.077,1.985,1.662v0.752
		c-1.013,0.646-0.223,0.989,0,1.658v0.712c0.102,0.364,0.203,0.669,0.122,1.151c-0.323,0.104-0.547,0.368-0.891,0.447
		c-0.385,0.083-0.851-0.182-1.155-0.261c-0.284-0.023-0.547-0.044-0.831-0.063c-0.466-0.143-1.013-0.324-1.601-0.443
		c-0.688-0.162-2.431-0.205-3.059-0.063c-0.406,0.084-1.115-0.059-1.459-0.122c-0.83,0.043-1.661,0.083-2.492,0.122
		c-0.243,0.408-0.871,1.136-1.661,0.954c-0.344-0.083-0.81-0.305-1.337-0.202c-0.952,0.202-1.985,0.325-3.12,0.325
		c-0.142,0.222-0.324,0.384-0.506,0.565c-0.607-0.039-1.054-0.06-1.54-0.384c-0.102-0.083-0.183-0.266-0.325-0.324
		c-0.304-0.104-0.628,0.079-0.77,0.118c-0.344,0.083-0.587-0.139-0.831-0.182c-0.203,0.043-0.425,0.083-0.628,0.122
		c-0.304-0.039-0.648-0.344-0.892-0.446c-0.992-0.443-2.147-0.808-2.411-1.963c-0.142-0.629,0.304-2.026,0.506-2.434
		c0.061-0.139,0.263-0.281,0.325-0.443c0.141-0.428-0.203-1.033-0.325-1.338c-0.263-0.083-0.729-0.063-1.073-0.063
		c-0.284,0.226-0.547,0.206-0.953,0.305c-2.351,0.689-3.83-1.155-5.491-1.721c-1.074-0.364-1.783,0.467-2.674,0.265
		c-1.034-0.265-1.56-0.771-2.492-1.096c-0.872-0.285-2.026,0.103-2.735-0.447c-0.102-0.139-0.224-0.301-0.324-0.443
		c-0.162-0.083-0.325-0.02-0.446-0.122c-0.101-0.079-0.323-0.404-0.385-0.507c-0.061-0.202-0.122-0.384-0.182-0.586
		c-0.223-0.285-0.851-0.55-1.094-0.831c-0.162-0.201-0.141-0.55-0.324-0.771c-0.121-0.162-0.973-0.605-1.215-0.768
		c-0.162-0.206-0.345-0.428-0.507-0.629c-0.305-0.202-1.236-0.325-1.722-0.325c-0.324,0.305-0.729,0.547-1.074,0.831
		c-0.202,0.163-0.223,0.487-0.445,0.63c-0.365,0.261-1.702,0.02-2.289,0.182c-0.446,0.143-1.094,0.384-1.601,0.507h-0.953
		c-0.405,0.06-0.811,0.118-1.216,0.182c-0.324,0.099-0.708,0.305-1.073,0.384c-0.223,0.04-0.365-0.06-0.507-0.06
		c-0.304,0.021-0.587,0.04-0.891,0.06c-0.263-0.06-0.73-0.079-1.075-0.06c-0.628,0.04-2.593,0.345-2.998,0.119
		c-0.426-0.139-0.729-0.605-1.074-0.831c-0.324-0.202-0.932-0.222-1.337-0.32c-0.992-0.226-2.27,0.079-2.999,0.261
		c-0.709,0.162-3.343-0.364-3.768-0.565c-1.195-0.609-2.594-1.338-3.627-2.169c-0.607-0.486-1.256-1.278-1.722-1.903
		c-0.182-0.226-0.344-0.59-0.567-0.771c-0.264-0.202-1.703-0.812-2.047-0.891c-0.871-0.245-2.147-0.162-2.999-0.122h-1.763
		c-0.405,0.103-1.013,0.182-1.52,0.059c-0.425-0.099-1.033-0.138-1.458-0.32c-0.325-0.122-0.628-0.407-0.953-0.506
		c-0.628-0.206-1.276-0.063-1.783-0.325c-0.142-0.062-0.244-0.305-0.385-0.388c-0.385-0.222-0.709-0.261-1.013-0.506
		c-0.162-0.119-0.244-0.364-0.446-0.443c-0.466-0.226-1.317-0.226-1.783-0.325c-0.688-0.142-1.904,0.729-2.552,0.891
		c-0.305,0.083-0.628-0.079-0.831-0.122c-0.203,0.02-0.425,0.043-0.628,0.062c-0.223-0.062-0.607-0.142-0.892-0.265
		c-0.628-0.241-1.175-0.792-1.844-0.954c-1.195-0.301-1.621,0.507-2.735,0.246c-0.162-0.246-0.304-0.285-0.324-0.709
		c0.081-0.122-0.021-0.388,0.061-0.569c0.102-0.241,0.568-0.93,0.831-1.014c0.709-0.525,2.005-0.324,2.999-0.585
		c0.689-0.183,1.236-0.546,1.864-0.812c0.163-0.06,0.648-0.324,0.831-0.364c0.729-0.245,1.499-0.039,1.904-0.59
		c0.284-0.384-0.101-0.688,0-1.072c0.082-0.344,0.466-1.599,0.709-1.78c0.79-0.669,2.289-0.467,3.302-0.895
		c0.729-0.305,1.641-0.728,2.351-1.013c0.607-0.262,1.235-0.281,1.843-0.507c0.385-0.143,0.812-0.423,1.277-0.506
		c0.182-0.021,0.283,0.103,0.385,0.122h1.013c0.202,0.06,0.385,0.241,0.708,0.183c0.771-0.143,1.621-0.06,2.493-0.266h1.073
		c1.52-0.384,3.404-0.403,4.903-0.827c1.723-0.486,3.769-0.914,5.41-1.4c0.75-0.241,1.601-0.1,2.29-0.384
		c0.871-0.345,1.721-0.891,2.492-1.338c0.344-0.202,0.688-0.241,1.013-0.447c0.243-0.162,0.607-0.443,0.892-0.565
		c0.223-0.079,0.952-0.202,1.154-0.262h0.831c0.77-0.205,1.742-0.55,2.614-0.771c0.628-0.039,1.276-0.083,1.904-0.122
		c1.073-0.305,1.58-1.255,2.796-1.52c0.851-0.183,1.073,0.83,1.844,0.629c0.242-0.06,0.547-0.285,0.77-0.384
		c0.345-0.143,0.709-0.104,1.094-0.266c0.445-0.182,0.932-0.605,1.398-0.831c0.243-0.099,0.425-0.039,0.709-0.122
		c0.81-0.281,1.62-0.688,2.492-0.891c0.203,0.02,0.426,0.04,0.628,0.063c0.688-0.162,1.499-0.368,2.107-0.507
		c0.588-0.143,0.83,0.345,1.155,0.507c0.344,0.182,0.729,0.118,1.094,0.32c0.244,0.123,0.547,0.407,0.831,0.507
		c0.223,0.043,0.425,0.083,0.627,0.122c0.224,0.104,0.386,0.364,0.628,0.447c0.831,0.241,1.438-0.344,1.904-0.506
		c0.346-0.123,0.75-0.222,1.013-0.325h1.135c0.365-0.143,0.587-0.427,1.155-0.506c0.851,0.91,1.642,0.162,2.492-0.123
		c0.364-0.123,0.749-0.123,1.094-0.324c0.506-0.305,0.567-0.768,0.891-1.274c0.122-0.103,0.263-0.226,0.385-0.324
		c0.02-0.123,0.041-0.266,0.061-0.384c0.102-0.083,0.203-0.187,0.325-0.266c0.222-0.344,0.203-0.669,0.324-1.155
		c0.081-0.364,0.405-1.092,0.263-1.599c-0.081-0.226-0.223-0.266-0.263-0.629c0.344-0.222,0.223-0.305,0.385-0.772
		c0.344-1.072,0.182-1.111-0.243-1.983c-0.101-0.182-0.041-0.345-0.122-0.508c-0.588-0.993-1.661-1.62-2.817-2.047
		c-0.304-0.041-0.586-0.08-0.891-0.122c-0.891-0.344-1.195-1.195-1.904-1.661c-0.284-0.182-0.729-0.163-0.952-0.385
		c-0.608-0.607-0.588-2.35-1.459-2.674c-0.243-0.143-1.479-0.041-1.985-0.183c-0.668-0.202-0.831-0.871-1.661-0.891
		c-0.487,0.506-1.115,0.912-1.541,1.459c-0.162,0.223-0.284,0.547-0.506,0.709c-0.163,0.122-0.324,0.08-0.507,0.182
		c-0.304,0.182-0.485,0.607-0.77,0.831c-0.325,0.242-0.791,0.445-1.013,0.749c-0.365,0.466-1.135,1.723-1.601,1.966
		c-0.243,0.142-0.607,0.041-0.831,0.203c-0.404,0.263-0.404,0.83-1.013,0.892c-0.486-0.466-0.911-0.953-1.398-1.398
		c0.041-1.054,0.791-1.256,1.398-1.722c0.791-0.588,1.297-1.541,2.168-2.107c0.526-0.324,1.316-0.344,1.397-1.073
		c-0.871,0-1.378,0.526-1.965,0.83c-0.466,0.223-0.973,0.143-1.479,0.324c-0.385,0.142-0.871,0.385-1.336,0.507
		c-0.527,0.141-2.979-0.344-3.323-0.507c-0.304-0.162-0.831-0.688-1.276-0.628c-1.378,0.182-2.148,1.256-3.445,1.459
		c-0.365,0.061-0.648-0.284-0.891-0.385c-0.729-0.305-1.419-0.587-2.168-0.892c-0.547-0.223-1.256-0.121-1.844-0.324
		c-0.688-0.243-1.357-0.709-1.985-0.953c-0.365-0.142-0.872-0.142-1.156-0.385c-0.141-0.122-0.242-0.365-0.385-0.506
		c-0.202-0.203-0.466-0.284-0.708-0.446c-0.284-0.202-0.467-0.567-0.771-0.77c-0.547-0.385-1.499-0.628-1.904-1.155
		c-0.284-0.406-0.061-1.013-0.709-1.094c-0.283-0.162-0.729,0.101-1.154,0c-0.182-0.041-0.648-0.203-0.831-0.263
		c-0.162-0.041-2.249,0.364-2.431,0.445c-0.224,0.102-0.446,0.385-0.628,0.506c-0.405,0.284-0.932,0.244-1.216,0.649
		c-0.081,0.122-0.222,0.404-0.263,0.506v0.77c-0.081,0.142-0.689,0.445-0.831,0.628c-0.507,0.688-1.033,1.438-1.661,2.046
		c-0.344,0.324-0.81,0.446-1.094,0.831c-0.608,0.831-1.053,1.783-1.662,2.614c-0.546,0.729-1.418,1.256-2.046,1.904
		c-0.507,0.526-1.033,2.127-1.601,2.492c-0.406,0.246-1.357,0.04-1.783,0.325c-0.284,0.183-1.094,0.891-1.216,1.215
		c-0.122,0.305-0.041,0.609-0.182,0.831c-0.344,0.507-0.973,0.59-1.601,0.831c-0.365,0.143-0.689,0.364-1.156,0.245
		c-0.667-0.162-1.438-0.186-1.661-0.771c-0.385-0.447,0.182-1.824,0.506-2.046c0.872-0.59,2.127-0.67,2.938-1.338
		c0.344-0.285,0.567-1.236,0.83-1.662c0.162-0.122,0.345-0.263,0.506-0.385c0.669-0.933,0.771-0.587,2.047-0.831
		c0.325-0.689,0.669-0.486,1.216-0.892c0.526-0.385,0.749-1.155,1.276-1.541c0.223-0.161,0.587-0.101,0.831-0.242
		c0.242-0.162,1.033-1.459,1.276-1.784c0.892-1.235,2.046-2.269,2.877-3.565c0.223-0.365,0.446-0.891,0.567-1.276
		c0.021-0.203,0.041-0.385,0.061-0.568c0.264-0.284,0.507-0.547,0.77-0.83c0.365-0.709,0.223-1.135,1.013-1.48
		c0.243-0.101,0.425-0.04,0.709-0.121c0.507-0.162,1.256-0.467,1.783-0.568c0.223,0.021,0.425,0.041,0.648,0.061
		c0.102-0.041,0.243-0.223,0.325-0.264c0.75-0.385,1.985-0.526,2.816-0.182c0.304,0.122,0.506,0.425,0.77,0.567
		c0.446,0.264,1.256,0.425,1.398,0.953c0.102,0.385-0.283,0.587-0.324,1.013c0.081,0.061,0.101,0.122,0.182,0.182
		c0.203,0.143,0.75,0.304,1.013,0.325c0.141-0.021,0.304-0.041,0.445-0.061c0.628,0.142,1.054,0.648,1.601,0.83
		c0.487,0.162,0.912-0.02,1.277,0.183c0.588,0.364,0.688,0.77,1.013,1.398c0.242,0.445,1.377,1.681,1.783,1.964
		c0.607,0.426,1.722,0.487,2.614,0.628c0.404-0.02,0.81-0.041,1.216-0.061c0.385,0.101,0.911,0.425,1.52,0.263
		c0.506-0.142,1.235-0.365,1.783-0.567c0.243-0.081,0.526-0.365,0.77-0.446c0.851-0.284,1.601,0.081,2.289,0.263
		c0.771,0.183,1.419-0.284,1.844-0.506c0.324-0.162,0.688-0.162,0.831-0.506c0.061-0.101,0.061-0.263,0.061-0.445
		c-0.669,0-0.952,0.304-1.479,0.445c-0.607,0.162-1.175-0.122-1.783,0c-0.668,0.141-1.56,0.203-2.168,0.061
		c-0.041-0.061-0.08-0.122-0.121-0.203c-0.183-0.243-0.102-0.568-0.062-0.891c0.385-0.284,0.568-0.709,1.094-0.892
		c0.466-0.162,0.993-0.081,1.398-0.243c0.122-0.466,0.062-0.608,0.709-0.568c0.284-0.163,0.81,0.102,1.073,0.122
		c0.568,0.041,1.155,0.081,1.722,0.122c0.649,0.162,1.256,0.487,2.047,0.507c0.02-0.061,0.041-0.122,0.061-0.182
		c0.223-0.466-0.426-1.115,0.385-1.662c0.224-0.161,0.487-0.04,0.831-0.121c1.904-0.446,2.512,1.255,4.336,0.77
		c2.167-0.587,4.822-0.831,6.949-1.459c0.527-0.163,1.135-0.142,1.601-0.324c0.143-0.264,0.425-0.608,0.506-0.892
		c0.021-0.243,0.041-0.466,0.062-0.688c0.06-0.142,0.242-0.263,0.323-0.385c0.365-0.587,0.649-1.216,0.709-2.107
		c-0.263-0.284-0.466-0.77-0.831-0.953c-1.134-0.567-2.795,0.548-3.625,0.892c-0.386,0.101-0.771,0.223-1.135,0.324
		c-0.305,0.183-0.487,0.608-0.771,0.771c-0.364,0.202-1.013-0.061-1.458,0.061c-0.77,0.223-1.479,0.628-2.351,0.831
		c-0.972,0.222-2.593-1.054-3.443-1.277c-0.487-0.121-1.075,0.143-1.459,0.062c-0.142-0.021-0.365-0.163-0.567-0.122
		c-0.224,0.041-0.426,0.163-0.628,0.122c-0.588-0.101-1.784,0.101-2.351,0.203c-0.506,0.081-1.033-0.365-1.661-0.122
		c-0.487,0.182-1.175,1.216-1.844,0.77c-0.244-0.081-0.912-0.791-0.953-1.073c-0.041-0.081,0.021-0.203,0.061-0.385
		c0.163-0.102,0.325-0.325,0.506-0.386c0.486-0.162,0.993,0.143,1.52,0c0.142-0.041,0.364-0.222,0.507-0.263
		c0.404-0.082,1.073,0.263,1.661,0.122c0.324-0.081,1.013,0.06,1.397-0.061c1.662-0.506,3.81-0.224,5.491,0.121
		c0.872,0.183,0.831-0.567,1.662-0.567c0.182,0.122,1.802,0.304,2.167,0.182c0.446-0.142,0.668-0.709,1.094-0.891
		c0.263-0.041,0.507-0.081,0.77-0.122c0.872-0.304,1.56-0.668,2.229-1.155c0.385-0.284,0.344-0.972,0.709-1.276
		c0.243-0.183,1.135-0.487,1.458-0.568c0.143-0.324,0.406-0.567,0.507-0.892c0.608-1.803,0.061-5.389-0.263-7.01
		c0.021-0.182,0.041-0.385,0.061-0.567c0.02-0.527-0.102-0.912-0.061-1.338c0.041-0.385,0.223-0.729,0.122-1.216
		c-0.122-0.041-0.203-0.06-0.385-0.06c-0.263,0.202-0.688,0.263-0.892,0.506c-0.263,0.324-0.425,0.973-0.77,1.215
		c-0.425,0.305-0.852,0.487-1.135,0.893c-0.264,0.364-0.446,0.648-0.709,1.013c-0.244,0.182-0.466,0.385-0.709,0.567
		c-0.101,0.142-0.122,0.284-0.263,0.385c-0.284,0.224-0.669,0.385-0.891,0.649c-0.284,0.324-0.547,0.83-0.892,1.074
		c-0.527,0.385-1.175,0.486-1.581,0.953c-0.163,0.182-0.244,0.506-0.445,0.627c-0.224,0.163-0.466,0.163-0.649,0.386
		c-0.364,0.486-1.175,1.56-1.661,1.843c-0.284,0.183-2.27,0.466-2.553,0.446c-0.202-0.263-0.567-0.284-0.688-0.628
		c-0.344-0.587,0.446-1.398,0.628-1.722c0.041-0.122,0.081-0.263,0.122-0.385c0.222-0.325,1.458-0.953,1.904-1.074h0.506
		c0.466-0.142,0.547-0.709,0.831-0.892c0.182-0.101,0.344,0.081,0.648,0c0.344-0.081,0.628-0.385,0.891-0.567
		c1.479-1.114,2.635-2.614,4.012-3.83c0.263-0.243,0.587-0.364,0.891-0.567c0.912-0.648,2.472-3.12,2.938-4.274
		c0.405-0.993,0.041-2.229,0.324-3.384c0.405-1.661,0.344-3.059,0-4.72c-0.061-0.021-0.122-0.041-0.183-0.061
		c-0.485-0.263-0.891,1.054-1.336,1.216h-0.709c-0.244,0.06-0.729,0.182-0.953,0.324c-0.081,0.041-0.182,0.223-0.263,0.263
		c-0.507,0.223-0.994,0.182-1.459,0.445c-0.364,0.203-0.627,0.649-0.952,0.892c-0.385,0.284-0.872,0.527-1.276,0.771
		c-0.405,0.223-1.459,0.466-1.904,0.182c-0.73-0.263-1.053-1.945-0.324-2.351c0.364-0.202,0.729-0.08,1.216-0.182
		c0.567-0.142,1.114-0.284,1.721-0.506c0.771-0.284,1.399-1.033,2.107-1.338c0.668-0.283,1.54-0.404,1.784-1.073
		c0.222-0.466-0.669-0.628-0.953-0.831c-0.162-0.122-0.141-0.263-0.263-0.445c-0.163-0.224-0.912-0.669-1.338-0.568
		c-0.79,0.183-1.601,0.608-2.431,0.831c-0.486,0.325-1.094,0.062-1.48,0.143c-0.344,0.061-1.377,0.364-2.045,0.182
		c-0.263-0.081-0.526-0.305-0.831-0.385c-0.607-0.162-1.337,0.203-1.783,0.323c-0.77,0.203-1.216-0.243-1.986-0.06
		c-0.688,0.162-1.479,0.284-2.167,0.446c-0.953,0.222-2.229-0.021-3.06-0.183c-0.425-0.101-0.77,0.141-1.094,0.183
		c-0.122-0.021-0.242-0.042-0.385-0.062c-0.75,0.182-1.154,0.791-1.844,1.013c-0.567,0.182-1.053,0.141-1.661,0.324
		c-0.547,0.182-1.114,0.385-1.661,0.567c-0.608,0.183-1.276,0.061-1.601,0.506c-0.143,0.163-0.143,0.446-0.122,0.77
		c0.831,0.628,0.932,2.209,0.324,3.12c-0.305,0.446-0.912,0.628-1.155,1.155c-0.02,0.203-0.041,0.425-0.061,0.628
		c-0.162,0.546-0.425,1.336-0.568,1.843c-0.142,0.466-0.041,0.689-0.263,1.013c-1.053,1.622-2.674,2.797-4.214,3.951
		c-0.566,0.425-0.851,1.255-1.52,1.601c-0.283,0.041-0.547,0.081-0.83,0.122c-0.203,0.081-0.506,0.243-0.771,0.324h-1.539
		c-0.729,0.203-1.763,0.203-2.674,0.203c-0.284-0.02-0.547-0.041-0.831-0.06c-0.426,0.08-0.912-0.102-1.398,0
		c-1.297,0.283-4.174,0.041-5.289-0.446c-0.142-0.061-0.243-0.263-0.385-0.325c-0.547-0.242-1.255-0.385-1.843-0.323"/>
</g>
</svg>
