<?xml version="1.0" encoding="utf-8"?>
<!-- Generator: Adobe Illustrator 22.0.0, SVG Export Plug-In . SVG Version: 6.00 Build 0)  -->
<svg version="1.1" id="Layer_1" xmlns="http://www.w3.org/2000/svg" xmlns:xlink="http://www.w3.org/1999/xlink" x="0px" y="0px"
	 viewBox="0 0 241.7419 69.20181" style="enable-background:new 0 0 241.7419 69.20181;" xml:space="preserve">
<style type="text/css">
	.st0{fill:#266726;}
</style>
<g>
	<path class="st0" d="M96.59347,40.24282c-1.68848,2.14551-4.4668,3.37598-7.20996,3.37598
		c-5.27637,0-9.49609-3.5166-9.49609-8.96875c0-5.45117,4.21973-8.96875,9.49609-8.96875c4.92383,0,8.01855,3.51758,8.01855,8.96875
		v1.65332H85.1628c0.42188,2.00488,1.93457,3.30566,3.97461,3.30566c1.72266,0,2.88379-0.87891,3.7627-2.0752L96.59347,40.24282z
		 M92.12667,32.71547c0.03516-1.75781-1.33691-3.23535-3.23535-3.23535c-2.32129,0-3.58789,1.58301-3.72852,3.23535H92.12667z"/>
	<path class="st0" d="M97.58077,26.10317h5.69824l4.3252,11.60742h0.07129l4.00879-11.60742h5.31152l-6.75293,17.09375h-5.59277
		L97.58077,26.10317z"/>
	<path class="st0" d="M133.81612,40.24282c-1.68848,2.14551-4.4668,3.37598-7.20995,3.37598
		c-5.27637,0-9.49609-3.5166-9.49609-8.96875c0-5.45117,4.21973-8.96875,9.49609-8.96875c4.92382,0,8.01855,3.51758,8.01855,8.96875
		v1.65332h-12.23925c0.42188,2.00488,1.93457,3.30566,3.97461,3.30566c1.72265,0,2.88378-0.87891,3.76269-2.0752L133.81612,40.24282
		z M129.34932,32.71547c0.03516-1.75781-1.33691-3.23535-3.23534-3.23535c-2.32129,0-3.58789,1.58301-3.72852,3.23535H129.34932z"/>
	<path class="st0" d="M137.12471,26.10317h5.27539v2.74414h0.07031c1.12598-2.0752,2.60254-3.16602,4.92383-3.16602
		c0.59863,0,1.2666,0.03516,1.75879,0.17578v4.81836c-0.73828-0.21094-1.47656-0.35156-2.25098-0.35156
		c-4.00977,0-4.50195,2.32129-4.50195,5.7334v7.13965h-5.27539V26.10317z"/>
	<path class="st0" d="M169.02705,41.75454c0,6.43652-3.27148,9.88379-9.88379,9.88379c-3.02441,0-6.11914-0.52734-8.58105-2.49707
		l2.91895-4.36133c1.61816,1.37109,3.41113,2.21582,5.55664,2.21582c3.20117,0,4.71289-1.75879,4.71289-4.18555v-1.65332h-0.07031
		c-1.19531,1.65332-3.23535,2.25098-4.81836,2.25098c-5.06445,0-8.40527-3.6582-8.40527-8.82812
		c0-4.53711,2.9541-8.89844,7.80762-8.89844c2.98926,0,5.0293,1.44238,5.83887,2.67285h0.07031v-2.25098h4.85352V41.75454z
		 M159.95284,38.76528c2.3916,0,4.2207-2.00488,4.2207-4.2207s-1.8291-4.2207-4.2207-4.2207s-4.2207,2.00488-4.2207,4.2207
		S157.56123,38.76528,159.95284,38.76528z"/>
	<path class="st0" d="M172.01924,26.10317h5.27539v2.74414h0.07031c1.12598-2.0752,2.60254-3.16602,4.92383-3.16602
		c0.59863,0,1.2666,0.03516,1.75879,0.17578v4.81836c-0.73828-0.21094-1.47656-0.35156-2.25098-0.35156
		c-4.00977,0-4.50195,2.32129-4.50195,5.7334v7.13965h-5.27539V26.10317z"/>
	<path class="st0" d="M201.95186,40.24282c-1.68848,2.14551-4.4668,3.37598-7.20996,3.37598
		c-5.27637,0-9.49609-3.5166-9.49609-8.96875c0-5.45117,4.21973-8.96875,9.49609-8.96875c4.92383,0,8.01855,3.51758,8.01855,8.96875
		v1.65332h-12.23926c0.42188,2.00488,1.93457,3.30566,3.97461,3.30566c1.72266,0,2.88379-0.87891,3.7627-2.0752L201.95186,40.24282z
		 M197.48506,32.71547c0.03516-1.75781-1.33691-3.23535-3.23535-3.23535c-2.32129,0-3.58789,1.58301-3.72852,3.23535H197.48506z"/>
	<path class="st0" d="M221.61494,40.24282c-1.68848,2.14551-4.4668,3.37598-7.20996,3.37598
		c-5.27637,0-9.49609-3.5166-9.49609-8.96875c0-5.45117,4.21973-8.96875,9.49609-8.96875c4.92383,0,8.01855,3.51758,8.01855,8.96875
		v1.65332h-12.23926c0.42188,2.00488,1.93457,3.30566,3.97461,3.30566c1.72266,0,2.88379-0.87891,3.7627-2.0752L221.61494,40.24282z
		 M217.14815,32.71547c0.03516-1.75781-1.33691-3.23535-3.23535-3.23535c-2.32129,0-3.58789,1.58301-3.72852,3.23535H217.14815z"/>
	<path class="st0" d="M225.28194,26.10317h5.06445v2.32129h0.07031c0.70312-1.33594,2.42676-2.74316,4.99414-2.74316
		c5.34668,0,6.33105,3.51758,6.33105,8.08984v9.42578h-5.27539v-8.37109c0-1.96973-0.03516-4.50195-2.74316-4.50195
		c-2.74414,0-3.16602,2.14551-3.16602,4.36133v8.51172h-5.27539V26.10317z"/>
</g>
<g>
	<path class="st0" d="M21.60299,12.94552c-1.68109-2.71906-5.24811-3.56049-7.96716-1.87939
		c-2.71906,1.68103-3.56049,5.24805-1.87946,7.9671c1.68109,2.71906,5.24811,3.56055,7.96716,1.87946
		S23.28408,15.66457,21.60299,12.94552z M19.5834,16.47811c-0.81226,1.63989-2.42664,2.70093-4.1391,2.19702
		c-1.79211-0.52728-2.45789-2.96576-2.19702-4.1391c0.46863-2.10791,2.4328-2.85858,4.1391-2.19702
		C19.12917,13.01479,20.54537,14.53603,19.5834,16.47811z"/>
</g>
<path class="st0" d="M67.07833,34.6559c-0.16797-3.79688-0.3418-7.72363-0.31006-12.41211
	c0.02197-3.26123-0.0376-7.91553-0.44531-11.56641c-0.62842-5.62988-2.29541-9.26807-8.65576-10.01025
	c-6.78369-0.79199-14.46631-0.69922-21.89307-0.6084c-2.18457,0.02637-4.37598,0.05322-6.55664,0.05859
	c-1.01025,0-1.96924-0.00488-2.89355-0.00977c-1.99707-0.00977-3.88184-0.02002-5.74805,0.02441l-0.12207,0.00293
	c-2.64453,0.0625-5.37891,0.12695-8.07471,0.39453C4.2297,1.33803,1.23409,4.42592,0.93087,12.33022
	c-0.08789,2.28564-0.18311,4.56396-0.27832,6.83594C0.11398,32.03286-0.39433,44.1852,0.44649,56.756
	c0.31641,4.72754,1.68652,9.72754,9.4502,10.96973c6.74512,1.07959,14.06641,1.47607,21.4751,1.47607
	c8.6665,0,17.45166-0.54248,25.56445-1.16992c8.39258-0.64893,8.94824-5.63721,9.7168-12.54151l0.10059-0.89746
	C67.62081,46.92495,67.35714,40.96547,67.07833,34.6559z M3.51095,19.28579c0.09521-2.27539,0.19043-4.55664,0.27832-6.84619
	c0.24707-6.44873,2.1543-8.39697,8.87207-9.06348c2.58887-0.25684,5.26855-0.32031,7.85986-0.38184l0.12207-0.00293
	c1.04053-0.02441,2.09375-0.03174,3.17236-0.03174c0.81494,0,1.64404,0.00391,2.49365,0.0083
	c0.93018,0.00488,1.89502,0.00977,2.91162,0.00977h0.00342c2.19043-0.00537,4.39062-0.03223,6.58447-0.05859
	c7.67627-0.09229,14.92627-0.18115,21.52686,0.58887c4.17236,0.4873,5.55078,2.1665,6.14453,7.48682
	c0.41309,3.69775,0.44531,8.62305,0.42773,11.22949c-0.03223,4.76172,0.14307,8.7251,0.3125,12.55811
	c0.19147,4.32513,0.35718,8.26624,0.19873,12.62457c-1.21283-1.60046-3.65228-3.35059-5.89246-4.90546
	c-1.59619-1.51086-5.39062-3.9234-9.01245-6.1651c0.01276-0.11963,0.04816-0.19897,0.10535-0.16882
	c0.86255,0.45422,1.19867,0.27435,1.99915,0.33154c0.90155,0.06439,1.70959,0.80554,2.06891,0.9837
	c0.72406,0.35907,2.45776-0.52515,1.03333-1.27747c-0.2597-0.13715-1.81427-1.07794-2.45038-2.05707
	c-0.39679-0.6109-2.41553-0.35803-2.81842-1.80347c-0.11853-0.42535-0.06866-0.81696,0.04272-0.80774
	c0.31836,0.02637,1.09082,0.12244,1.40253,0.62738c0.36481,0.59094,1.92438,0.46918,1.94244,0.08093
	c0.03351-0.71716-3.28345-1.76123-3.31567-2.96265c-0.00891-0.33099-0.07336-0.80231,0.10431-0.81781
	c0.39697-0.03461,2.04572,0.74976,2.23206,0.90125c0.97211,0.79004,1.5213,0.66138,2.42987,0.52209
	c0.7041-0.10797,0.25488-1.30115-1.22833-1.94318c-1.45758-0.63098-1.42761-1.8186-3.06659-2.41205
	c-0.91803-0.33234-0.47467-1.8797-0.32794-1.80164c0.49371,0.26263,1.55206-0.07385,2.11456,0.60175
	c0.50043,0.60101,1.66364,0.23792,1.49121-0.09973c-0.49493-0.96936-2.95837-3.078-3.13684-3.3291
	c-0.66882-0.94116-0.83173-2.25641-0.83173-2.6438c0-0.09094,1.86267,0.83929,1.40833-0.1391
	c-0.38245-0.82355-1.18945-1.5531-1.38263-2.52478c0.22888,0.14374,1.29199,0.36975,1.2204,0.03687
	c-0.06805-0.31659-0.72156-0.94965-1.16736-1.83203c-0.57709-1.14258-0.83295-2.30164-0.97076-2.83496
	c-0.10901-0.42151-0.70886-0.43427-0.82672-0.01514c-0.49243,1.75208-0.62415,4.0426-1.59747,5.25238
	c-0.75208,0.93475-2.84363,3.8584-1.6474,3.6369c0.91632-0.16974,1.64734-0.16565,1.64734-0.16565
	c0,1.15924-2.06183,2.93018-2.32434,3.31525c-0.37952,0.55658-0.29828,0.71429-0.05658,0.71045
	c0.35309-0.00549,1.1615-0.27045,1.1615-0.27045c0.05469,0.22662-0.12854,0.68695-0.40411,0.95087
	c-0.76935,0.73688-2.46558,1.34283-2.77039,2.51202c-0.10413,0.39948,0.86353,0.59894,1.57159,0.11566
	c1.04797-0.71521,1.81427-0.26093,2.54376-1.05914c0.31067-0.33997,0.25635,0.53851-0.00482,0.90173
	c-1.24738,1.73468-3.77466,2.54089-3.6842,3.72455c0.04346,0.56781,1.25031-0.14563,2.03888,0.01941
	c1.02094,0.21368,0.79913-0.65125,1.70038,0.03644c0.10052,0.07672-0.08997,0.99707-0.23315,1.55353
	c-0.09357,0.36377-0.38379,0.79065-0.75311,1.21808c-1.57886-0.9917-2.78943-1.79022-3.25568-2.22491
	c-0.66547-0.62042-2.86554-2.94922-3.5155-3.31409c-1.31232-0.73682-2.63458,0.33893-4.02759,0.28668
	c-2.40863-0.09039-2.29492-1.83191-4.80823-0.67169c-1.05457,0.48676-1.43488,0.89423-4.44043,3.14319
	c-0.80573,0.60291-6.05774,5.43738-6.89893,6.04572c-0.83411,0.60321-1.99176,0.89423-2.68768,1.42468
	c-2.33466,1.77979-2.63971,2.80615-5.61542,3.87512c-1.53345,0.5509-4.79321,1.30994-4.53638,2.96332
	c2.28394-0.99847,4.94147-2.04279,7.40857-2.34937c1.91974-0.23859,2.16669-0.30444,3.96326-1.1546
	c2.6098-1.23505,3.00195-3.44843,6.15417-5.71954c1.24707-0.8985,3.50848-2.92523,4.42853-3.13922
	c0.49829,1.0481-2.2713,6.16821-2.98242,6.87067c-1.15082,1.13666-4.29279,2.37457-4.27979,4.60773
	c0.86859-0.04907,2.18817-1.52472,4.97754-2.6347c1.45886-0.58051,1.98718-2.68701,3.13721-4.08398
	c0.42938,0.48114,0.76984,2.39734,0.76868,2.65204c-0.00592,1.33521-0.52173,3.72595-1.16376,4.81866
	c-0.62372,1.0614-3.20203,2.51959-3.41235,3.04932c-0.38977,0.98169,0.13495,1.0459,0.77313,1.14301
	c0.97949-0.64374,2.40491-1.70953,2.70673-2.11194c0.35394-0.47186,2.27252-4.50775,2.60449-5.54749
	c0.50867-1.59326-0.95575-8.94159,0.97504-9.95959c0.1601-0.08441,0.30255-0.164,0.4325-0.24023
	c1.62573-0.50232,3.00513-0.76105,3.76355-0.61926c1.20166,0.22467,5.72858,3.41565,7.55908,4.67352
	c-0.12225,0.08856-0.23999,0.1712-0.34271,0.23773c-0.94214,0.61053-2.89349,2.56512-2.08276,2.9809
	c1.22021,0.62573,1.13025,0.20343,1.91638-0.17358c0.39526-0.18958,0.97717-0.09711,1.65515-0.58807
	c0.84332-0.61066,1.90717-0.401,1.86334-0.12219c-0.15149,0.96539-0.29834,2.08813-1.95288,2.3667
	c-1.28625,0.0304-1.7395,1.72961-3.50439,2.68555c-1.80518,0.97778-0.18842,1.76831,0.69562,1.34717
	c1.13641-0.54144,1.25354,0.57117,2.38409,0.12787c1.89386-0.74249,2.47681-1.29486,2.47681-1.12976
	c0,1.11603,0.18115,2.88098-3.10895,3.42236c-2.05701,0.3385-2.05762,2.89154-3.24451,3.63165
	c-0.7124,0.44421,0.4762,1.79169,1.52814,1.23651c0.66882-0.35303,1.35291-0.90198,2.25482-0.84558
	c1.06696,0.06665,1.40375-0.42529,2.44568-0.75305c0.16724-0.05261,0.12775,0.85016-0.32379,1.19141
	c-0.21997,0.16626-0.37628,0.06384-1.18463,0.42932c-0.43097,0.19489-0.81714,1.10547-1.76862,1.13251
	c-1.24908,0.03546-2.35522,1.00195-2.97028,1.51758c-1.20862,1.01324-0.79187,1.94977,0.11688,1.5163
	c2.77942-1.32562,5.75146-1.07526,6.26172-1.50909c0.10413-0.08856,0.15277,1.05719-0.28186,1.23871
	c-1.12024,0.46802-3.93884,1.12689-4.52362,1.2959c-1.74573,0.50452-4.5658,2.66742-3.46442,3.41577
	c0.85834,0.58325,3.42889-0.88422,3.66968-0.38043c0.32202,0.67371-1.97198,1.37177-0.1333,2.28601
	c1.05341,0.52374,3.51727-1.68719,4.80469-1.61017c0,0-0.00232,2.9967-0.00366,5.21015
	c-2.84167-0.90491-7.23846-3.1894-14.95557-2.96039c-5.61658,0.16669-11.93091-2.03656-13.27264-4.48236
	c-0.68048-1.24054,0.25775-2.97681,1.52887-3.53992c0.70905-0.31409-3.0954-2.89563-6.42145-2.47821
	c-2.67529,0.33575-7.48248,2.11755-9.85168-1.1723C2.64028,40.32253,3.0602,30.05513,3.51095,19.28579z M63.80978,55.17397
	c-0.77246,6.94189-1.06201,9.53955-7.09424,10.00586c-2.39105,0.18494-4.84491,0.36041-7.33203,0.51868v-5.49488
	c0.35895-0.05585,1.224-0.06433,2.1214,0.37408c4.61548,2.25458,3.41949,0.26617,4.75305,0.40411
	c1.4021,0.14508,0.61359-1.5199-2.24109-2.24164c-1.40186-0.35437-4.92499-1.46606-4.57233-3.16748
	c0,0,0.49408,0.71442,2.76697,0.36749c0.80463-0.1228,1.29071-0.33801,2.68939,0.37512
	c0.84521,0.43103,3.67139-0.98016,1.93677-1.91718c-0.81818-0.44189-1.33179-0.19928-2.08978-0.57404
	c-0.72882-0.36035-1.46063-1.2804-4.00269-1.6524c-1.0249-0.14996-1.27728-1.43011-1.13068-1.43152
	c0.74005-0.00665,0.28424,0.23346,2.19818,0.43036c0.52911,0.05444,1.69696-0.48584,2.20648-0.43042
	c1.35065,0.14679,2.18884,0.59698,2.39954,0.26294c0.45856-0.72693-0.81049-2.33276-3.35278-2.59674
	c-1.26434-0.13129-2.27124-0.65387-3.0246-1.21942c-0.60675-0.45551-0.54962-1.2948-0.45789-1.23889
	c0.89526,0.54492,3.46985,1.35815,2.35864-0.29126c-0.21625-0.32098,1.57764,0.67621,2.79919,1.08325
	c1.46655,0.48871,1.47845-1.53101-0.75903-2.73615c-0.55408-0.2984-1.00104-1.64844-2.41858-1.77795
	c-0.77148-0.0705-1.84186-0.99066-1.91919-1.26263c-0.09747-0.34308-0.21399-0.93048,0.05347-0.91779
	c0.04004,0.02917,0.07953,0.06561,0.11975,0.09186c0.87256,0.56854,6.39105,3.4986,7.41412,3.95856
	c1.92065,0.86353,1.62524,1.32288,3.00903,2.50336c0.8833,0.75348,3.12823,1.87073,4.06921,3.04407
	c-0.091,1.47687-0.21527,3.00226-0.39923,4.6283L63.80978,55.17397z"/>
</svg>
